CSLSans-ExtraLightItalic.ufo
<glyph name="exclam" format="2">
  <advance width="253"/>
  <unicode hex="0021"/>
  <outline>
    <contour>
      <point x="102" y="178" type="line"/>
      <point x="144" y="434" type="line"/>
      <point x="196" y="698" type="line"/>
      <point x="233" y="698" type="line"/>
      <point x="181" y="434" type="line"/>
      <point x="120" y="178" type="line"/>
    </contour>
    <contour>
      <point x="77" y="-7" type="qcurve"/>
      <point x="46" y="-7"/>
      <point x="46" y="17" type="qcurve"/>
      <point x="46" y="26"/>
      <point x="49" y="39" type="qcurve"/>
      <point x="54" y="68"/>
      <point x="87" y="68" type="qcurve"/>
      <point x="118" y="68"/>
      <point x="118" y="44" type="qcurve"/>
      <point x="118" y="36"/>
      <point x="115" y="22" type="qcurve"/>
      <point x="110" y="-6"/>
    </contour>
  </outline>
</glyph>
<glyph name="quotedbl" format="2">
  <advance width="382"/>
  <unicode hex="0022"/>
  <outline>
    <contour>
      <point x="141" y="483" type="line"/>
      <point x="192" y="740" type="line"/>
      <point x="224" y="740" type="line"/>
      <point x="173" y="483" type="line"/>
    </contour>
    <contour>
      <point x="299" y="483" type="line"/>
      <point x="350" y="740" type="line"/>
      <point x="382" y="740" type="line"/>
      <point x="331" y="483" type="line"/>
    </contour>
  </outline>
</glyph>
<glyph name="numbersign" format="2">
  <advance width="703"/>
  <unicode hex="0023"/>
  <outline>
    <contour>
      <point x="313" y="0" type="line"/>
      <point x="394" y="216" type="line"/>
      <point x="220" y="216" type="line"/>
      <point x="140" y="0" type="line"/>
      <point x="108" y="0" type="line"/>
      <point x="188" y="216" type="line"/>
      <point x="45" y="216" type="line"/>
      <point x="50" y="245" type="line"/>
      <point x="200" y="245" type="line"/>
      <point x="276" y="453" type="line"/>
      <point x="131" y="453" type="line"/>
      <point x="137" y="482" type="line"/>
      <point x="286" y="482" type="line"/>
      <point x="367" y="698" type="line"/>
      <point x="399" y="698" type="line"/>
      <point x="318" y="482" type="line"/>
      <point x="492" y="482" type="line"/>
      <point x="572" y="698" type="line"/>
      <point x="604" y="698" type="line"/>
      <point x="524" y="482" type="line"/>
      <point x="667" y="482" type="line"/>
      <point x="662" y="453" type="line"/>
      <point x="513" y="453" type="line"/>
      <point x="436" y="245" type="line"/>
      <point x="581" y="245" type="line"/>
      <point x="575" y="216" type="line"/>
      <point x="426" y="216" type="line"/>
      <point x="345" y="0" type="line"/>
    </contour>
    <contour>
      <point x="481" y="453" type="line"/>
      <point x="308" y="453" type="line"/>
      <point x="231" y="245" type="line"/>
      <point x="404" y="245" type="line"/>
    </contour>
  </outline>
</glyph>
<glyph name="dollar" format="2">
  <advance width="546"/>
  <unicode hex="0024"/>
  <outline>
    <contour>
      <point x="209" y="-82" type="line"/>
      <point x="181" y="-82" type="line"/>
      <point x="354" y="780" type="line"/>
      <point x="382" y="780" type="line"/>
    </contour>
    <contour>
      <point x="246" y="0" type="qcurve"/>
      <point x="99" y="0"/>
      <point x="17" y="112" type="qcurve"/>
      <point x="44" y="133" type="line"/>
      <point x="80" y="85"/>
      <point x="127" y="58" type="qcurve"/>
      <point x="177" y="32"/>
      <point x="247" y="32" type="qcurve"/>
      <point x="404" y="36"/>
      <point x="422" y="154" type="qcurve"/>
      <point x="424" y="174"/>
      <point x="424" y="190" type="qcurve"/>
      <point x="424" y="284"/>
      <point x="303" y="331" type="qcurve"/>
      <point x="242" y="355" type="line"/>
      <point x="100" y="416"/>
      <point x="99" y="526" type="qcurve"/>
      <point x="99" y="585"/>
      <point x="126" y="623" type="qcurve"/>
      <point x="154" y="662"/>
      <point x="202" y="680" type="qcurve"/>
      <point x="250" y="698"/>
      <point x="309" y="698" type="qcurve"/>
      <point x="451" y="698"/>
      <point x="514" y="601" type="qcurve"/>
      <point x="487" y="582" type="line"/>
      <point x="428" y="666"/>
      <point x="308" y="666" type="qcurve"/>
      <point x="228" y="666"/>
      <point x="183" y="633" type="qcurve"/>
      <point x="138" y="600"/>
      <point x="135" y="525" type="qcurve"/>
      <point x="136" y="432"/>
      <point x="256" y="386" type="qcurve"/>
      <point x="331" y="357"/>
      <point x="375" y="331" type="qcurve"/>
      <point x="420" y="305"/>
      <point x="441" y="266" type="qcurve"/>
      <point x="460" y="232"/>
      <point x="460" y="190" type="qcurve"/>
      <point x="460" y="92"/>
      <point x="400" y="46" type="qcurve"/>
      <point x="340" y="0"/>
    </contour>
  </outline>
</glyph>
<glyph name="ampersand" format="2">
  <advance width="675"/>
  <unicode hex="0026"/>
  <outline>
    <contour>
      <point x="225" y="-12" type="qcurve"/>
      <point x="144" y="-12"/>
      <point x="95" y="26" type="qcurve"/>
      <point x="46" y="65"/>
      <point x="46" y="140" type="qcurve"/>
      <point x="46" y="208"/>
      <point x="94" y="265" type="qcurve"/>
      <point x="144" y="322"/>
      <point x="254" y="375" type="qcurve"/>
      <point x="192" y="456"/>
      <point x="192" y="521" type="qcurve"/>
      <point x="192" y="598"/>
      <point x="243" y="654" type="qcurve"/>
      <point x="294" y="710"/>
      <point x="385" y="710" type="qcurve"/>
      <point x="452" y="710"/>
      <point x="491" y="678" type="qcurve"/>
      <point x="530" y="646"/>
      <point x="530" y="590" type="qcurve"/>
      <point x="530" y="520"/>
      <point x="478" y="475" type="qcurve"/>
      <point x="424" y="426"/>
      <point x="301" y="366" type="qcurve"/>
      <point x="463" y="160" type="line"/>
      <point x="513" y="247"/>
      <point x="534" y="355" type="qcurve"/>
      <point x="649" y="355" type="line"/>
      <point x="642" y="324" type="line"/>
      <point x="557" y="324" type="line"/>
      <point x="534" y="219"/>
      <point x="482" y="135" type="qcurve"/>
      <point x="587" y="0" type="line"/>
      <point x="547" y="0" type="line"/>
      <point x="462" y="108" type="line"/>
      <point x="420" y="54"/>
      <point x="358" y="21" type="qcurve"/>
      <point x="296" y="-12"/>
    </contour>
    <contour>
      <point x="283" y="389" type="qcurve"/>
      <point x="398" y="443"/>
      <point x="446" y="485" type="qcurve"/>
      <point x="496" y="529"/>
      <point x="495" y="586" type="qcurve"/>
      <point x="495" y="631"/>
      <point x="465" y="655" type="qcurve"/>
      <point x="435" y="680"/>
      <point x="381" y="680" type="qcurve"/>
      <point x="322" y="680"/>
      <point x="283" y="648" type="qcurve"/>
      <point x="244" y="616"/>
      <point x="232" y="564" type="qcurve"/>
      <point x="228" y="539" type="line"/>
      <point x="226" y="530"/>
      <point x="226" y="522" type="qcurve"/>
      <point x="226" y="466"/>
    </contour>
    <contour>
      <point x="232" y="19" type="qcurve"/>
      <point x="298" y="20"/>
      <point x="352" y="50" type="qcurve"/>
      <point x="406" y="82"/>
      <point x="444" y="132" type="qcurve"/>
      <point x="271" y="352" type="line"/>
      <point x="182" y="307"/>
      <point x="137" y="267" type="qcurve"/>
      <point x="81" y="214"/>
      <point x="81" y="140" type="qcurve"/>
      <point x="82" y="78"/>
      <point x="122" y="49" type="qcurve"/>
      <point x="164" y="19"/>
    </contour>
  </outline>
</glyph>
<glyph name="parenright" format="2">
  <advance width="330"/>
  <unicode hex="0029"/>
  <outline>
    <contour>
      <point x="-55" y="-138" type="line"/>
      <point x="40" y="-68"/>
      <point x="109" y="37" type="qcurve"/>
      <point x="178" y="143"/>
      <point x="202" y="265" type="qcurve"/>
      <point x="211" y="312" type="line"/>
      <point x="218" y="354"/>
      <point x="218" y="400" type="qcurve"/>
      <point x="218" y="616"/>
      <point x="103" y="760" type="qcurve"/>
      <point x="135" y="760" type="line"/>
      <point x="188" y="698"/>
      <point x="218" y="606" type="qcurve"/>
      <point x="250" y="514"/>
      <point x="249" y="398" type="qcurve"/>
      <point x="250" y="234"/>
      <point x="170" y="84" type="qcurve"/>
      <point x="94" y="-57"/>
      <point x="-18" y="-138" type="qcurve"/>
    </contour>
  </outline>
</glyph>
<glyph name="asterisk" format="2">
  <advance width="384"/>
  <unicode hex="002A"/>
  <outline>
    <contour>
      <point x="113" y="442" type="line"/>
      <point x="232" y="569" type="line"/>
      <point x="95" y="612" type="line"/>
      <point x="108" y="642" type="line"/>
      <point x="244" y="592" type="line"/>
      <point x="272" y="747" type="line"/>
      <point x="304" y="747" type="line"/>
      <point x="272" y="591" type="line"/>
      <point x="425" y="642" type="line"/>
      <point x="431" y="612" type="line"/>
      <point x="276" y="566" type="line"/>
      <point x="344" y="441" type="line"/>
      <point x="318" y="424" type="line"/>
      <point x="252" y="552" type="line"/>
      <point x="137" y="423" type="line"/>
    </contour>
  </outline>
</glyph>
<glyph name="plus" format="2">
  <advance width="600"/>
  <unicode hex="002B"/>
  <outline>
    <contour>
      <point x="245" y="62" type="line"/>
      <point x="291" y="290" type="line"/>
      <point x="72" y="290" type="line"/>
      <point x="78" y="320" type="line"/>
      <point x="297" y="320" type="line"/>
      <point x="343" y="549" type="line"/>
      <point x="376" y="549" type="line"/>
      <point x="330" y="320" type="line"/>
      <point x="548" y="320" type="line"/>
      <point x="542" y="290" type="line"/>
      <point x="324" y="290" type="line"/>
      <point x="278" y="62" type="line"/>
    </contour>
  </outline>
</glyph>
<glyph name="one" format="2">
  <advance width="600"/>
  <unicode hex="0031"/>
  <outline>
    <contour>
      <point x="315" y="0" type="line"/>
      <point x="279" y="0" type="line"/>
      <point x="410" y="660" type="line"/>
      <point x="243" y="573" type="line"/>
      <point x="250" y="612" type="line"/>
      <point x="414" y="698" type="line"/>
      <point x="454" y="698" type="line"/>
    </contour>
  </outline>
</glyph>
<glyph name="two" format="2">
  <advance width="600"/>
  <unicode hex="0032"/>
  <outline>
    <contour>
      <point x="33" y="0" type="line"/>
      <point x="41" y="40" type="line"/>
      <point x="353" y="301" type="line"/>
      <point x="473" y="399"/>
      <point x="495" y="489" type="qcurve"/>
      <point x="498" y="506" type="line"/>
      <point x="503" y="528"/>
      <point x="503" y="545" type="qcurve"/>
      <point x="503" y="545"/>
      <point x="503" y="545" type="qcurve"/>
      <point x="503" y="545"/>
      <point x="503" y="546" type="qcurve"/>
      <point x="503" y="546"/>
      <point x="503" y="546" type="qcurve"/>
      <point x="503" y="546"/>
      <point x="503" y="546" type="qcurve"/>
      <point x="503" y="546"/>
      <point x="503" y="546" type="qcurve"/>
      <point x="503" y="546"/>
      <point x="503" y="546" type="qcurve"/>
      <point x="503" y="546"/>
      <point x="503" y="547" type="qcurve"/>
      <point x="503" y="547"/>
      <point x="503" y="547" type="qcurve"/>
      <point x="503" y="547"/>
      <point x="503" y="547" type="qcurve"/>
      <point x="503" y="547"/>
      <point x="503" y="547" type="qcurve"/>
      <point x="503" y="547"/>
      <point x="503" y="547" type="qcurve"/>
      <point x="503" y="547"/>
      <point x="503" y="547" type="qcurve"/>
      <point x="503" y="547"/>
      <point x="503" y="547" type="qcurve"/>
      <point x="503" y="547"/>
      <point x="503" y="547" type="qcurve"/>
      <point x="503" y="547"/>
      <point x="503" y="547" type="qcurve"/>
      <point x="503" y="547"/>
      <point x="503" y="547" type="qcurve"/>
      <point x="503" y="547"/>
      <point x="503" y="547" type="qcurve"/>
      <point x="503" y="547"/>
      <point x="503" y="547" type="qcurve"/>
      <point x="503" y="551" type="line"/>
      <point x="503" y="551"/>
      <point x="503" y="551" type="qcurve"/>
      <point x="503" y="551"/>
      <point x="503" y="551" type="qcurve"/>
      <point x="503" y="551"/>
      <point x="503" y="551" type="qcurve"/>
      <point x="503" y="551"/>
      <point x="503" y="551" type="qcurve"/>
      <point x="503" y="551"/>
      <point x="503" y="551" type="qcurve"/>
      <point x="503" y="552" type="line"/>
      <point x="503" y="552"/>
      <point x="503" y="552" type="qcurve"/>
      <point x="503" y="552"/>
      <point x="503" y="552" type="qcurve"/>
      <point x="503" y="552"/>
      <point x="503" y="552" type="qcurve"/>
      <point x="503" y="552"/>
      <point x="503" y="552" type="qcurve"/>
      <point x="503" y="552"/>
      <point x="503" y="552" type="qcurve"/>
      <point x="503" y="552"/>
      <point x="503" y="552" type="qcurve"/>
      <point x="503" y="552"/>
      <point x="503" y="552" type="qcurve"/>
      <point x="503" y="553" type="line"/>
      <point x="503" y="553"/>
      <point x="503" y="553" type="qcurve"/>
      <point x="503" y="553"/>
      <point x="503" y="553" type="qcurve"/>
      <point x="503" y="554" type="line"/>
      <point x="503" y="605"/>
      <point x="471" y="640" type="qcurve"/>
      <point x="441" y="677"/>
      <point x="369" y="677" type="qcurve"/>
      <point x="369" y="677"/>
      <point x="369" y="677" type="qcurve"/>
      <point x="369" y="677"/>
      <point x="369" y="677" type="qcurve"/>
      <point x="369" y="677"/>
      <point x="369" y="677" type="qcurve"/>
      <point x="369" y="677"/>
      <point x="369" y="677" type="qcurve"/>
      <point x="368" y="677" type="line"/>
      <point x="368" y="677"/>
      <point x="368" y="677" type="qcurve"/>
      <point x="368" y="677"/>
      <point x="368" y="677" type="qcurve"/>
      <point x="368" y="677"/>
      <point x="368" y="677" type="qcurve"/>
      <point x="368" y="677"/>
      <point x="368" y="677" type="qcurve"/>
      <point x="368" y="677"/>
      <point x="368" y="677" type="qcurve"/>
      <point x="368" y="677"/>
      <point x="368" y="677" type="qcurve"/>
      <point x="368" y="677"/>
      <point x="368" y="677" type="qcurve"/>
      <point x="367" y="677" type="line"/>
      <point x="367" y="677"/>
      <point x="367" y="677" type="qcurve"/>
      <point x="367" y="677"/>
      <point x="367" y="677" type="qcurve"/>
      <point x="367" y="677"/>
      <point x="367" y="677" type="qcurve"/>
      <point x="365" y="677" type="line"/>
      <point x="365" y="677"/>
      <point x="365" y="677" type="qcurve"/>
      <point x="365" y="677"/>
      <point x="365" y="677" type="qcurve"/>
      <point x="361" y="677" type="line"/>
      <point x="226" y="675"/>
      <point x="173" y="542" type="qcurve"/>
      <point x="142" y="554" type="line"/>
      <point x="206" y="710"/>
      <point x="368" y="710" type="qcurve" smooth="yes"/>
      <point x="454" y="710"/>
      <point x="498" y="665" type="qcurve"/>
      <point x="540" y="620"/>
      <point x="540" y="551" type="qcurve" smooth="yes"/>
      <point x="540" y="472"/>
      <point x="499" y="408" type="qcurve" smooth="yes"/>
      <point x="458" y="344"/>
      <point x="376" y="278" type="qcurve"/>
      <point x="80" y="32" type="line"/>
      <point x="474" y="32" type="line"/>
      <point x="468" y="0" type="line"/>
    </contour>
  </outline>
</glyph>
<glyph name="three" format="2">
  <advance width="600"/>
  <unicode hex="0033"/>
  <outline>
    <contour>
      <point x="245" y="-12" type="qcurve" smooth="yes"/>
      <point x="170" y="-12"/>
      <point x="116" y="16" type="qcurve"/>
      <point x="64" y="46"/>
      <point x="39" y="99" type="qcurve"/>
      <point x="68" y="117" type="line"/>
      <point x="107" y="21"/>
      <point x="248" y="21" type="qcurve" smooth="yes"/>
      <point x="410" y="21"/>
      <point x="441" y="167" type="qcurve" smooth="yes"/>
      <point x="448" y="203"/>
      <point x="448" y="219" type="qcurve" smooth="yes"/>
      <point x="448" y="278"/>
      <point x="411" y="314" type="qcurve" smooth="yes"/>
      <point x="374" y="350"/>
      <point x="299" y="350" type="qcurve" smooth="yes"/>
      <point x="209" y="350" type="line"/>
      <point x="216" y="382" type="line"/>
      <point x="304" y="382" type="line" smooth="yes"/>
      <point x="472" y="382"/>
      <point x="495" y="539" type="qcurve"/>
      <point x="496" y="555" type="line"/>
      <point x="496" y="613"/>
      <point x="459" y="645" type="qcurve" smooth="yes"/>
      <point x="424" y="677"/>
      <point x="361" y="677" type="qcurve"/>
      <point x="361" y="677"/>
      <point x="360" y="677" type="qcurve"/>
      <point x="360" y="677"/>
      <point x="360" y="677" type="qcurve"/>
      <point x="360" y="677"/>
      <point x="359" y="677" type="qcurve"/>
      <point x="359" y="677"/>
      <point x="359" y="677" type="qcurve"/>
      <point x="357" y="677" type="line"/>
      <point x="357" y="677"/>
      <point x="357" y="677" type="qcurve"/>
      <point x="357" y="677"/>
      <point x="357" y="677" type="qcurve"/>
      <point x="356" y="677" type="line"/>
      <point x="356" y="677"/>
      <point x="355" y="677" type="qcurve"/>
      <point x="355" y="677"/>
      <point x="354" y="677" type="qcurve"/>
      <point x="354" y="677"/>
      <point x="354" y="677" type="qcurve"/>
      <point x="352" y="677" type="line"/>
      <point x="352" y="677"/>
      <point x="352" y="677" type="qcurve"/>
      <point x="290" y="677"/>
      <point x="249" y="655" type="qcurve" smooth="yes"/>
      <point x="207" y="632"/>
      <point x="177" y="581" type="qcurve"/>
      <point x="150" y="599" type="line"/>
      <point x="216" y="710"/>
      <point x="362" y="710" type="qcurve" smooth="yes"/>
      <point x="437" y="710"/>
      <point x="485" y="670" type="qcurve" smooth="yes"/>
      <point x="534" y="631"/>
      <point x="534" y="559" type="qcurve" smooth="yes"/>
      <point x="534" y="480"/>
      <point x="489" y="429" type="qcurve" smooth="yes"/>
      <point x="444" y="380"/>
      <point x="366" y="366" type="qcurve"/>
      <point x="365" y="363" type="line"/>
      <point x="418" y="356"/>
      <point x="451" y="317" type="qcurve" smooth="yes"/>
      <point x="484" y="278"/>
      <point x="484" y="217" type="qcurve" smooth="yes"/>
      <point x="484" y="114"/>
      <point x="419" y="51" type="qcurve" smooth="yes"/>
      <point x="353" y="-12"/>
    </contour>
  </outline>
</glyph>
<glyph name="four" format="2">
  <advance width="600"/>
  <unicode hex="0034"/>
  <outline>
    <contour>
      <point x="349" y="0" type="line"/>
      <point x="380" y="155" type="line"/>
      <point x="27" y="155" type="line"/>
      <point x="33" y="189" type="line"/>
      <point x="474" y="698" type="line"/>
      <point x="524" y="698" type="line"/>
      <point x="421" y="185" type="line"/>
      <point x="533" y="185" type="line"/>
      <point x="527" y="155" type="line"/>
      <point x="415" y="155" type="line"/>
      <point x="384" y="0" type="line"/>
    </contour>
    <contour>
      <point x="480" y="656" type="line"/>
      <point x="477" y="656" type="line"/>
      <point x="69" y="185" type="line"/>
      <point x="386" y="185" type="line"/>
    </contour>
  </outline>
</glyph>
<glyph name="six" format="2">
  <advance width="600"/>
  <unicode hex="0036"/>
  <outline>
    <contour>
      <point x="267" y="-12" type="qcurve"/>
      <point x="173" y="-12"/>
      <point x="127" y="39" type="qcurve"/>
      <point x="82" y="92"/>
      <point x="81" y="176" type="qcurve"/>
      <point x="82" y="328"/>
      <point x="188" y="475" type="qcurve"/>
      <point x="290" y="614"/>
      <point x="445" y="698" type="qcurve"/>
      <point x="498" y="698" type="line"/>
      <point x="216" y="540"/>
      <point x="137" y="306" type="qcurve"/>
      <point x="140" y="305" type="line"/>
      <point x="203" y="420"/>
      <point x="338" y="420" type="qcurve"/>
      <point x="420" y="421"/>
      <point x="469" y="374" type="qcurve"/>
      <point x="518" y="328"/>
      <point x="518" y="245" type="qcurve"/>
      <point x="519" y="138"/>
      <point x="448" y="63" type="qcurve"/>
      <point x="378" y="-12"/>
    </contour>
    <contour>
      <point x="267" y="20" type="qcurve"/>
      <point x="351" y="20"/>
      <point x="405" y="67" type="qcurve"/>
      <point x="460" y="115"/>
      <point x="475" y="187" type="qcurve"/>
      <point x="482" y="224"/>
      <point x="482" y="242" type="qcurve"/>
      <point x="483" y="308"/>
      <point x="445" y="348" type="qcurve"/>
      <point x="407" y="388"/>
      <point x="331" y="388" type="qcurve"/>
      <point x="250" y="389"/>
      <point x="194" y="342" type="qcurve"/>
      <point x="138" y="296"/>
      <point x="123" y="221" type="qcurve"/>
      <point x="116" y="184"/>
      <point x="116" y="166" type="qcurve"/>
      <point x="116" y="100"/>
      <point x="153" y="60" type="qcurve"/>
      <point x="192" y="20"/>
    </contour>
  </outline>
</glyph>
<glyph name="seven" format="2">
  <advance width="600"/>
  <unicode hex="0037"/>
  <outline>
    <contour>
      <point x="180" y="0" type="line"/>
      <point x="140" y="0" type="line"/>
      <point x="562" y="666" type="line"/>
      <point x="165" y="666" type="line"/>
      <point x="171" y="698" type="line"/>
      <point x="607" y="698" type="line"/>
      <point x="600" y="664" type="line"/>
    </contour>
  </outline>
</glyph>
<glyph name="eight" format="2">
  <advance width="600"/>
  <unicode hex="0038"/>
  <outline>
    <contour>
      <point x="250" y="-12" type="qcurve"/>
      <point x="154" y="-12"/>
      <point x="101" y="34" type="qcurve"/>
      <point x="50" y="82"/>
      <point x="49" y="158" type="qcurve"/>
      <point x="50" y="239"/>
      <point x="101" y="297" type="qcurve"/>
      <point x="151" y="354"/>
      <point x="239" y="367" type="qcurve"/>
      <point x="239" y="372" type="line"/>
      <point x="140" y="400"/>
      <point x="139" y="506" type="qcurve"/>
      <point x="138" y="598"/>
      <point x="204" y="654" type="qcurve"/>
      <point x="270" y="710"/>
      <point x="372" y="710" type="qcurve"/>
      <point x="460" y="710"/>
      <point x="506" y="669" type="qcurve"/>
      <point x="554" y="628"/>
      <point x="553" y="559" type="qcurve"/>
      <point x="554" y="488"/>
      <point x="510" y="436" type="qcurve"/>
      <point x="468" y="384"/>
      <point x="394" y="366" type="qcurve"/>
      <point x="393" y="362" type="line"/>
      <point x="510" y="332"/>
      <point x="509" y="212" type="qcurve"/>
      <point x="510" y="113"/>
      <point x="437" y="50" type="qcurve"/>
      <point x="364" y="-12"/>
    </contour>
    <contour>
      <point x="251" y="20" type="qcurve"/>
      <point x="335" y="20"/>
      <point x="395" y="61" type="qcurve"/>
      <point x="462" y="108"/>
      <point x="471" y="195" type="qcurve"/>
      <point x="472" y="200" type="line"/>
      <point x="473" y="217" type="line"/>
      <point x="474" y="277"/>
      <point x="431" y="313" type="qcurve"/>
      <point x="388" y="350"/>
      <point x="307" y="350" type="qcurve"/>
      <point x="223" y="350"/>
      <point x="163" y="310" type="qcurve"/>
      <point x="97" y="264"/>
      <point x="87" y="177" type="qcurve"/>
      <point x="86" y="171" type="line"/>
      <point x="85" y="153" type="line"/>
      <point x="85" y="94"/>
      <point x="127" y="57" type="qcurve"/>
      <point x="170" y="20"/>
    </contour>
    <contour>
      <point x="324" y="382" type="qcurve"/>
      <point x="400" y="382"/>
      <point x="449" y="417" type="qcurve"/>
      <point x="506" y="457"/>
      <point x="515" y="538" type="qcurve"/>
      <point x="516" y="544" type="line"/>
      <point x="517" y="560" type="line"/>
      <point x="512" y="678"/>
      <point x="368" y="678" type="qcurve"/>
      <point x="293" y="678"/>
      <point x="243" y="643" type="qcurve"/>
      <point x="186" y="604"/>
      <point x="177" y="522" type="qcurve"/>
      <point x="176" y="516" type="line"/>
      <point x="175" y="500" type="line"/>
      <point x="180" y="382"/>
    </contour>
  </outline>
</glyph>
<glyph name="nine" format="2">
  <advance width="600"/>
  <unicode hex="0039"/>
  <outline>
    <contour>
      <point x="134" y="0" type="line"/>
      <point x="418" y="160"/>
      <point x="495" y="392" type="qcurve"/>
      <point x="492" y="393" type="line"/>
      <point x="429" y="278"/>
      <point x="294" y="278" type="qcurve" smooth="yes"/>
      <point x="213" y="278"/>
      <point x="163" y="324" type="qcurve"/>
      <point x="114" y="372"/>
      <point x="114" y="453" type="qcurve" smooth="yes"/>
      <point x="114" y="560"/>
      <point x="185" y="635" type="qcurve" smooth="yes"/>
      <point x="257" y="710"/>
      <point x="365" y="710" type="qcurve" smooth="yes"/>
      <point x="460" y="710"/>
      <point x="505" y="659" type="qcurve" smooth="yes"/>
      <point x="551" y="608"/>
      <point x="551" y="522" type="qcurve" smooth="yes"/>
      <point x="551" y="370"/>
      <point x="445" y="223" type="qcurve"/>
      <point x="343" y="86"/>
      <point x="187" y="0" type="qcurve"/>
    </contour>
    <contour>
      <point x="301" y="310" type="qcurve" smooth="yes"/>
      <point x="385" y="310"/>
      <point x="439" y="357" type="qcurve" smooth="yes"/>
      <point x="494" y="405"/>
      <point x="509" y="477" type="qcurve" smooth="yes"/>
      <point x="516" y="514"/>
      <point x="516" y="532" type="qcurve"/>
      <point x="516" y="532"/>
      <point x="516" y="532" type="qcurve"/>
      <point x="516" y="532"/>
      <point x="516" y="532" type="qcurve"/>
      <point x="516" y="532"/>
      <point x="516" y="532" type="qcurve"/>
      <point x="516" y="532"/>
      <point x="516" y="532" type="qcurve"/>
      <point x="516" y="532"/>
      <point x="516" y="532" type="qcurve"/>
      <point x="516" y="533" type="line"/>
      <point x="516" y="533"/>
      <point x="516" y="533" type="qcurve"/>
      <point x="516" y="533"/>
      <point x="516" y="533" type="qcurve"/>
      <point x="516" y="533"/>
      <point x="516" y="533" type="qcurve"/>
      <point x="516" y="533"/>
      <point x="516" y="533" type="qcurve"/>
      <point x="516" y="533"/>
      <point x="516" y="533" type="qcurve"/>
      <point x="516" y="535" type="line"/>
      <point x="516" y="599"/>
      <point x="479" y="638" type="qcurve" smooth="yes"/>
      <point x="441" y="678"/>
      <point x="365" y="678" type="qcurve"/>
      <point x="365" y="678"/>
      <point x="365" y="678" type="qcurve"/>
      <point x="365" y="678"/>
      <point x="365" y="678" type="qcurve"/>
      <point x="365" y="678"/>
      <point x="365" y="678" type="qcurve"/>
      <point x="365" y="678"/>
      <point x="365" y="678" type="qcurve"/>
      <point x="365" y="678"/>
      <point x="365" y="678" type="qcurve"/>
      <point x="365" y="678"/>
      <point x="365" y="678" type="qcurve"/>
      <point x="365" y="678"/>
      <point x="365" y="678" type="qcurve"/>
      <point x="365" y="678"/>
      <point x="365" y="678" type="qcurve"/>
      <point x="364" y="678" type="line"/>
      <point x="364" y="678"/>
      <point x="364" y="678" type="qcurve"/>
      <point x="364" y="678"/>
      <point x="364" y="678" type="qcurve"/>
      <point x="364" y="678"/>
      <point x="364" y="678" type="qcurve"/>
      <point x="364" y="678"/>
      <point x="364" y="678" type="qcurve"/>
      <point x="364" y="678"/>
      <point x="364" y="678" type="qcurve"/>
      <point x="364" y="678"/>
      <point x="364" y="678" type="qcurve"/>
      <point x="363" y="678" type="line"/>
      <point x="363" y="678"/>
      <point x="363" y="678" type="qcurve"/>
      <point x="363" y="678"/>
      <point x="363" y="678" type="qcurve"/>
      <point x="363" y="678"/>
      <point x="363" y="678" type="qcurve"/>
      <point x="362" y="678" type="line"/>
      <point x="362" y="678"/>
      <point x="362" y="678" type="qcurve"/>
      <point x="360" y="678" type="line"/>
      <point x="282" y="677"/>
      <point x="228" y="632" type="qcurve" smooth="yes"/>
      <point x="172" y="586"/>
      <point x="157" y="511" type="qcurve" smooth="yes"/>
      <point x="150" y="474"/>
      <point x="150" y="456" type="qcurve" smooth="yes"/>
      <point x="150" y="390"/>
      <point x="187" y="350" type="qcurve"/>
      <point x="226" y="310"/>
    </contour>
  </outline>
</glyph>
<glyph name="colon" format="2">
  <advance width="266"/>
  <unicode hex="003A"/>
  <outline>
    <contour>
      <point x="168" y="425" type="qcurve"/>
      <point x="138" y="425"/>
      <point x="137" y="449" type="qcurve"/>
      <point x="137" y="458"/>
      <point x="140" y="471" type="qcurve" smooth="yes"/>
      <point x="146" y="500"/>
      <point x="178" y="500" type="qcurve" smooth="yes"/>
      <point x="209" y="500"/>
      <point x="209" y="477" type="qcurve"/>
      <point x="209" y="477"/>
      <point x="209" y="477" type="qcurve"/>
      <point x="209" y="477"/>
      <point x="209" y="477" type="qcurve"/>
      <point x="209" y="477"/>
      <point x="209" y="477" type="qcurve"/>
      <point x="209" y="477"/>
      <point x="209" y="476" type="qcurve"/>
      <point x="209" y="476"/>
      <point x="209" y="476" type="qcurve"/>
      <point x="209" y="468"/>
      <point x="206" y="454" type="qcurve"/>
      <point x="202" y="426"/>
    </contour>
    <contour>
      <point x="80" y="-7" type="qcurve"/>
      <point x="50" y="-7"/>
      <point x="49" y="17" type="qcurve"/>
      <point x="49" y="26"/>
      <point x="52" y="39" type="qcurve" smooth="yes"/>
      <point x="58" y="68"/>
      <point x="90" y="68" type="qcurve" smooth="yes"/>
      <point x="121" y="68"/>
      <point x="121" y="45" type="qcurve"/>
      <point x="121" y="45"/>
      <point x="121" y="45" type="qcurve"/>
      <point x="121" y="45"/>
      <point x="121" y="45" type="qcurve"/>
      <point x="121" y="45"/>
      <point x="121" y="45" type="qcurve"/>
      <point x="121" y="45"/>
      <point x="121" y="44" type="qcurve"/>
      <point x="121" y="44"/>
      <point x="121" y="44" type="qcurve"/>
      <point x="121" y="44"/>
      <point x="121" y="44" type="qcurve"/>
      <point x="121" y="44"/>
      <point x="121" y="44" type="qcurve"/>
      <point x="121" y="36"/>
      <point x="118" y="22" type="qcurve"/>
      <point x="114" y="-6"/>
    </contour>
  </outline>
</glyph>
<glyph name="less" format="2">
  <advance width="600"/>
  <unicode hex="003C"/>
  <outline>
    <contour>
      <point x="96" y="283" type="line"/>
      <point x="102" y="315" type="line"/>
      <point x="577" y="571" type="line"/>
      <point x="570" y="531" type="line"/>
      <point x="134" y="299" type="line"/>
      <point x="133" y="295" type="line"/>
      <point x="476" y="61" type="line"/>
      <point x="469" y="26" type="line"/>
    </contour>
  </outline>
</glyph>
<glyph name="equal" format="2">
  <advance width="600"/>
  <unicode hex="003D"/>
  <outline>
    <contour>
      <point x="83" y="382" type="line"/>
      <point x="89" y="412" type="line"/>
      <point x="559" y="412" type="line"/>
      <point x="553" y="382" type="line"/>
    </contour>
    <contour>
      <point x="46" y="199" type="line"/>
      <point x="52" y="229" type="line"/>
      <point x="522" y="229" type="line"/>
      <point x="516" y="199" type="line"/>
    </contour>
  </outline>
</glyph>
<glyph name="greater" format="2">
  <advance width="600"/>
  <unicode hex="003E"/>
  <outline>
    <contour>
      <point x="48" y="66" type="line"/>
      <point x="484" y="300" type="line"/>
      <point x="484" y="303" type="line"/>
      <point x="142" y="536" type="line"/>
      <point x="149" y="571" type="line"/>
      <point x="522" y="315" type="line"/>
      <point x="515" y="283" type="line"/>
      <point x="40" y="26" type="line"/>
    </contour>
  </outline>
</glyph>
<glyph name="question" format="2">
  <advance width="457"/>
  <unicode hex="003F"/>
  <outline>
    <contour>
      <point x="177" y="184" type="line"/>
      <point x="210" y="355" type="line"/>
      <point x="411" y="370"/>
      <point x="432" y="508" type="qcurve"/>
      <point x="438" y="530"/>
      <point x="437" y="552" type="qcurve"/>
      <point x="434" y="678"/>
      <point x="299" y="678" type="qcurve"/>
      <point x="229" y="678"/>
      <point x="187" y="643" type="qcurve"/>
      <point x="146" y="608"/>
      <point x="120" y="546" type="qcurve"/>
      <point x="90" y="557" type="line"/>
      <point x="150" y="710"/>
      <point x="302" y="710" type="qcurve"/>
      <point x="382" y="711"/>
      <point x="427" y="668" type="qcurve"/>
      <point x="473" y="626"/>
      <point x="473" y="553" type="qcurve"/>
      <point x="474" y="461"/>
      <point x="416" y="401" type="qcurve"/>
      <point x="359" y="342"/>
      <point x="239" y="327" type="qcurve"/>
      <point x="211" y="184" type="line"/>
    </contour>
    <contour>
      <point x="159" y="-7" type="qcurve"/>
      <point x="128" y="-7"/>
      <point x="128" y="17" type="qcurve"/>
      <point x="128" y="26"/>
      <point x="131" y="39" type="qcurve"/>
      <point x="136" y="68"/>
      <point x="169" y="68" type="qcurve"/>
      <point x="200" y="68"/>
      <point x="200" y="44" type="qcurve"/>
      <point x="200" y="36"/>
      <point x="197" y="22" type="qcurve"/>
      <point x="192" y="-6"/>
    </contour>
  </outline>
</glyph>
<glyph name="D" format="2">
  <advance width="649"/>
  <unicode hex="0044"/>
  <outline>
    <contour>
      <point x="50" y="0" type="line"/>
      <point x="190" y="698" type="line"/>
      <point x="379" y="698" type="line"/>
      <point x="495" y="698"/>
      <point x="553" y="636" type="qcurve"/>
      <point x="612" y="574"/>
      <point x="612" y="458" type="qcurve"/>
      <point x="612" y="374"/>
      <point x="592" y="293" type="qcurve"/>
      <point x="572" y="212"/>
      <point x="531" y="145" type="qcurve"/>
      <point x="491" y="80"/>
      <point x="428" y="40" type="qcurve"/>
      <point x="366" y="0"/>
      <point x="280" y="0" type="qcurve"/>
    </contour>
    <contour>
      <point x="281" y="32" type="line"/>
      <point x="389" y="32"/>
      <point x="463" y="110" type="qcurve"/>
      <point x="532" y="186"/>
      <point x="554" y="300" type="qcurve"/>
      <point x="567" y="367" type="line"/>
      <point x="576" y="426"/>
      <point x="576" y="465" type="qcurve"/>
      <point x="576" y="558"/>
      <point x="526" y="612" type="qcurve"/>
      <point x="476" y="666"/>
      <point x="376" y="666" type="qcurve"/>
      <point x="219" y="666" type="line"/>
      <point x="93" y="32" type="line"/>
    </contour>
  </outline>
</glyph>
<glyph name="G" format="2">
  <advance width="545"/>
  <unicode hex="0047"/>
  <outline>
    <contour>
      <point x="56" y="235" type="qcurve"/>
      <point x="56" y="270"/>
      <point x="60" y="306" type="qcurve"/>
      <point x="64" y="344"/>
      <point x="70" y="380" type="qcurve"/>
      <point x="84" y="446"/>
      <point x="110" y="505" type="qcurve"/>
      <point x="138" y="565"/>
      <point x="177" y="611" type="qcurve"/>
      <point x="218" y="658"/>
      <point x="272" y="684" type="qcurve"/>
      <point x="328" y="710"/>
      <point x="396" y="710" type="qcurve"/>
      <point x="462" y="710"/>
      <point x="504" y="690" type="qcurve"/>
      <point x="548" y="670"/>
      <point x="573" y="636" type="qcurve"/>
      <point x="600" y="602"/>
      <point x="610" y="560" type="qcurve"/>
      <point x="571" y="542" type="line"/>
      <point x="562" y="582"/>
      <point x="540" y="610" type="qcurve"/>
      <point x="520" y="640"/>
      <point x="482" y="655" type="qcurve"/>
      <point x="446" y="671"/>
      <point x="391" y="671" type="qcurve"/>
      <point x="325" y="672"/>
      <point x="271" y="642" type="qcurve"/>
      <point x="218" y="612"/>
      <point x="180" y="553" type="qcurve"/>
      <point x="142" y="493"/>
      <point x="124" y="405" type="qcurve"/>
      <point x="108" y="328" type="line"/>
      <point x="103" y="301"/>
      <point x="101" y="274" type="qcurve"/>
      <point x="99" y="248"/>
      <point x="99" y="227" type="qcurve"/>
      <point x="100" y="181"/>
      <point x="112" y="143" type="qcurve"/>
      <point x="125" y="107"/>
      <point x="150" y="80" type="qcurve"/>
      <point x="176" y="55"/>
      <point x="212" y="41" type="qcurve"/>
      <point x="248" y="27"/>
      <point x="294" y="27" type="qcurve"/>
      <point x="375" y="27"/>
      <point x="435" y="71" type="qcurve"/>
      <point x="497" y="116"/>
      <point x="515" y="207" type="qcurve"/>
      <point x="534" y="302" type="line"/>
      <point x="323" y="302" type="line"/>
      <point x="323" y="341" type="line"/>
      <point x="584" y="341" type="line"/>
      <point x="559" y="214" type="line"/>
      <point x="547" y="156"/>
      <point x="521" y="112" type="qcurve"/>
      <point x="496" y="70"/>
      <point x="460" y="42" type="qcurve"/>
      <point x="424" y="15"/>
      <point x="381" y="1" type="qcurve"/>
      <point x="339" y="-12"/>
      <point x="291" y="-12" type="qcurve"/>
      <point x="239" y="-12"/>
      <point x="195" y="3" type="qcurve"/>
      <point x="153" y="18"/>
      <point x="121" y="50" type="qcurve"/>
      <point x="91" y="82"/>
      <point x="73" y="127" type="qcurve"/>
      <point x="56" y="173"/>
    </contour>
  </outline>
</glyph>
<glyph name="H" format="2">
  <advance width="681"/>
  <unicode hex="0048"/>
  <outline>
    <contour>
      <point x="492" y="0" type="line"/>
      <point x="560" y="338" type="line"/>
      <point x="154" y="338" type="line"/>
      <point x="86" y="0" type="line"/>
      <point x="50" y="0" type="line"/>
      <point x="190" y="698" type="line"/>
      <point x="226" y="698" type="line"/>
      <point x="160" y="370" type="line"/>
      <point x="566" y="370" type="line"/>
      <point x="632" y="698" type="line"/>
      <point x="668" y="698" type="line"/>
      <point x="528" y="0" type="line"/>
    </contour>
  </outline>
</glyph>
<glyph name="K" format="2">
  <advance width="576"/>
  <unicode hex="004B"/>
  <outline>
    <contour>
      <point x="471" y="0" type="line"/>
      <point x="290" y="377" type="line"/>
      <point x="134" y="234" type="line"/>
      <point x="86" y="0" type="line"/>
      <point x="50" y="0" type="line"/>
      <point x="190" y="698" type="line"/>
      <point x="226" y="698" type="line"/>
      <point x="145" y="288" type="line"/>
      <point x="148" y="288" type="line"/>
      <point x="594" y="698" type="line"/>
      <point x="641" y="698" type="line"/>
      <point x="318" y="400" type="line"/>
      <point x="509" y="0" type="line"/>
    </contour>
  </outline>
</glyph>
<glyph name="L" format="2">
  <advance width="473"/>
  <unicode hex="004C"/>
  <outline>
    <contour>
      <point x="50" y="0" type="line"/>
      <point x="190" y="698" type="line"/>
      <point x="226" y="698" type="line"/>
      <point x="93" y="32" type="line"/>
      <point x="409" y="32" type="line"/>
      <point x="403" y="0" type="line"/>
    </contour>
  </outline>
</glyph>
<glyph name="N" format="2">
  <advance width="681"/>
  <unicode hex="004E"/>
  <outline>
    <contour>
      <point x="483" y="0" type="line"/>
      <point x="217" y="649" type="line"/>
      <point x="214" y="649" type="line"/>
      <point x="85" y="0" type="line"/>
      <point x="50" y="0" type="line"/>
      <point x="190" y="698" type="line"/>
      <point x="235" y="698" type="line"/>
      <point x="501" y="49" type="line"/>
      <point x="504" y="49" type="line"/>
      <point x="633" y="698" type="line"/>
      <point x="668" y="698" type="line"/>
      <point x="528" y="0" type="line"/>
    </contour>
  </outline>
</glyph>
<glyph name="Q" format="2">
  <advance width="663"/>
  <unicode hex="0051"/>
  <outline>
    <contour>
      <point x="293" y="-12" type="qcurve" smooth="yes"/>
      <point x="243" y="-12"/>
      <point x="159" y="19"/>
      <point x="99" y="81"/>
      <point x="65" y="171"/>
      <point x="65" y="230" type="qcurve" smooth="yes"/>
      <point x="65" y="277"/>
      <point x="81" y="386"/>
      <point x="115" y="492"/>
      <point x="169" y="590"/>
      <point x="244" y="665"/>
      <point x="342" y="710"/>
      <point x="403" y="710" type="qcurve" smooth="yes"/>
      <point x="451" y="710"/>
      <point x="532" y="681"/>
      <point x="592" y="624"/>
      <point x="627" y="539"/>
      <point x="629" y="483" type="qcurve" smooth="yes"/>
      <point x="630" y="469"/>
      <point x="629" y="440"/>
      <point x="629" y="426" type="qcurve"/>
      <point x="624" y="348"/>
      <point x="579" y="191"/>
      <point x="496" y="66"/>
      <point x="374" y="-12"/>
    </contour>
    <contour>
      <point x="295" y="21" type="qcurve" smooth="yes"/>
      <point x="357" y="21"/>
      <point x="453" y="72"/>
      <point x="524" y="166"/>
      <point x="571" y="299"/>
      <point x="585" y="382" type="qcurve" smooth="yes"/>
      <point x="594" y="437"/>
      <point x="594" y="474" type="qcurve" smooth="yes"/>
      <point x="594" y="568"/>
      <point x="495" y="677"/>
      <point x="401" y="677" type="qcurve" smooth="yes"/>
      <point x="339" y="677"/>
      <point x="243" y="626"/>
      <point x="172" y="532"/>
      <point x="124" y="398"/>
      <point x="110" y="315" type="qcurve" smooth="yes"/>
      <point x="106" y="288"/>
      <point x="102" y="242"/>
      <point x="102" y="224" type="qcurve" smooth="yes"/>
      <point x="102" y="130"/>
      <point x="201" y="21"/>
    </contour>
    <contour>
      <point x="571" y="-90" type="line"/>
      <point x="493" y="-90"/>
      <point x="412" y="-14"/>
      <point x="407" y="49" type="qcurve"/>
      <point x="441" y="56" type="line"/>
      <point x="446" y="0"/>
      <point x="511" y="-57"/>
      <point x="578" y="-57" type="qcurve"/>
    </contour>
  </outline>
</glyph>
<glyph name="S" format="2">
  <advance width="555"/>
  <unicode hex="0053"/>
  <outline>
    <contour>
      <point x="245" y="-12" type="qcurve"/>
      <point x="94" y="-12"/>
      <point x="8" y="104" type="qcurve"/>
      <point x="36" y="126" type="line"/>
      <point x="72" y="78"/>
      <point x="121" y="49" type="qcurve"/>
      <point x="171" y="22"/>
      <point x="246" y="21" type="qcurve"/>
      <point x="408" y="24"/>
      <point x="427" y="147" type="qcurve"/>
      <point x="430" y="168"/>
      <point x="429" y="185" type="qcurve"/>
      <point x="430" y="282"/>
      <point x="304" y="330" type="qcurve"/>
      <point x="241" y="355" type="line"/>
      <point x="94" y="418"/>
      <point x="93" y="532" type="qcurve"/>
      <point x="93" y="620"/>
      <point x="153" y="665" type="qcurve"/>
      <point x="215" y="710"/>
      <point x="311" y="710" type="qcurve"/>
      <point x="458" y="710"/>
      <point x="523" y="610" type="qcurve"/>
      <point x="495" y="590" type="line"/>
      <point x="435" y="677"/>
      <point x="309" y="677" type="qcurve"/>
      <point x="226" y="678"/>
      <point x="179" y="642" type="qcurve"/>
      <point x="133" y="606"/>
      <point x="131" y="531" type="qcurve"/>
      <point x="132" y="435"/>
      <point x="256" y="387" type="qcurve"/>
      <point x="319" y="361" type="line"/>
      <point x="418" y="319"/>
      <point x="447" y="263" type="qcurve"/>
      <point x="468" y="229"/>
      <point x="467" y="185" type="qcurve"/>
      <point x="467" y="89"/>
      <point x="407" y="38" type="qcurve"/>
      <point x="347" y="-12"/>
    </contour>
  </outline>
</glyph>
<glyph name="T" format="2">
  <advance width="550"/>
  <unicode hex="0054"/>
  <outline>
    <contour>
      <point x="206" y="0" type="line"/>
      <point x="339" y="666" type="line"/>
      <point x="99" y="666" type="line"/>
      <point x="105" y="698" type="line"/>
      <point x="622" y="698" type="line"/>
      <point x="616" y="666" type="line"/>
      <point x="375" y="666" type="line"/>
      <point x="242" y="0" type="line"/>
    </contour>
  </outline>
</glyph>
<glyph name="U" format="2">
  <advance width="643"/>
  <unicode hex="0055"/>
  <outline>
    <contour>
      <point x="275" y="-12" type="qcurve"/>
      <point x="184" y="-12"/>
      <point x="133" y="31" type="qcurve"/>
      <point x="82" y="74"/>
      <point x="82" y="158" type="qcurve"/>
      <point x="82" y="212"/>
      <point x="99" y="280" type="qcurve"/>
      <point x="182" y="698" type="line"/>
      <point x="218" y="698" type="line"/>
      <point x="133" y="271" type="line"/>
      <point x="118" y="202"/>
      <point x="118" y="160" type="qcurve"/>
      <point x="118" y="95"/>
      <point x="157" y="58" type="qcurve"/>
      <point x="196" y="22"/>
      <point x="277" y="21" type="qcurve"/>
      <point x="384" y="20"/>
      <point x="436" y="77" type="qcurve"/>
      <point x="490" y="134"/>
      <point x="516" y="274" type="qcurve"/>
      <point x="601" y="698" type="line"/>
      <point x="637" y="698" type="line"/>
      <point x="552" y="272" type="line"/>
      <point x="524" y="114"/>
      <point x="462" y="51" type="qcurve"/>
      <point x="400" y="-12"/>
    </contour>
  </outline>
</glyph>
<glyph name="W" format="2">
  <advance width="864"/>
  <unicode hex="0057"/>
  <outline>
    <contour>
      <point x="560" y="0" type="line"/>
      <point x="514" y="653" type="line"/>
      <point x="511" y="653" type="line"/>
      <point x="200" y="0" type="line"/>
      <point x="154" y="0" type="line"/>
      <point x="117" y="698" type="line"/>
      <point x="153" y="698" type="line"/>
      <point x="186" y="48" type="line"/>
      <point x="189" y="48" type="line"/>
      <point x="497" y="698" type="line"/>
      <point x="544" y="698" type="line"/>
      <point x="590" y="49" type="line"/>
      <point x="593" y="49" type="line"/>
      <point x="892" y="698" type="line"/>
      <point x="930" y="698" type="line"/>
      <point x="605" y="0" type="line"/>
    </contour>
  </outline>
</glyph>
<glyph name="backslash" format="2">
  <advance width="319"/>
  <unicode hex="005C"/>
  <outline>
    <contour>
      <point x="202" y="-151" type="line"/>
      <point x="130" y="740" type="line"/>
      <point x="160" y="740" type="line"/>
      <point x="232" y="-151" type="line"/>
    </contour>
  </outline>
</glyph>
<glyph name="bracketright" format="2">
  <advance width="306"/>
  <unicode hex="005D"/>
  <outline>
    <contour>
      <point x="-11" y="-138" type="line"/>
      <point x="-5" y="-110" type="line"/>
      <point x="95" y="-110" type="line"/>
      <point x="264" y="732" type="line"/>
      <point x="163" y="732" type="line"/>
      <point x="169" y="760" type="line"/>
      <point x="301" y="760" type="line"/>
      <point x="121" y="-138" type="line"/>
    </contour>
  </outline>
</glyph>
<glyph name="underscore" format="2">
  <advance width="556"/>
  <unicode hex="005F"/>
  <outline>
    <contour>
      <point x="-55" y="-146" type="line"/>
      <point x="-48" y="-117" type="line"/>
      <point x="455" y="-117" type="line"/>
      <point x="449" y="-146" type="line"/>
    </contour>
  </outline>
</glyph>
<glyph name="grave" format="2">
  <advance width="600"/>
  <unicode hex="0060"/>
  <outline>
    <contour>
      <point x="233" y="741" type="line"/>
      <point x="264" y="757" type="line"/>
      <point x="340" y="598" type="line"/>
      <point x="317" y="587" type="line"/>
    </contour>
  </outline>
</glyph>
<glyph name="g" format="2">
  <advance width="554"/>
  <unicode hex="0067"/>
  <outline>
    <contour>
      <point x="180" y="-212" type="qcurve"/>
      <point x="70" y="-212"/>
      <point x="16" y="-140" type="qcurve"/>
      <point x="41" y="-118" type="line"/>
      <point x="86" y="-181"/>
      <point x="180" y="-181" type="qcurve"/>
      <point x="342" y="-180"/>
      <point x="377" y="-9" type="qcurve"/>
      <point x="400" y="111" type="line"/>
      <point x="397" y="111" type="line"/>
      <point x="366" y="54"/>
      <point x="324" y="21" type="qcurve"/>
      <point x="282" y="-12"/>
      <point x="220" y="-12" type="qcurve"/>
      <point x="144" y="-12"/>
      <point x="101" y="41" type="qcurve"/>
      <point x="58" y="96"/>
      <point x="58" y="178" type="qcurve"/>
      <point x="58" y="266"/>
      <point x="86" y="344" type="qcurve"/>
      <point x="116" y="422"/>
      <point x="171" y="471" type="qcurve"/>
      <point x="228" y="520"/>
      <point x="308" y="520" type="qcurve"/>
      <point x="428" y="520"/>
      <point x="459" y="417" type="qcurve"/>
      <point x="462" y="417" type="line"/>
      <point x="480" y="508" type="line"/>
      <point x="515" y="508" type="line"/>
      <point x="410" y="-16" type="line"/>
      <point x="391" y="-114"/>
      <point x="332" y="-163" type="qcurve"/>
      <point x="274" y="-212"/>
    </contour>
    <contour>
      <point x="225" y="19" type="qcurve"/>
      <point x="288" y="19"/>
      <point x="334" y="61" type="qcurve"/>
      <point x="396" y="112"/>
      <point x="420" y="211" type="qcurve"/>
      <point x="447" y="344" type="line"/>
      <point x="450" y="358"/>
      <point x="450" y="369" type="qcurve"/>
      <point x="450" y="390"/>
      <point x="441" y="417" type="qcurve"/>
      <point x="432" y="444"/>
      <point x="399" y="466" type="qcurve"/>
      <point x="366" y="490"/>
      <point x="309" y="489" type="qcurve"/>
      <point x="230" y="489"/>
      <point x="178" y="435" type="qcurve"/>
      <point x="127" y="382"/>
      <point x="107" y="286" type="qcurve"/>
      <point x="99" y="242" type="line"/>
      <point x="93" y="214"/>
      <point x="93" y="175" type="qcurve"/>
      <point x="92" y="112"/>
      <point x="124" y="65" type="qcurve"/>
      <point x="156" y="20"/>
    </contour>
  </outline>
</glyph>
<glyph name="h" format="2">
  <advance width="552"/>
  <unicode hex="0068"/>
  <outline>
    <contour>
      <point x="407" y="0" type="line" smooth="yes"/>
      <point x="375" y="0"/>
      <point x="375" y="28" type="qcurve" smooth="yes"/>
      <point x="375" y="36"/>
      <point x="432" y="320" type="qcurve" smooth="yes"/>
      <point x="439" y="354"/>
      <point x="439" y="375" type="qcurve" smooth="yes"/>
      <point x="439" y="378"/>
      <point x="439" y="380" type="qcurve"/>
      <point x="439" y="381"/>
      <point x="439" y="382" type="qcurve"/>
      <point x="439" y="489"/>
      <point x="334" y="489" type="qcurve"/>
      <point x="333" y="489"/>
      <point x="332" y="489" type="qcurve"/>
      <point x="258" y="489"/>
      <point x="208" y="432" type="qcurve"/>
      <point x="166" y="390"/>
      <point x="144" y="306" type="qcurve"/>
      <point x="83" y="0" type="line"/>
      <point x="49" y="0" type="line"/>
      <point x="196" y="740" type="line"/>
      <point x="230" y="740" type="line"/>
      <point x="164" y="404" type="line"/>
      <point x="167" y="404" type="line"/>
      <point x="196" y="460"/>
      <point x="238" y="490" type="qcurve" smooth="yes"/>
      <point x="280" y="520"/>
      <point x="340" y="520" type="qcurve" smooth="yes"/>
      <point x="406" y="520"/>
      <point x="439" y="485" type="qcurve" smooth="yes"/>
      <point x="473" y="449"/>
      <point x="473" y="386" type="qcurve" smooth="yes"/>
      <point x="473" y="383"/>
      <point x="473" y="379" type="qcurve" smooth="yes"/>
      <point x="473" y="352"/>
      <point x="466" y="320" type="qcurve" smooth="yes"/>
      <point x="408" y="31" type="line"/>
      <point x="490" y="31" type="line"/>
      <point x="484" y="0" type="line"/>
    </contour>
  </outline>
</glyph>
<glyph name="k" format="2">
  <advance width="488"/>
  <unicode hex="006B"/>
  <outline>
    <contour>
      <point x="391" y="0" type="line"/>
      <point x="375" y="0"/>
      <point x="366" y="6" type="qcurve"/>
      <point x="358" y="14"/>
      <point x="349" y="29" type="qcurve"/>
      <point x="226" y="276" type="line"/>
      <point x="121" y="187" type="line"/>
      <point x="83" y="0" type="line"/>
      <point x="49" y="0" type="line"/>
      <point x="197" y="740" type="line"/>
      <point x="231" y="740" type="line"/>
      <point x="130" y="234" type="line"/>
      <point x="134" y="234" type="line"/>
      <point x="293" y="370"/>
      <point x="449" y="508" type="qcurve"/>
      <point x="492" y="508" type="line"/>
      <point x="252" y="296" type="line"/>
      <point x="385" y="31" type="line"/>
      <point x="444" y="31" type="line"/>
      <point x="438" y="0" type="line"/>
    </contour>
  </outline>
</glyph>
<glyph name="r" format="2">
  <advance width="344"/>
  <unicode hex="0072"/>
  <outline>
    <contour>
      <point x="49" y="0" type="line"/>
      <point x="151" y="508" type="line"/>
      <point x="185" y="508" type="line"/>
      <point x="162" y="397" type="line"/>
      <point x="166" y="397" type="line"/>
      <point x="190" y="444"/>
      <point x="228" y="476" type="qcurve"/>
      <point x="268" y="508"/>
      <point x="334" y="508" type="qcurve"/>
      <point x="365" y="508" type="line"/>
      <point x="358" y="475" type="line"/>
      <point x="328" y="475" type="line"/>
      <point x="256" y="476"/>
      <point x="206" y="424" type="qcurve"/>
      <point x="158" y="372"/>
      <point x="142" y="296" type="qcurve"/>
      <point x="83" y="0" type="line"/>
    </contour>
  </outline>
</glyph>
<glyph name="s" format="2">
  <advance width="468"/>
  <unicode hex="0073"/>
  <outline>
    <contour>
      <point x="212" y="-12" type="qcurve"/>
      <point x="86" y="-12"/>
      <point x="21" y="83" type="qcurve"/>
      <point x="48" y="103" type="line"/>
      <point x="105" y="19"/>
      <point x="213" y="19" type="qcurve"/>
      <point x="351" y="22"/>
      <point x="351" y="131" type="qcurve"/>
      <point x="351" y="200"/>
      <point x="252" y="236" type="qcurve"/>
      <point x="211" y="251" type="line"/>
      <point x="89" y="295"/>
      <point x="89" y="383" type="qcurve"/>
      <point x="89" y="452"/>
      <point x="137" y="486" type="qcurve"/>
      <point x="186" y="520"/>
      <point x="255" y="520" type="qcurve"/>
      <point x="362" y="520"/>
      <point x="425" y="445" type="qcurve"/>
      <point x="400" y="422" type="line"/>
      <point x="379" y="449"/>
      <point x="346" y="469" type="qcurve"/>
      <point x="314" y="490"/>
      <point x="254" y="489" type="qcurve"/>
      <point x="194" y="490"/>
      <point x="159" y="463" type="qcurve"/>
      <point x="123" y="437"/>
      <point x="123" y="385" type="qcurve"/>
      <point x="124" y="320"/>
      <point x="224" y="282" type="qcurve"/>
      <point x="264" y="267" type="line"/>
      <point x="386" y="226"/>
      <point x="386" y="134" type="qcurve"/>
      <point x="387" y="64"/>
      <point x="340" y="26" type="qcurve"/>
      <point x="294" y="-12"/>
    </contour>
  </outline>
</glyph>
<glyph name="t" format="2">
  <advance width="306"/>
  <unicode hex="0074"/>
  <outline>
    <contour>
      <point x="109" y="0" type="line"/>
      <point x="76" y="0"/>
      <point x="75" y="30" type="qcurve"/>
      <point x="75" y="38"/>
      <point x="77" y="47" type="qcurve"/>
      <point x="80" y="56"/>
      <point x="163" y="477" type="qcurve"/>
      <point x="72" y="477" type="line"/>
      <point x="78" y="508" type="line"/>
      <point x="141" y="508" type="line"/>
      <point x="159" y="508"/>
      <point x="165" y="515" type="qcurve"/>
      <point x="172" y="523"/>
      <point x="175" y="539" type="qcurve"/>
      <point x="198" y="652" type="line"/>
      <point x="232" y="652" type="line"/>
      <point x="203" y="508" type="line"/>
      <point x="321" y="508" type="line"/>
      <point x="315" y="477" type="line"/>
      <point x="197" y="477" type="line"/>
      <point x="108" y="31" type="line"/>
      <point x="218" y="31" type="line"/>
      <point x="212" y="0" type="line"/>
    </contour>
  </outline>
</glyph>
<glyph name="u" format="2">
  <advance width="551"/>
  <unicode hex="0075"/>
  <outline>
    <contour>
      <point x="203" y="-12" type="qcurve" smooth="yes"/>
      <point x="140" y="-12"/>
      <point x="105" y="23" type="qcurve"/>
      <point x="72" y="60"/>
      <point x="71" y="123" type="qcurve"/>
      <point x="72" y="152"/>
      <point x="78" y="188" type="qcurve"/>
      <point x="142" y="508" type="line"/>
      <point x="176" y="508" type="line"/>
      <point x="110" y="178"/>
      <point x="107" y="155" type="qcurve" smooth="yes"/>
      <point x="105" y="138"/>
      <point x="105" y="128" type="qcurve"/>
      <point x="106" y="20"/>
      <point x="211" y="19" type="qcurve"/>
      <point x="286" y="19"/>
      <point x="335" y="76" type="qcurve"/>
      <point x="378" y="120"/>
      <point x="399" y="202" type="qcurve"/>
      <point x="460" y="508" type="line"/>
      <point x="494" y="508" type="line"/>
      <point x="399" y="31" type="line"/>
      <point x="481" y="31" type="line"/>
      <point x="475" y="0" type="line"/>
      <point x="399" y="0" type="line"/>
      <point x="366" y="2"/>
      <point x="366" y="29" type="qcurve" smooth="yes"/>
      <point x="366" y="38"/>
      <point x="367" y="43" type="qcurve" smooth="yes"/>
      <point x="369" y="50"/>
      <point x="379" y="104" type="qcurve"/>
      <point x="376" y="104" type="line"/>
      <point x="348" y="48"/>
      <point x="306" y="18" type="qcurve" smooth="yes"/>
      <point x="264" y="-12"/>
    </contour>
  </outline>
</glyph>
<glyph name="v" format="2">
  <advance width="466"/>
  <unicode hex="0076"/>
  <outline>
    <contour>
      <point x="159" y="0" type="line"/>
      <point x="72" y="508" type="line"/>
      <point x="105" y="508" type="line"/>
      <point x="184" y="38" type="line"/>
      <point x="187" y="38" type="line"/>
      <point x="450" y="508" type="line"/>
      <point x="487" y="508" type="line"/>
      <point x="200" y="0" type="line"/>
    </contour>
  </outline>
</glyph>
<glyph name="x" format="2">
  <advance width="478"/>
  <unicode hex="0078"/>
  <outline>
    <contour>
      <point x="356" y="0" type="line"/>
      <point x="235" y="232" type="line"/>
      <point x="232" y="232" type="line"/>
      <point x="32" y="0" type="line"/>
      <point x="-10" y="0" type="line"/>
      <point x="217" y="259" type="line"/>
      <point x="86" y="508" type="line"/>
      <point x="123" y="508" type="line"/>
      <point x="242" y="282" type="line"/>
      <point x="245" y="282" type="line"/>
      <point x="442" y="508" type="line"/>
      <point x="484" y="508" type="line"/>
      <point x="260" y="255" type="line"/>
      <point x="393" y="0" type="line"/>
    </contour>
  </outline>
</glyph>
<glyph name="braceleft" format="2">
  <advance width="319"/>
  <unicode hex="007B"/>
  <outline>
    <contour>
      <point x="81" y="-138" type="line"/>
      <point x="50" y="-138"/>
      <point x="50" y="-110" type="qcurve"/>
      <point x="50" y="-104"/>
      <point x="110" y="196" type="qcurve"/>
      <point x="113" y="211"/>
      <point x="113" y="223" type="qcurve"/>
      <point x="114" y="258"/>
      <point x="92" y="270" type="qcurve"/>
      <point x="71" y="284"/>
      <point x="32" y="283" type="qcurve"/>
      <point x="44" y="339" type="line"/>
      <point x="140" y="339"/>
      <point x="156" y="426" type="qcurve"/>
      <point x="215" y="720" type="line"/>
      <point x="223" y="760"/>
      <point x="259" y="760" type="qcurve"/>
      <point x="356" y="760" type="line"/>
      <point x="350" y="731" type="line"/>
      <point x="249" y="731" type="line"/>
      <point x="188" y="427" type="line"/>
      <point x="168" y="327"/>
      <point x="69" y="318" type="qcurve"/>
      <point x="65" y="302" type="line"/>
      <point x="146" y="300"/>
      <point x="145" y="225" type="qcurve"/>
      <point x="145" y="213"/>
      <point x="142" y="195" type="qcurve"/>
      <point x="81" y="-109" type="line"/>
      <point x="183" y="-109" type="line"/>
      <point x="176" y="-138" type="line"/>
    </contour>
  </outline>
</glyph>
<glyph name="braceright" format="2">
  <advance width="319"/>
  <unicode hex="007D"/>
  <outline>
    <contour>
      <point x="-14" y="-138" type="line"/>
      <point x="-8" y="-109" type="line"/>
      <point x="93" y="-109" type="line"/>
      <point x="154" y="195" type="line" smooth="yes"/>
      <point x="174" y="297"/>
      <point x="272" y="303" type="qcurve"/>
      <point x="276" y="319" type="line"/>
      <point x="198" y="325"/>
      <point x="197" y="397" type="qcurve"/>
      <point x="197" y="412"/>
      <point x="200" y="427" type="qcurve" smooth="yes"/>
      <point x="261" y="731" type="line"/>
      <point x="159" y="731" type="line"/>
      <point x="165" y="760" type="line"/>
      <point x="262" y="760" type="line" smooth="yes"/>
      <point x="292" y="760"/>
      <point x="292" y="732" type="qcurve" smooth="yes"/>
      <point x="292" y="728"/>
      <point x="231" y="426" type="qcurve" smooth="yes"/>
      <point x="228" y="411"/>
      <point x="228" y="399" type="qcurve" smooth="yes"/>
      <point x="228" y="366"/>
      <point x="250" y="352" type="qcurve"/>
      <point x="272" y="340"/>
      <point x="309" y="339" type="qcurve"/>
      <point x="298" y="283" type="line"/>
      <point x="202" y="283"/>
      <point x="186" y="196" type="qcurve"/>
      <point x="126" y="-98" type="line"/>
      <point x="120" y="-138"/>
      <point x="83" y="-138" type="qcurve" smooth="yes"/>
    </contour>
  </outline>
</glyph>
<glyph name="cent" format="2">
  <advance width="492"/>
  <unicode hex="00A2"/>
  <outline>
    <contour>
      <point x="173" y="-114" type="line"/>
      <point x="194" y="-9" type="line"/>
      <point x="126" y="2"/>
      <point x="92" y="56" type="qcurve" smooth="yes"/>
      <point x="58" y="110"/>
      <point x="58" y="189" type="qcurve" smooth="yes"/>
      <point x="58" y="328"/>
      <point x="119" y="421" type="qcurve" smooth="yes"/>
      <point x="181" y="516"/>
      <point x="299" y="520" type="qcurve"/>
      <point x="319" y="622" type="line"/>
      <point x="351" y="622" type="line"/>
      <point x="330" y="518" type="line"/>
      <point x="434" y="498"/>
      <point x="457" y="404" type="qcurve"/>
      <point x="426" y="393" type="line"/>
      <point x="405" y="476"/>
      <point x="324" y="488" type="qcurve"/>
      <point x="230" y="18" type="line"/>
      <point x="334" y="21"/>
      <point x="398" y="131" type="qcurve"/>
      <point x="425" y="117" type="line"/>
      <point x="348" y="-12"/>
      <point x="226" y="-12" type="qcurve"/>
      <point x="224" y="-12" type="line"/>
      <point x="204" y="-114" type="line"/>
    </contour>
    <contour>
      <point x="293" y="489" type="line"/>
      <point x="144" y="478"/>
      <point x="108" y="301" type="qcurve"/>
      <point x="95" y="226"/>
      <point x="93" y="214" type="qcurve" smooth="yes"/>
      <point x="91" y="202"/>
      <point x="91" y="185" type="qcurve"/>
      <point x="91" y="183"/>
      <point x="91" y="181" type="qcurve"/>
      <point x="91" y="124"/>
      <point x="116" y="78" type="qcurve"/>
      <point x="143" y="32"/>
      <point x="200" y="21" type="qcurve"/>
    </contour>
  </outline>
</glyph>
<glyph name="sterling" format="2">
  <advance width="579"/>
  <unicode hex="00A3"/>
  <outline>
    <contour>
      <point x="31" y="0" type="line"/>
      <point x="40" y="43" type="line"/>
      <point x="110" y="76"/>
      <point x="143" y="134" type="qcurve" smooth="yes"/>
      <point x="177" y="192"/>
      <point x="177" y="264" type="qcurve"/>
      <point x="177" y="264"/>
      <point x="177" y="264" type="qcurve"/>
      <point x="177" y="264"/>
      <point x="177" y="264" type="qcurve"/>
      <point x="177" y="264"/>
      <point x="177" y="264" type="qcurve"/>
      <point x="177" y="264"/>
      <point x="177" y="264" type="qcurve"/>
      <point x="177" y="264"/>
      <point x="177" y="265" type="qcurve"/>
      <point x="177" y="265"/>
      <point x="177" y="265" type="qcurve"/>
      <point x="177" y="265"/>
      <point x="177" y="265" type="qcurve"/>
      <point x="177" y="265"/>
      <point x="177" y="265" type="qcurve"/>
      <point x="177" y="265"/>
      <point x="177" y="266" type="qcurve"/>
      <point x="177" y="266"/>
      <point x="177" y="266" type="qcurve"/>
      <point x="177" y="266"/>
      <point x="177" y="266" type="qcurve"/>
      <point x="177" y="266"/>
      <point x="177" y="266" type="qcurve"/>
      <point x="177" y="266"/>
      <point x="177" y="266" type="qcurve"/>
      <point x="177" y="266"/>
      <point x="177" y="266" type="qcurve"/>
      <point x="177" y="266"/>
      <point x="177" y="266" type="qcurve"/>
      <point x="177" y="267" type="line"/>
      <point x="177" y="267"/>
      <point x="177" y="267" type="qcurve"/>
      <point x="177" y="267"/>
      <point x="177" y="267" type="qcurve"/>
      <point x="177" y="271" type="line" smooth="yes"/>
      <point x="177" y="284"/>
      <point x="175" y="306" type="qcurve"/>
      <point x="80" y="306" type="line"/>
      <point x="86" y="337" type="line"/>
      <point x="172" y="337" type="line"/>
      <point x="160" y="417"/>
      <point x="160" y="486" type="qcurve" smooth="yes"/>
      <point x="160" y="588"/>
      <point x="227" y="650" type="qcurve"/>
      <point x="295" y="710"/>
      <point x="391" y="710" type="qcurve" smooth="yes"/>
      <point x="529" y="710"/>
      <point x="580" y="592" type="qcurve"/>
      <point x="548" y="574" type="line"/>
      <point x="506" y="678"/>
      <point x="389" y="678" type="qcurve" smooth="yes"/>
      <point x="308" y="678"/>
      <point x="252" y="627" type="qcurve" smooth="yes"/>
      <point x="196" y="576"/>
      <point x="196" y="484" type="qcurve" smooth="yes"/>
      <point x="196" y="415"/>
      <point x="208" y="337" type="qcurve"/>
      <point x="420" y="337" type="line"/>
      <point x="414" y="306" type="line"/>
      <point x="210" y="306" type="line"/>
      <point x="213" y="285"/>
      <point x="213" y="264" type="qcurve"/>
      <point x="204" y="100"/>
      <point x="77" y="35" type="qcurve"/>
      <point x="75" y="32" type="line"/>
      <point x="467" y="32" type="line"/>
      <point x="460" y="0" type="line"/>
    </contour>
    <contour>
      <point x="177" y="270" type="qcurve"/>
      <point x="177" y="270"/>
      <point x="177" y="270" type="qcurve"/>
      <point x="177" y="270"/>
      <point x="177" y="270" type="qcurve"/>
      <point x="177" y="270"/>
    </contour>
    <contour>
      <point x="177" y="265" type="qcurve"/>
      <point x="177" y="265"/>
      <point x="177" y="265" type="qcurve"/>
      <point x="177" y="265"/>
      <point x="177" y="265" type="qcurve"/>
      <point x="177" y="265"/>
    </contour>
  </outline>
</glyph>
<glyph name="yen" format="2">
  <advance width="573"/>
  <unicode hex="00A5"/>
  <outline>
    <contour>
      <point x="217" y="0" type="line"/>
      <point x="250" y="163" type="line"/>
      <point x="59" y="163" type="line"/>
      <point x="66" y="193" type="line"/>
      <point x="256" y="193" type="line"/>
      <point x="282" y="321" type="line"/>
      <point x="92" y="321" type="line"/>
      <point x="98" y="351" type="line"/>
      <point x="270" y="351" type="line"/>
      <point x="131" y="698" type="line"/>
      <point x="169" y="698" type="line"/>
      <point x="303" y="357" type="line"/>
      <point x="306" y="357" type="line"/>
      <point x="578" y="698" type="line"/>
      <point x="620" y="698" type="line"/>
      <point x="342" y="351" type="line"/>
      <point x="516" y="351" type="line"/>
      <point x="510" y="321" type="line"/>
      <point x="318" y="321" type="line"/>
      <point x="292" y="193" type="line"/>
      <point x="484" y="193" type="line"/>
      <point x="477" y="163" type="line"/>
      <point x="286" y="163" type="line"/>
      <point x="253" y="0" type="line"/>
    </contour>
  </outline>
</glyph>
<glyph name="brokenbar" format="2">
  <advance width="249"/>
  <unicode hex="00A6"/>
  <outline>
    <contour>
      <point x="139" y="402" type="line"/>
      <point x="211" y="760" type="line"/>
      <point x="241" y="760" type="line"/>
      <point x="169" y="402" type="line"/>
    </contour>
    <contour>
      <point x="31" y="-138" type="line"/>
      <point x="103" y="220" type="line"/>
      <point x="133" y="220" type="line"/>
      <point x="61" y="-138" type="line"/>
    </contour>
  </outline>
</glyph>
<glyph name="section" format="2">
  <advance width="562"/>
  <unicode hex="00A7"/>
  <outline>
    <contour>
      <point x="199" y="-154" type="qcurve"/>
      <point x="98" y="-154"/>
      <point x="47" y="-100" type="qcurve"/>
      <point x="71" y="-76" type="line"/>
      <point x="115" y="-124"/>
      <point x="202" y="-124" type="qcurve"/>
      <point x="272" y="-124"/>
      <point x="315" y="-91" type="qcurve"/>
      <point x="360" y="-57"/>
      <point x="359" y="6" type="qcurve"/>
      <point x="360" y="50"/>
      <point x="336" y="77" type="qcurve"/>
      <point x="312" y="104"/>
      <point x="267" y="118" type="qcurve"/>
      <point x="195" y="142" type="line"/>
      <point x="138" y="162"/>
      <point x="111" y="189" type="qcurve"/>
      <point x="84" y="217"/>
      <point x="84" y="268" type="qcurve"/>
      <point x="84" y="386"/>
      <point x="229" y="428" type="qcurve"/>
      <point x="229" y="432" type="line"/>
      <point x="172" y="472"/>
      <point x="171" y="548" type="qcurve"/>
      <point x="172" y="626"/>
      <point x="226" y="668" type="qcurve"/>
      <point x="282" y="710"/>
      <point x="365" y="710" type="qcurve"/>
      <point x="461" y="710"/>
      <point x="517" y="656" type="qcurve"/>
      <point x="493" y="632" type="line"/>
      <point x="452" y="680"/>
      <point x="362" y="679" type="qcurve"/>
      <point x="294" y="679"/>
      <point x="249" y="646" type="qcurve"/>
      <point x="205" y="613"/>
      <point x="205" y="550" type="qcurve"/>
      <point x="204" y="505"/>
      <point x="228" y="478" type="qcurve"/>
      <point x="252" y="452"/>
      <point x="297" y="437" type="qcurve"/>
      <point x="369" y="413" type="line"/>
      <point x="426" y="396"/>
      <point x="453" y="367" type="qcurve"/>
      <point x="480" y="338"/>
      <point x="480" y="287" type="qcurve"/>
      <point x="480" y="168"/>
      <point x="335" y="128" type="qcurve"/>
      <point x="334" y="124" type="line"/>
      <point x="394" y="86"/>
      <point x="393" y="8" type="qcurve"/>
      <point x="394" y="-70"/>
      <point x="338" y="-112" type="qcurve"/>
      <point x="284" y="-154"/>
    </contour>
    <contour>
      <point x="312" y="136" type="line"/>
      <point x="376" y="158"/>
      <point x="410" y="192" type="qcurve"/>
      <point x="446" y="228"/>
      <point x="445" y="281" type="qcurve"/>
      <point x="446" y="324"/>
      <point x="424" y="347" type="qcurve"/>
      <point x="402" y="372"/>
      <point x="351" y="387" type="qcurve"/>
      <point x="252" y="420" type="line"/>
      <point x="190" y="400"/>
      <point x="154" y="364" type="qcurve"/>
      <point x="120" y="330"/>
      <point x="119" y="275" type="qcurve"/>
      <point x="119" y="233"/>
      <point x="140" y="209" type="qcurve"/>
      <point x="162" y="185"/>
      <point x="213" y="169" type="qcurve"/>
      <point x="286" y="145" type="line"/>
    </contour>
  </outline>
</glyph>
<glyph name="logicalnot" format="2">
  <advance width="601"/>
  <unicode hex="00AC"/>
  <outline>
    <contour>
      <point x="460" y="98" type="line"/>
      <point x="499" y="290" type="line"/>
      <point x="72" y="290" type="line"/>
      <point x="78" y="320" type="line"/>
      <point x="537" y="320" type="line"/>
      <point x="492" y="98" type="line"/>
    </contour>
  </outline>
</glyph>
<glyph name="uni00AD" format="2">
  <advance width="388"/>
  <unicode hex="00AD"/>
  <outline>
    <contour>
      <point x="83" y="287" type="line"/>
      <point x="90" y="322" type="line"/>
      <point x="325" y="322" type="line"/>
      <point x="318" y="287" type="line"/>
    </contour>
  </outline>
</glyph>
<glyph name="registered" format="2">
  <advance width="467"/>
  <unicode hex="00AE"/>
  <outline>
    <contour>
      <point x="254" y="298" type="qcurve" smooth="yes"/>
      <point x="178" y="298"/>
      <point x="130" y="345" type="qcurve" smooth="yes"/>
      <point x="82" y="394"/>
      <point x="82" y="466" type="qcurve" smooth="yes"/>
      <point x="82" y="508"/>
      <point x="95" y="549" type="qcurve"/>
      <point x="110" y="592"/>
      <point x="136" y="628" type="qcurve" smooth="yes"/>
      <point x="164" y="666"/>
      <point x="207" y="687" type="qcurve" smooth="yes"/>
      <point x="252" y="710"/>
      <point x="311" y="710" type="qcurve" smooth="yes"/>
      <point x="388" y="710"/>
      <point x="436" y="663" type="qcurve" smooth="yes"/>
      <point x="484" y="617"/>
      <point x="484" y="542" type="qcurve" smooth="yes"/>
      <point x="484" y="539"/>
      <point x="484" y="537" type="qcurve"/>
      <point x="484" y="499"/>
      <point x="471" y="459" type="qcurve" smooth="yes"/>
      <point x="457" y="418"/>
      <point x="429" y="380" type="qcurve" smooth="yes"/>
      <point x="402" y="344"/>
      <point x="358" y="321" type="qcurve" smooth="yes"/>
      <point x="314" y="298"/>
    </contour>
    <contour>
      <point x="257" y="319" type="qcurve"/>
      <point x="334" y="320"/>
      <point x="385" y="365" type="qcurve" smooth="yes"/>
      <point x="436" y="411"/>
      <point x="453" y="483" type="qcurve" smooth="yes"/>
      <point x="460" y="516"/>
      <point x="460" y="541" type="qcurve" smooth="yes"/>
      <point x="460" y="608"/>
      <point x="419" y="648" type="qcurve" smooth="yes"/>
      <point x="378" y="689"/>
      <point x="311" y="689" type="qcurve"/>
      <point x="310" y="689"/>
      <point x="308" y="689" type="qcurve"/>
      <point x="230" y="689"/>
      <point x="179" y="643" type="qcurve" smooth="yes"/>
      <point x="128" y="598"/>
      <point x="113" y="525" type="qcurve" smooth="yes"/>
      <point x="105" y="485"/>
      <point x="105" y="467" type="qcurve"/>
      <point x="105" y="465"/>
      <point x="105" y="464" type="qcurve"/>
      <point x="105" y="401"/>
      <point x="146" y="360" type="qcurve" smooth="yes"/>
      <point x="188" y="320"/>
    </contour>
    <contour>
      <point x="325" y="398" type="line"/>
      <point x="292" y="486" type="line"/>
      <point x="235" y="486" type="line"/>
      <point x="218" y="398" type="line"/>
      <point x="196" y="398" type="line"/>
      <point x="238" y="609" type="line"/>
      <point x="318" y="609" type="line" smooth="yes"/>
      <point x="372" y="609"/>
      <point x="372" y="561" type="qcurve" smooth="yes"/>
      <point x="372" y="528"/>
      <point x="355" y="509" type="qcurve" smooth="yes"/>
      <point x="339" y="491"/>
      <point x="313" y="488" type="qcurve"/>
      <point x="348" y="398" type="line"/>
    </contour>
    <contour>
      <point x="296" y="505" type="line"/>
      <point x="317" y="506"/>
      <point x="329" y="512" type="qcurve" smooth="yes"/>
      <point x="343" y="520"/>
      <point x="346" y="540" type="qcurve" smooth="yes"/>
      <point x="349" y="556"/>
      <point x="349" y="562" type="qcurve"/>
      <point x="349" y="563"/>
      <point x="349" y="563" type="qcurve"/>
      <point x="349" y="590"/>
      <point x="314" y="590" type="qcurve" smooth="yes"/>
      <point x="256" y="590" type="line"/>
      <point x="239" y="505" type="line"/>
    </contour>
  </outline>
</glyph>
<glyph name="plusminus" format="2">
  <advance width="600"/>
  <unicode hex="00B1"/>
  <outline>
    <contour>
      <point x="258" y="124" type="line"/>
      <point x="303" y="350" type="line"/>
      <point x="84" y="350" type="line"/>
      <point x="90" y="380" type="line"/>
      <point x="308" y="380" type="line"/>
      <point x="354" y="606" type="line"/>
      <point x="387" y="606" type="line"/>
      <point x="342" y="380" type="line"/>
      <point x="560" y="380" type="line"/>
      <point x="554" y="350" type="line"/>
      <point x="336" y="350" type="line"/>
      <point x="291" y="124" type="line"/>
    </contour>
    <contour>
      <point x="14" y="0" type="line"/>
      <point x="20" y="30" type="line"/>
      <point x="490" y="30" type="line"/>
      <point x="484" y="0" type="line"/>
    </contour>
  </outline>
</glyph>
<glyph name="threesuperior" format="2">
  <advance width="344"/>
  <unicode hex="00B3"/>
  <outline>
    <contour>
      <point x="188" y="323" type="qcurve"/>
      <point x="96" y="323"/>
      <point x="67" y="383" type="qcurve"/>
      <point x="88" y="398" type="line"/>
      <point x="100" y="376"/>
      <point x="123" y="362" type="qcurve"/>
      <point x="147" y="348"/>
      <point x="189" y="348" type="qcurve"/>
      <point x="281" y="348"/>
      <point x="296" y="424" type="qcurve"/>
      <point x="297" y="427" type="line"/>
      <point x="298" y="432"/>
      <point x="298" y="444" type="qcurve"/>
      <point x="298" y="476"/>
      <point x="279" y="491" type="qcurve"/>
      <point x="260" y="508"/>
      <point x="215" y="508" type="qcurve"/>
      <point x="165" y="508" type="line"/>
      <point x="169" y="533" type="line"/>
      <point x="215" y="533" type="line"/>
      <point x="314" y="534"/>
      <point x="323" y="598" type="qcurve"/>
      <point x="324" y="601" type="line"/>
      <point x="326" y="607"/>
      <point x="325" y="616" type="qcurve"/>
      <point x="326" y="646"/>
      <point x="306" y="662" type="qcurve"/>
      <point x="288" y="680"/>
      <point x="247" y="679" type="qcurve"/>
      <point x="211" y="680"/>
      <point x="187" y="668" type="qcurve"/>
      <point x="164" y="656"/>
      <point x="143" y="633" type="qcurve"/>
      <point x="124" y="649" type="line"/>
      <point x="166" y="704"/>
      <point x="250" y="704" type="qcurve"/>
      <point x="302" y="704"/>
      <point x="328" y="680" type="qcurve"/>
      <point x="355" y="656"/>
      <point x="355" y="616" type="qcurve"/>
      <point x="355" y="538"/>
      <point x="265" y="521" type="qcurve"/>
      <point x="265" y="519" type="line"/>
      <point x="328" y="510"/>
      <point x="327" y="444" type="qcurve"/>
      <point x="328" y="390"/>
      <point x="290" y="356" type="qcurve"/>
      <point x="252" y="323"/>
    </contour>
  </outline>
</glyph>
<glyph name="acute" format="2">
  <advance width="600"/>
  <unicode hex="00B4"/>
  <outline>
    <contour>
      <point x="276" y="601" type="line"/>
      <point x="410" y="758" type="line"/>
      <point x="439" y="739" type="line"/>
      <point x="298" y="587" type="line"/>
    </contour>
  </outline>
</glyph>
<glyph name="mu" format="2">
  <advance width="558"/>
  <unicode hex="00B5"/>
  <outline>
    <contour>
      <point x="9" y="-200" type="line"/>
      <point x="150" y="508" type="line"/>
      <point x="184" y="508" type="line"/>
      <point x="118" y="178"/>
      <point x="115" y="155" type="qcurve"/>
      <point x="113" y="138"/>
      <point x="113" y="128" type="qcurve"/>
      <point x="114" y="20"/>
      <point x="219" y="19" type="qcurve"/>
      <point x="294" y="19"/>
      <point x="343" y="76" type="qcurve"/>
      <point x="388" y="124"/>
      <point x="407" y="202" type="qcurve"/>
      <point x="468" y="508" type="line"/>
      <point x="502" y="508" type="line"/>
      <point x="407" y="31" type="line"/>
      <point x="489" y="31" type="line"/>
      <point x="483" y="0" type="line"/>
      <point x="446" y="0"/>
      <point x="410" y="0" type="qcurve"/>
      <point x="374" y="0"/>
      <point x="374" y="31" type="qcurve"/>
      <point x="374" y="40"/>
      <point x="379" y="65" type="qcurve"/>
      <point x="387" y="105" type="line"/>
      <point x="384" y="105" type="line"/>
      <point x="356" y="48"/>
      <point x="316" y="18" type="qcurve"/>
      <point x="276" y="-12"/>
      <point x="213" y="-12" type="qcurve"/>
      <point x="118" y="-12"/>
      <point x="94" y="74" type="qcurve"/>
      <point x="92" y="74" type="line"/>
      <point x="75" y="-44" type="line"/>
      <point x="43" y="-200" type="line"/>
    </contour>
  </outline>
</glyph>
<glyph name="paragraph" format="2">
  <advance width="599"/>
  <unicode hex="00B6"/>
  <outline>
    <contour>
      <point x="325" y="-149" type="line"/>
      <point x="488" y="669" type="line"/>
      <point x="363" y="669" type="line"/>
      <point x="199" y="-149" type="line"/>
      <point x="166" y="-149" type="line"/>
      <point x="261" y="323" type="line"/>
      <point x="192" y="323"/>
      <point x="145" y="367" type="qcurve"/>
      <point x="98" y="412"/>
      <point x="98" y="483" type="qcurve"/>
      <point x="98" y="582"/>
      <point x="168" y="639" type="qcurve"/>
      <point x="238" y="698"/>
      <point x="344" y="698" type="qcurve"/>
      <point x="595" y="698" type="line"/>
      <point x="589" y="669" type="line"/>
      <point x="521" y="669" type="line"/>
      <point x="357" y="-149" type="line"/>
    </contour>
  </outline>
</glyph>
<glyph name="periodcentered" format="2">
  <advance width="302"/>
  <unicode hex="00B7"/>
  <outline>
    <contour>
      <point x="152" y="267" type="qcurve"/>
      <point x="122" y="267"/>
      <point x="121" y="291" type="qcurve"/>
      <point x="121" y="300"/>
      <point x="124" y="313" type="qcurve"/>
      <point x="130" y="342"/>
      <point x="162" y="342" type="qcurve"/>
      <point x="194" y="342"/>
      <point x="193" y="318" type="qcurve"/>
      <point x="193" y="310"/>
      <point x="190" y="296" type="qcurve"/>
      <point x="186" y="268"/>
    </contour>
  </outline>
</glyph>
<glyph name="cedilla" format="2">
  <advance width="600"/>
  <unicode hex="00B8"/>
  <outline>
    <contour>
      <point x="275" y="-203" type="qcurve"/>
      <point x="215" y="-203"/>
      <point x="194" y="-170" type="qcurve"/>
      <point x="214" y="-150" type="line"/>
      <point x="234" y="-177"/>
      <point x="275" y="-177" type="qcurve" smooth="yes"/>
      <point x="305" y="-177"/>
      <point x="323" y="-162" type="qcurve" smooth="yes"/>
      <point x="342" y="-146"/>
      <point x="342" y="-124" type="qcurve" smooth="yes"/>
      <point x="342" y="-106"/>
      <point x="331" y="-97" type="qcurve" smooth="yes"/>
      <point x="319" y="-86"/>
      <point x="289" y="-84" type="qcurve" smooth="yes"/>
      <point x="254" y="-82" type="line"/>
      <point x="290" y="7" type="line"/>
      <point x="316" y="7" type="line"/>
      <point x="284" y="-70" type="line"/>
      <point x="286" y="-72" type="line"/>
      <point x="292" y="-71" type="line" smooth="yes"/>
      <point x="301" y="-69"/>
      <point x="309" y="-69" type="qcurve" smooth="yes"/>
      <point x="312" y="-69"/>
      <point x="315" y="-69" type="qcurve" smooth="yes"/>
      <point x="373" y="-69"/>
      <point x="373" y="-123" type="qcurve"/>
      <point x="373" y="-124"/>
      <point x="373" y="-125" type="qcurve"/>
      <point x="373" y="-157"/>
      <point x="347" y="-180" type="qcurve"/>
      <point x="320" y="-202"/>
    </contour>
  </outline>
</glyph>
<glyph name="onesuperior" format="2">
  <advance width="305"/>
  <unicode hex="00B9"/>
  <outline>
    <contour>
      <point x="210" y="329" type="line"/>
      <point x="182" y="329" type="line"/>
      <point x="249" y="671" type="line"/>
      <point x="161" y="629" type="line"/>
      <point x="166" y="657" type="line"/>
      <point x="251" y="698" type="line"/>
      <point x="283" y="698" type="line"/>
    </contour>
  </outline>
</glyph>
<glyph name="ordmasculine" format="2">
  <advance width="370"/>
  <unicode hex="00BA"/>
  <outline>
    <contour>
      <point x="211" y="363" type="qcurve"/>
      <point x="160" y="362"/>
      <point x="127" y="398" type="qcurve"/>
      <point x="95" y="434"/>
      <point x="95" y="491" type="qcurve"/>
      <point x="95" y="574"/>
      <point x="139" y="642" type="qcurve"/>
      <point x="188" y="710"/>
      <point x="269" y="710" type="qcurve"/>
      <point x="322" y="710"/>
      <point x="353" y="675" type="qcurve"/>
      <point x="386" y="639"/>
      <point x="385" y="582" type="qcurve"/>
      <point x="386" y="501"/>
      <point x="341" y="432" type="qcurve"/>
      <point x="293" y="363"/>
    </contour>
    <contour>
      <point x="214" y="388" type="qcurve"/>
      <point x="268" y="388"/>
      <point x="300" y="422" type="qcurve"/>
      <point x="334" y="458"/>
      <point x="344" y="511" type="qcurve"/>
      <point x="352" y="552" type="line"/>
      <point x="356" y="568"/>
      <point x="356" y="584" type="qcurve"/>
      <point x="356" y="628"/>
      <point x="335" y="656" type="qcurve"/>
      <point x="314" y="686"/>
      <point x="266" y="685" type="qcurve"/>
      <point x="214" y="686"/>
      <point x="180" y="651" type="qcurve"/>
      <point x="148" y="616"/>
      <point x="136" y="562" type="qcurve"/>
      <point x="128" y="521" type="line"/>
      <point x="124" y="506"/>
      <point x="124" y="489" type="qcurve"/>
      <point x="124" y="447"/>
      <point x="145" y="417" type="qcurve"/>
      <point x="168" y="388"/>
    </contour>
  </outline>
</glyph>
<glyph name="guillemotright" format="2">
  <advance width="472"/>
  <unicode hex="00BB"/>
  <outline>
    <contour>
      <point x="199" y="126" type="line"/>
      <point x="405" y="294" type="line"/>
      <point x="267" y="462" type="line"/>
      <point x="284" y="483" type="line"/>
      <point x="444" y="307" type="line"/>
      <point x="437" y="274" type="line"/>
      <point x="207" y="99" type="line"/>
    </contour>
    <contour>
      <point x="17" y="126" type="line"/>
      <point x="223" y="294" type="line"/>
      <point x="85" y="462" type="line"/>
      <point x="102" y="483" type="line"/>
      <point x="262" y="307" type="line"/>
      <point x="255" y="274" type="line"/>
      <point x="25" y="99" type="line"/>
    </contour>
  </outline>
</glyph>
<glyph name="questiondown" format="2">
  <advance width="457"/>
  <unicode hex="00BF"/>
  <outline>
    <contour>
      <point x="159" y="-202" type="qcurve"/>
      <point x="80" y="-202"/>
      <point x="34" y="-160" type="qcurve"/>
      <point x="-12" y="-116"/>
      <point x="-12" y="-45" type="qcurve"/>
      <point x="-12" y="48"/>
      <point x="45" y="107" type="qcurve"/>
      <point x="104" y="167"/>
      <point x="222" y="181" type="qcurve"/>
      <point x="250" y="324" type="line"/>
      <point x="284" y="324" type="line"/>
      <point x="251" y="153" type="line"/>
      <point x="50" y="141"/>
      <point x="29" y="0" type="qcurve"/>
      <point x="24" y="-20"/>
      <point x="24" y="-44" type="qcurve"/>
      <point x="30" y="-170"/>
      <point x="162" y="-170" type="qcurve"/>
      <point x="233" y="-170"/>
      <point x="274" y="-135" type="qcurve"/>
      <point x="316" y="-98"/>
      <point x="341" y="-38" type="qcurve"/>
      <point x="371" y="-49" type="line"/>
      <point x="312" y="-202"/>
    </contour>
    <contour>
      <point x="292" y="440" type="qcurve"/>
      <point x="262" y="440"/>
      <point x="261" y="464" type="qcurve"/>
      <point x="261" y="472"/>
      <point x="264" y="486" type="qcurve"/>
      <point x="270" y="516"/>
      <point x="302" y="515" type="qcurve"/>
      <point x="334" y="515"/>
      <point x="333" y="491" type="qcurve"/>
      <point x="333" y="484"/>
      <point x="330" y="469" type="qcurve"/>
      <point x="326" y="440"/>
    </contour>
  </outline>
</glyph>
<glyph name="Aacute" format="2">
  <advance width="601"/>
  <unicode hex="00C1"/>
  <outline>
    <contour>
      <point x="365" y="779" type="line"/>
      <point x="499" y="936" type="line"/>
      <point x="528" y="917" type="line"/>
      <point x="387" y="764" type="line"/>
    </contour>
    <contour>
      <point x="489" y="0" type="line"/>
      <point x="449" y="227" type="line"/>
      <point x="142" y="227" type="line"/>
      <point x="23" y="0" type="line"/>
      <point x="-16" y="0" type="line"/>
      <point x="352" y="698" type="line"/>
      <point x="400" y="698" type="line"/>
      <point x="526" y="0" type="line"/>
    </contour>
    <contour>
      <point x="372" y="661" type="line"/>
      <point x="368" y="661" type="line"/>
      <point x="158" y="259" type="line"/>
      <point x="444" y="259" type="line"/>
    </contour>
  </outline>
</glyph>
<glyph name="Acircumflex" format="2">
  <advance width="601"/>
  <unicode hex="00C2"/>
  <outline>
    <contour>
      <point x="489" y="0" type="line"/>
      <point x="449" y="227" type="line"/>
      <point x="142" y="227" type="line"/>
      <point x="23" y="0" type="line"/>
      <point x="-16" y="0" type="line"/>
      <point x="352" y="698" type="line"/>
      <point x="400" y="698" type="line"/>
      <point x="526" y="0" type="line"/>
    </contour>
    <contour>
      <point x="372" y="661" type="line"/>
      <point x="368" y="661" type="line"/>
      <point x="158" y="259" type="line"/>
      <point x="444" y="259" type="line"/>
    </contour>
    <contour>
      <point x="417" y="899" type="line"/>
      <point x="271" y="775" type="line"/>
      <point x="251" y="791" type="line"/>
      <point x="399" y="926" type="line"/>
      <point x="439" y="926" type="line"/>
      <point x="540" y="790" type="line"/>
      <point x="518" y="775" type="line"/>
    </contour>
  </outline>
</glyph>
<glyph name="Atilde" format="2">
  <advance width="601"/>
  <unicode hex="00C3"/>
  <outline>
    <contour>
      <point x="478" y="802" type="qcurve" smooth="yes"/>
      <point x="458" y="802"/>
      <point x="442" y="809" type="qcurve"/>
      <point x="427" y="818"/>
      <point x="406" y="831" type="qcurve"/>
      <point x="386" y="846"/>
      <point x="372" y="851" type="qcurve" smooth="yes"/>
      <point x="358" y="857"/>
      <point x="341" y="857" type="qcurve"/>
      <point x="341" y="857"/>
      <point x="341" y="857" type="qcurve"/>
      <point x="341" y="857"/>
      <point x="341" y="857" type="qcurve"/>
      <point x="341" y="857"/>
      <point x="341" y="857" type="qcurve"/>
      <point x="341" y="857"/>
      <point x="341" y="857" type="qcurve"/>
      <point x="341" y="857"/>
      <point x="341" y="857" type="qcurve"/>
      <point x="341" y="857"/>
      <point x="340" y="857" type="qcurve"/>
      <point x="340" y="857"/>
      <point x="340" y="857" type="qcurve"/>
      <point x="340" y="857"/>
      <point x="340" y="857" type="qcurve"/>
      <point x="340" y="857"/>
      <point x="340" y="857" type="qcurve"/>
      <point x="339" y="857" type="line"/>
      <point x="339" y="857"/>
      <point x="339" y="857" type="qcurve"/>
      <point x="339" y="857"/>
      <point x="339" y="857" type="qcurve"/>
      <point x="339" y="857"/>
      <point x="339" y="857" type="qcurve"/>
      <point x="307" y="857"/>
      <point x="275" y="825" type="qcurve"/>
      <point x="260" y="843" type="line"/>
      <point x="302" y="886"/>
      <point x="348" y="886" type="qcurve"/>
      <point x="348" y="886"/>
      <point x="348" y="886" type="qcurve"/>
      <point x="348" y="886"/>
      <point x="348" y="886" type="qcurve"/>
      <point x="348" y="886"/>
      <point x="348" y="886" type="qcurve"/>
      <point x="348" y="886"/>
      <point x="349" y="886" type="qcurve"/>
      <point x="349" y="886"/>
      <point x="349" y="886" type="qcurve"/>
      <point x="353" y="886" type="line" smooth="yes"/>
      <point x="371" y="886"/>
      <point x="384" y="879" type="qcurve"/>
      <point x="400" y="872"/>
      <point x="420" y="857" type="qcurve" smooth="yes"/>
      <point x="440" y="843"/>
      <point x="454" y="837" type="qcurve" smooth="yes"/>
      <point x="469" y="831"/>
      <point x="485" y="831" type="qcurve" smooth="yes"/>
      <point x="521" y="831"/>
      <point x="551" y="863" type="qcurve"/>
      <point x="566" y="845" type="line"/>
      <point x="526" y="802"/>
    </contour>
    <contour>
      <point x="489" y="0" type="line"/>
      <point x="449" y="227" type="line"/>
      <point x="142" y="227" type="line"/>
      <point x="23" y="0" type="line"/>
      <point x="-16" y="0" type="line"/>
      <point x="352" y="698" type="line"/>
      <point x="400" y="698" type="line"/>
      <point x="526" y="0" type="line"/>
    </contour>
    <contour>
      <point x="372" y="661" type="line"/>
      <point x="368" y="661" type="line"/>
      <point x="158" y="259" type="line"/>
      <point x="444" y="259" type="line"/>
    </contour>
  </outline>
</glyph>
<glyph name="Aring" format="2">
  <advance width="601"/>
  <unicode hex="00C5"/>
  <outline>
    <contour>
      <point x="489" y="0" type="line"/>
      <point x="449" y="227" type="line"/>
      <point x="142" y="227" type="line"/>
      <point x="23" y="0" type="line"/>
      <point x="-16" y="0" type="line"/>
      <point x="352" y="698" type="line"/>
      <point x="400" y="698" type="line"/>
      <point x="526" y="0" type="line"/>
    </contour>
    <contour>
      <point x="372" y="661" type="line"/>
      <point x="368" y="661" type="line"/>
      <point x="158" y="259" type="line"/>
      <point x="444" y="259" type="line"/>
    </contour>
    <contour>
      <point x="395" y="764" type="qcurve"/>
      <point x="350" y="764"/>
      <point x="331" y="789" type="qcurve"/>
      <point x="312" y="815"/>
      <point x="312" y="842" type="qcurve"/>
      <point x="312" y="894"/>
      <point x="342" y="925" type="qcurve"/>
      <point x="372" y="958"/>
      <point x="423" y="957" type="qcurve"/>
      <point x="467" y="958"/>
      <point x="486" y="933" type="qcurve"/>
      <point x="506" y="909"/>
      <point x="506" y="879" type="qcurve"/>
      <point x="506" y="828"/>
      <point x="476" y="796" type="qcurve"/>
      <point x="446" y="764"/>
    </contour>
    <contour>
      <point x="399" y="789" type="qcurve"/>
      <point x="428" y="790"/>
      <point x="448" y="805" type="qcurve"/>
      <point x="469" y="821"/>
      <point x="475" y="853" type="qcurve"/>
      <point x="478" y="865"/>
      <point x="478" y="869" type="qcurve"/>
      <point x="480" y="875"/>
      <point x="479" y="881" type="qcurve"/>
      <point x="479" y="932"/>
      <point x="419" y="932" type="qcurve"/>
      <point x="391" y="932"/>
      <point x="370" y="916" type="qcurve"/>
      <point x="349" y="901"/>
      <point x="343" y="868" type="qcurve"/>
      <point x="344" y="856"/>
      <point x="341" y="851" type="qcurve"/>
      <point x="339" y="846"/>
      <point x="339" y="840" type="qcurve"/>
      <point x="342" y="789"/>
    </contour>
  </outline>
</glyph>
<glyph name="Eacute" format="2">
  <advance width="556"/>
  <unicode hex="00C9"/>
  <outline>
    <contour>
      <point x="369" y="779" type="line"/>
      <point x="503" y="936" type="line"/>
      <point x="532" y="917" type="line"/>
      <point x="391" y="764" type="line"/>
    </contour>
    <contour>
      <point x="50" y="0" type="line"/>
      <point x="190" y="698" type="line"/>
      <point x="576" y="698" type="line"/>
      <point x="570" y="666" type="line"/>
      <point x="220" y="666" type="line"/>
      <point x="160" y="370" type="line"/>
      <point x="493" y="370" type="line"/>
      <point x="487" y="338" type="line"/>
      <point x="153" y="338" type="line"/>
      <point x="92" y="32" type="line"/>
      <point x="447" y="32" type="line"/>
      <point x="440" y="0" type="line"/>
    </contour>
  </outline>
</glyph>
<glyph name="Ecircumflex" format="2">
  <advance width="556"/>
  <unicode hex="00CA"/>
  <outline>
    <contour>
      <point x="421" y="899" type="line"/>
      <point x="275" y="775" type="line"/>
      <point x="255" y="791" type="line"/>
      <point x="403" y="926" type="line"/>
      <point x="443" y="926" type="line"/>
      <point x="544" y="790" type="line"/>
      <point x="522" y="775" type="line"/>
    </contour>
    <contour>
      <point x="50" y="0" type="line"/>
      <point x="190" y="698" type="line"/>
      <point x="576" y="698" type="line"/>
      <point x="570" y="666" type="line"/>
      <point x="220" y="666" type="line"/>
      <point x="160" y="370" type="line"/>
      <point x="493" y="370" type="line"/>
      <point x="487" y="338" type="line"/>
      <point x="153" y="338" type="line"/>
      <point x="92" y="32" type="line"/>
      <point x="447" y="32" type="line"/>
      <point x="440" y="0" type="line"/>
    </contour>
  </outline>
</glyph>
<glyph name="Edieresis" format="2">
  <advance width="556"/>
  <unicode hex="00CB"/>
  <outline>
    <contour>
      <point x="313" y="814" type="qcurve" smooth="yes"/>
      <point x="288" y="814"/>
      <point x="288" y="835" type="qcurve" smooth="yes"/>
      <point x="288" y="840"/>
      <point x="291" y="851" type="qcurve" smooth="yes"/>
      <point x="294" y="863"/>
      <point x="300" y="869" type="qcurve" smooth="yes"/>
      <point x="308" y="876"/>
      <point x="322" y="876" type="qcurve" smooth="yes"/>
      <point x="347" y="876"/>
      <point x="347" y="857" type="qcurve"/>
      <point x="347" y="857"/>
      <point x="347" y="857" type="qcurve"/>
      <point x="347" y="857"/>
      <point x="347" y="857" type="qcurve"/>
      <point x="347" y="857"/>
      <point x="347" y="857" type="qcurve"/>
      <point x="347" y="857"/>
      <point x="347" y="857" type="qcurve"/>
      <point x="347" y="856" type="line"/>
      <point x="347" y="856"/>
      <point x="347" y="856" type="qcurve"/>
      <point x="347" y="855" type="line"/>
      <point x="347" y="851"/>
      <point x="344" y="839" type="qcurve" smooth="yes"/>
      <point x="342" y="829"/>
      <point x="335" y="821" type="qcurve" smooth="yes"/>
      <point x="328" y="814"/>
    </contour>
    <contour>
      <point x="495" y="814" type="qcurve" smooth="yes"/>
      <point x="470" y="814"/>
      <point x="470" y="835" type="qcurve" smooth="yes"/>
      <point x="470" y="840"/>
      <point x="473" y="851" type="qcurve" smooth="yes"/>
      <point x="476" y="863"/>
      <point x="482" y="869" type="qcurve" smooth="yes"/>
      <point x="490" y="876"/>
      <point x="504" y="876" type="qcurve" smooth="yes"/>
      <point x="529" y="876"/>
      <point x="529" y="857" type="qcurve"/>
      <point x="529" y="857"/>
      <point x="529" y="857" type="qcurve"/>
      <point x="529" y="857"/>
      <point x="529" y="857" type="qcurve"/>
      <point x="529" y="857"/>
      <point x="529" y="857" type="qcurve"/>
      <point x="529" y="857"/>
      <point x="529" y="857" type="qcurve"/>
      <point x="529" y="857"/>
      <point x="529" y="857" type="qcurve"/>
      <point x="529" y="855" type="line"/>
      <point x="529" y="851"/>
      <point x="526" y="839" type="qcurve" smooth="yes"/>
      <point x="524" y="829"/>
      <point x="517" y="821" type="qcurve" smooth="yes"/>
      <point x="510" y="814"/>
    </contour>
    <contour>
      <point x="50" y="0" type="line"/>
      <point x="190" y="698" type="line"/>
      <point x="576" y="698" type="line"/>
      <point x="570" y="666" type="line"/>
      <point x="220" y="666" type="line"/>
      <point x="160" y="370" type="line"/>
      <point x="493" y="370" type="line"/>
      <point x="487" y="338" type="line"/>
      <point x="153" y="338" type="line"/>
      <point x="92" y="32" type="line"/>
      <point x="447" y="32" type="line"/>
      <point x="440" y="0" type="line"/>
    </contour>
  </outline>
</glyph>
<glyph name="Igrave" format="2">
  <advance width="238"/>
  <unicode hex="00CC"/>
  <outline>
    <contour>
      <point x="141" y="920" type="line"/>
      <point x="172" y="936" type="line"/>
      <point x="248" y="777" type="line"/>
      <point x="225" y="765" type="line"/>
    </contour>
    <contour>
      <point x="50" y="0" type="line"/>
      <point x="190" y="698" type="line"/>
      <point x="226" y="698" type="line"/>
      <point x="86" y="0" type="line"/>
    </contour>
  </outline>
</glyph>
<glyph name="Iacute" format="2">
  <advance width="238"/>
  <unicode hex="00CD"/>
  <outline>
    <contour>
      <point x="197" y="779" type="line"/>
      <point x="331" y="936" type="line"/>
      <point x="360" y="917" type="line"/>
      <point x="219" y="764" type="line"/>
    </contour>
    <contour>
      <point x="50" y="0" type="line"/>
      <point x="190" y="698" type="line"/>
      <point x="226" y="698" type="line"/>
      <point x="86" y="0" type="line"/>
    </contour>
  </outline>
</glyph>
<glyph name="Icircumflex" format="2">
  <advance width="238"/>
  <unicode hex="00CE"/>
  <outline>
    <contour>
      <point x="249" y="899" type="line"/>
      <point x="103" y="775" type="line"/>
      <point x="83" y="791" type="line"/>
      <point x="231" y="926" type="line"/>
      <point x="271" y="926" type="line"/>
      <point x="372" y="790" type="line"/>
      <point x="350" y="775" type="line"/>
    </contour>
    <contour>
      <point x="50" y="0" type="line"/>
      <point x="190" y="698" type="line"/>
      <point x="226" y="698" type="line"/>
      <point x="86" y="0" type="line"/>
    </contour>
  </outline>
</glyph>
<glyph name="Ntilde" format="2">
  <advance width="681"/>
  <unicode hex="00D1"/>
  <outline>
    <contour>
      <point x="539" y="802" type="qcurve" smooth="yes"/>
      <point x="518" y="802"/>
      <point x="503" y="809" type="qcurve"/>
      <point x="488" y="818"/>
      <point x="467" y="831" type="qcurve"/>
      <point x="448" y="846"/>
      <point x="433" y="851" type="qcurve"/>
      <point x="420" y="857"/>
      <point x="402" y="857" type="qcurve"/>
      <point x="402" y="857"/>
      <point x="402" y="857" type="qcurve"/>
      <point x="402" y="857"/>
      <point x="401" y="857" type="qcurve"/>
      <point x="401" y="857"/>
      <point x="401" y="857" type="qcurve"/>
      <point x="401" y="857"/>
      <point x="401" y="857" type="qcurve"/>
      <point x="400" y="857" type="line"/>
      <point x="400" y="857"/>
      <point x="400" y="857" type="qcurve"/>
      <point x="400" y="857"/>
      <point x="400" y="857" type="qcurve"/>
      <point x="368" y="857"/>
      <point x="336" y="825" type="qcurve"/>
      <point x="321" y="843" type="line"/>
      <point x="364" y="886"/>
      <point x="409" y="886" type="qcurve"/>
      <point x="409" y="886"/>
      <point x="410" y="886" type="qcurve"/>
      <point x="410" y="886"/>
      <point x="410" y="886" type="qcurve"/>
      <point x="410" y="886"/>
      <point x="410" y="886" type="qcurve"/>
      <point x="411" y="886" type="line"/>
      <point x="411" y="886"/>
      <point x="411" y="886" type="qcurve"/>
      <point x="413" y="886" type="line"/>
      <point x="413" y="886"/>
      <point x="413" y="886" type="qcurve"/>
      <point x="414" y="886" type="line"/>
      <point x="432" y="886"/>
      <point x="445" y="879" type="qcurve"/>
      <point x="461" y="872"/>
      <point x="481" y="857" type="qcurve"/>
      <point x="502" y="843"/>
      <point x="515" y="837" type="qcurve" smooth="yes"/>
      <point x="530" y="831"/>
      <point x="546" y="831" type="qcurve" smooth="yes"/>
      <point x="582" y="831"/>
      <point x="612" y="863" type="qcurve"/>
      <point x="627" y="845" type="line"/>
      <point x="587" y="802"/>
    </contour>
    <contour>
      <point x="483" y="0" type="line"/>
      <point x="217" y="649" type="line"/>
      <point x="214" y="649" type="line"/>
      <point x="85" y="0" type="line"/>
      <point x="50" y="0" type="line"/>
      <point x="190" y="698" type="line"/>
      <point x="235" y="698" type="line"/>
      <point x="501" y="49" type="line"/>
      <point x="504" y="49" type="line"/>
      <point x="633" y="698" type="line"/>
      <point x="668" y="698" type="line"/>
      <point x="528" y="0" type="line"/>
    </contour>
  </outline>
</glyph>
<glyph name="Oacute" format="2">
  <advance width="663"/>
  <unicode hex="00D3"/>
  <outline>
    <contour>
      <point x="293" y="-12" type="qcurve"/>
      <point x="194" y="-12"/>
      <point x="130" y="49" type="qcurve"/>
      <point x="66" y="112"/>
      <point x="66" y="229" type="qcurve"/>
      <point x="66" y="332"/>
      <point x="101" y="446" type="qcurve"/>
      <point x="135" y="556"/>
      <point x="210" y="631" type="qcurve"/>
      <point x="292" y="710"/>
      <point x="403" y="710" type="qcurve"/>
      <point x="504" y="710"/>
      <point x="567" y="648" type="qcurve"/>
      <point x="630" y="586"/>
      <point x="630" y="469" type="qcurve"/>
      <point x="631" y="368"/>
      <point x="596" y="255" type="qcurve"/>
      <point x="562" y="142"/>
      <point x="487" y="67" type="qcurve"/>
      <point x="406" y="-12"/>
    </contour>
    <contour>
      <point x="295" y="21" type="qcurve"/>
      <point x="400" y="20"/>
      <point x="472" y="98" type="qcurve"/>
      <point x="546" y="176"/>
      <point x="572" y="309" type="qcurve"/>
      <point x="585" y="375" type="line"/>
      <point x="594" y="435"/>
      <point x="594" y="474" type="qcurve"/>
      <point x="595" y="568"/>
      <point x="545" y="622" type="qcurve"/>
      <point x="495" y="678"/>
      <point x="401" y="677" type="qcurve"/>
      <point x="300" y="678"/>
      <point x="225" y="600" type="qcurve"/>
      <point x="151" y="524"/>
      <point x="124" y="389" type="qcurve"/>
      <point x="111" y="323" type="line"/>
      <point x="102" y="266"/>
      <point x="102" y="224" type="qcurve"/>
      <point x="102" y="132"/>
      <point x="151" y="76" type="qcurve"/>
      <point x="202" y="22"/>
    </contour>
    <contour>
      <point x="407" y="779" type="line"/>
      <point x="541" y="936" type="line"/>
      <point x="570" y="917" type="line"/>
      <point x="429" y="764" type="line"/>
    </contour>
  </outline>
</glyph>
<glyph name="Otilde" format="2">
  <advance width="663"/>
  <unicode hex="00D5"/>
  <outline>
    <contour>
      <point x="293" y="-12" type="qcurve"/>
      <point x="194" y="-12"/>
      <point x="130" y="49" type="qcurve"/>
      <point x="66" y="112"/>
      <point x="66" y="229" type="qcurve"/>
      <point x="66" y="332"/>
      <point x="101" y="446" type="qcurve"/>
      <point x="135" y="556"/>
      <point x="210" y="631" type="qcurve"/>
      <point x="292" y="710"/>
      <point x="403" y="710" type="qcurve"/>
      <point x="504" y="710"/>
      <point x="567" y="648" type="qcurve"/>
      <point x="630" y="586"/>
      <point x="630" y="469" type="qcurve"/>
      <point x="631" y="368"/>
      <point x="596" y="255" type="qcurve"/>
      <point x="562" y="142"/>
      <point x="487" y="67" type="qcurve"/>
      <point x="406" y="-12"/>
    </contour>
    <contour>
      <point x="295" y="21" type="qcurve"/>
      <point x="400" y="20"/>
      <point x="472" y="98" type="qcurve"/>
      <point x="546" y="176"/>
      <point x="572" y="309" type="qcurve"/>
      <point x="585" y="375" type="line"/>
      <point x="594" y="435"/>
      <point x="594" y="474" type="qcurve"/>
      <point x="595" y="568"/>
      <point x="545" y="622" type="qcurve"/>
      <point x="495" y="678"/>
      <point x="401" y="677" type="qcurve"/>
      <point x="300" y="678"/>
      <point x="225" y="600" type="qcurve"/>
      <point x="151" y="524"/>
      <point x="124" y="389" type="qcurve"/>
      <point x="111" y="323" type="line"/>
      <point x="102" y="266"/>
      <point x="102" y="224" type="qcurve"/>
      <point x="102" y="132"/>
      <point x="151" y="76" type="qcurve"/>
      <point x="202" y="22"/>
    </contour>
    <contour>
      <point x="520" y="802" type="qcurve"/>
      <point x="500" y="802"/>
      <point x="484" y="809" type="qcurve"/>
      <point x="469" y="818"/>
      <point x="448" y="831" type="qcurve"/>
      <point x="428" y="846"/>
      <point x="414" y="851" type="qcurve"/>
      <point x="400" y="857"/>
      <point x="383" y="857" type="qcurve"/>
      <point x="350" y="858"/>
      <point x="317" y="825" type="qcurve"/>
      <point x="302" y="843" type="line"/>
      <point x="344" y="886"/>
      <point x="390" y="886" type="qcurve"/>
      <point x="411" y="887"/>
      <point x="426" y="879" type="qcurve"/>
      <point x="442" y="872"/>
      <point x="462" y="857" type="qcurve"/>
      <point x="482" y="843"/>
      <point x="496" y="837" type="qcurve"/>
      <point x="511" y="831"/>
      <point x="527" y="831" type="qcurve"/>
      <point x="563" y="831"/>
      <point x="593" y="863" type="qcurve"/>
      <point x="608" y="845" type="line"/>
      <point x="568" y="802"/>
    </contour>
  </outline>
</glyph>
<glyph name="multiply" format="2">
  <advance width="600"/>
  <unicode hex="00D7"/>
  <outline>
    <contour>
      <point x="77" y="128" type="line"/>
      <point x="288" y="307" type="line"/>
      <point x="149" y="483" type="line"/>
      <point x="174" y="504" type="line"/>
      <point x="312" y="328" type="line"/>
      <point x="522" y="504" type="line"/>
      <point x="540" y="481" type="line"/>
      <point x="331" y="304" type="line"/>
      <point x="470" y="126" type="line"/>
      <point x="446" y="106" type="line"/>
      <point x="307" y="283" type="line"/>
      <point x="96" y="105" type="line"/>
    </contour>
  </outline>
</glyph>
<glyph name="Ucircumflex" format="2">
  <advance width="643"/>
  <unicode hex="00DB"/>
  <outline>
    <contour>
      <point x="450" y="899" type="line"/>
      <point x="304" y="775" type="line"/>
      <point x="284" y="791" type="line"/>
      <point x="432" y="926" type="line"/>
      <point x="472" y="926" type="line"/>
      <point x="573" y="790" type="line"/>
      <point x="551" y="775" type="line"/>
    </contour>
    <contour>
      <point x="275" y="-12" type="qcurve" smooth="yes"/>
      <point x="184" y="-12"/>
      <point x="133" y="31" type="qcurve" smooth="yes"/>
      <point x="82" y="74"/>
      <point x="82" y="158" type="qcurve" smooth="yes"/>
      <point x="82" y="212"/>
      <point x="99" y="280" type="qcurve"/>
      <point x="182" y="698" type="line"/>
      <point x="218" y="698" type="line"/>
      <point x="133" y="271" type="line"/>
      <point x="118" y="202"/>
      <point x="118" y="160" type="qcurve" smooth="yes"/>
      <point x="118" y="95"/>
      <point x="157" y="58" type="qcurve" smooth="yes"/>
      <point x="196" y="22"/>
      <point x="277" y="21" type="qcurve"/>
      <point x="277" y="21"/>
      <point x="277" y="21" type="qcurve"/>
      <point x="277" y="21"/>
      <point x="278" y="21" type="qcurve"/>
      <point x="278" y="21"/>
      <point x="278" y="21" type="qcurve"/>
      <point x="279" y="21" type="line"/>
      <point x="279" y="21"/>
      <point x="279" y="21" type="qcurve"/>
      <point x="280" y="21" type="line"/>
      <point x="281" y="21"/>
      <point x="281" y="21" type="qcurve"/>
      <point x="385" y="21"/>
      <point x="436" y="77" type="qcurve"/>
      <point x="490" y="134"/>
      <point x="516" y="274" type="qcurve"/>
      <point x="601" y="698" type="line"/>
      <point x="637" y="698" type="line"/>
      <point x="552" y="272" type="line"/>
      <point x="524" y="114"/>
      <point x="462" y="51" type="qcurve" smooth="yes"/>
      <point x="400" y="-12"/>
    </contour>
  </outline>
</glyph>
<glyph name="Udieresis" format="2">
  <advance width="643"/>
  <unicode hex="00DC"/>
  <outline>
    <contour>
      <point x="342" y="814" type="qcurve" smooth="yes"/>
      <point x="318" y="814"/>
      <point x="317" y="835" type="qcurve"/>
      <point x="317" y="840"/>
      <point x="320" y="851" type="qcurve" smooth="yes"/>
      <point x="323" y="863"/>
      <point x="329" y="869" type="qcurve" smooth="yes"/>
      <point x="336" y="876"/>
      <point x="351" y="876" type="qcurve" smooth="yes"/>
      <point x="376" y="876"/>
      <point x="376" y="855" type="qcurve" smooth="yes"/>
      <point x="376" y="851"/>
      <point x="373" y="839" type="qcurve" smooth="yes"/>
      <point x="371" y="829"/>
      <point x="364" y="821" type="qcurve" smooth="yes"/>
      <point x="358" y="814"/>
    </contour>
    <contour>
      <point x="524" y="814" type="qcurve" smooth="yes"/>
      <point x="500" y="814"/>
      <point x="499" y="835" type="qcurve"/>
      <point x="499" y="840"/>
      <point x="502" y="851" type="qcurve" smooth="yes"/>
      <point x="505" y="863"/>
      <point x="511" y="869" type="qcurve" smooth="yes"/>
      <point x="518" y="876"/>
      <point x="533" y="876" type="qcurve" smooth="yes"/>
      <point x="558" y="876"/>
      <point x="558" y="855" type="qcurve" smooth="yes"/>
      <point x="558" y="851"/>
      <point x="555" y="839" type="qcurve" smooth="yes"/>
      <point x="553" y="829"/>
      <point x="546" y="821" type="qcurve" smooth="yes"/>
      <point x="540" y="814"/>
    </contour>
    <contour>
      <point x="275" y="-12" type="qcurve" smooth="yes"/>
      <point x="184" y="-12"/>
      <point x="133" y="31" type="qcurve" smooth="yes"/>
      <point x="82" y="74"/>
      <point x="82" y="158" type="qcurve" smooth="yes"/>
      <point x="82" y="212"/>
      <point x="99" y="280" type="qcurve"/>
      <point x="182" y="698" type="line"/>
      <point x="218" y="698" type="line"/>
      <point x="133" y="271" type="line"/>
      <point x="118" y="202"/>
      <point x="118" y="160" type="qcurve" smooth="yes"/>
      <point x="118" y="95"/>
      <point x="157" y="58" type="qcurve" smooth="yes"/>
      <point x="196" y="22"/>
      <point x="277" y="21" type="qcurve"/>
      <point x="277" y="21"/>
      <point x="277" y="21" type="qcurve"/>
      <point x="277" y="21"/>
      <point x="277" y="21" type="qcurve"/>
      <point x="277" y="21"/>
      <point x="277" y="21" type="qcurve"/>
      <point x="277" y="21"/>
      <point x="277" y="21" type="qcurve"/>
      <point x="277" y="21"/>
      <point x="277" y="21" type="qcurve"/>
      <point x="277" y="21"/>
      <point x="277" y="21" type="qcurve"/>
      <point x="277" y="21"/>
      <point x="278" y="21" type="qcurve"/>
      <point x="278" y="21"/>
      <point x="278" y="21" type="qcurve"/>
      <point x="279" y="21" type="line"/>
      <point x="279" y="21"/>
      <point x="279" y="21" type="qcurve"/>
      <point x="279" y="21"/>
      <point x="279" y="21" type="qcurve"/>
      <point x="280" y="21" type="line"/>
      <point x="280" y="21"/>
      <point x="280" y="21" type="qcurve"/>
      <point x="280" y="21"/>
      <point x="280" y="21" type="qcurve"/>
      <point x="280" y="21"/>
      <point x="281" y="21" type="qcurve"/>
      <point x="281" y="21"/>
      <point x="281" y="21" type="qcurve"/>
      <point x="281" y="21"/>
      <point x="281" y="21" type="qcurve"/>
      <point x="385" y="21"/>
      <point x="436" y="77" type="qcurve"/>
      <point x="490" y="134"/>
      <point x="516" y="274" type="qcurve"/>
      <point x="601" y="698" type="line"/>
      <point x="637" y="698" type="line"/>
      <point x="552" y="272" type="line"/>
      <point x="524" y="114"/>
      <point x="462" y="51" type="qcurve" smooth="yes"/>
      <point x="400" y="-12"/>
    </contour>
  </outline>
</glyph>
<glyph name="Yacute" format="2">
  <advance width="549"/>
  <unicode hex="00DD"/>
  <outline>
    <contour>
      <point x="349" y="779" type="line"/>
      <point x="483" y="936" type="line"/>
      <point x="512" y="917" type="line"/>
      <point x="371" y="764" type="line"/>
    </contour>
    <contour>
      <point x="205" y="0" type="line"/>
      <point x="263" y="289" type="line"/>
      <point x="108" y="698" type="line"/>
      <point x="145" y="698" type="line"/>
      <point x="285" y="329" type="line"/>
      <point x="289" y="329" type="line"/>
      <point x="577" y="698" type="line"/>
      <point x="619" y="698" type="line"/>
      <point x="299" y="289" type="line"/>
      <point x="241" y="0" type="line"/>
    </contour>
  </outline>
</glyph>
<glyph name="Thorn" format="2">
  <advance width="591"/>
  <unicode hex="00DE"/>
  <outline>
    <contour>
      <point x="50" y="0" type="line"/>
      <point x="190" y="698" type="line"/>
      <point x="226" y="698" type="line"/>
      <point x="195" y="545" type="line"/>
      <point x="410" y="545" type="line"/>
      <point x="488" y="546"/>
      <point x="527" y="502" type="qcurve"/>
      <point x="567" y="460"/>
      <point x="567" y="393" type="qcurve"/>
      <point x="568" y="288"/>
      <point x="510" y="225" type="qcurve"/>
      <point x="453" y="163"/>
      <point x="351" y="163" type="qcurve"/>
      <point x="119" y="163" type="line"/>
      <point x="86" y="0" type="line"/>
    </contour>
    <contour>
      <point x="355" y="195" type="line"/>
      <point x="428" y="195"/>
      <point x="468" y="231" type="qcurve"/>
      <point x="510" y="268"/>
      <point x="520" y="326" type="qcurve"/>
      <point x="526" y="356"/>
      <point x="528" y="372" type="qcurve"/>
      <point x="529" y="378" type="line"/>
      <point x="530" y="396" type="line"/>
      <point x="530" y="446"/>
      <point x="501" y="479" type="qcurve"/>
      <point x="473" y="513"/>
      <point x="407" y="513" type="qcurve"/>
      <point x="189" y="513" type="line"/>
      <point x="125" y="195" type="line"/>
    </contour>
  </outline>
</glyph>
<glyph name="aacute" format="2">
  <advance width="571"/>
  <unicode hex="00E1"/>
  <outline>
    <contour>
      <point x="305" y="601" type="line"/>
      <point x="439" y="758" type="line"/>
      <point x="468" y="739" type="line"/>
      <point x="327" y="587" type="line"/>
    </contour>
    <contour>
      <point x="220" y="-12" type="qcurve" smooth="yes"/>
      <point x="142" y="-12"/>
      <point x="101" y="42" type="qcurve"/>
      <point x="58" y="94"/>
      <point x="58" y="178" type="qcurve" smooth="yes"/>
      <point x="58" y="310"/>
      <point x="122" y="415" type="qcurve"/>
      <point x="154" y="465"/>
      <point x="200" y="492" type="qcurve" smooth="yes"/>
      <point x="248" y="520"/>
      <point x="308" y="520" type="qcurve" smooth="yes"/>
      <point x="368" y="520"/>
      <point x="406" y="493" type="qcurve" smooth="yes"/>
      <point x="445" y="466"/>
      <point x="459" y="417" type="qcurve"/>
      <point x="462" y="417" type="line"/>
      <point x="480" y="508" type="line"/>
      <point x="514" y="508" type="line"/>
      <point x="419" y="31" type="line"/>
      <point x="501" y="31" type="line"/>
      <point x="495" y="0" type="line"/>
      <point x="419" y="0" type="line"/>
      <point x="386" y="2"/>
      <point x="385" y="29" type="qcurve"/>
      <point x="386" y="38"/>
      <point x="386" y="43" type="qcurve"/>
      <point x="388" y="48"/>
      <point x="400" y="111" type="qcurve"/>
      <point x="397" y="111" type="line"/>
      <point x="366" y="54"/>
      <point x="324" y="21" type="qcurve" smooth="yes"/>
      <point x="282" y="-12"/>
    </contour>
    <contour>
      <point x="225" y="19" type="qcurve"/>
      <point x="290" y="19"/>
      <point x="334" y="61" type="qcurve"/>
      <point x="398" y="112"/>
      <point x="420" y="211" type="qcurve"/>
      <point x="447" y="344" type="line" smooth="yes"/>
      <point x="450" y="358"/>
      <point x="450" y="370" type="qcurve" smooth="yes"/>
      <point x="450" y="408"/>
      <point x="426" y="441" type="qcurve" smooth="yes"/>
      <point x="411" y="462"/>
      <point x="381" y="475" type="qcurve"/>
      <point x="353" y="489"/>
      <point x="314" y="489" type="qcurve"/>
      <point x="312" y="489"/>
      <point x="309" y="489" type="qcurve" smooth="yes"/>
      <point x="228" y="489"/>
      <point x="177" y="435" type="qcurve" smooth="yes"/>
      <point x="126" y="382"/>
      <point x="107" y="286" type="qcurve" smooth="yes"/>
      <point x="99" y="242" type="line"/>
      <point x="93" y="216"/>
      <point x="93" y="175" type="qcurve" smooth="yes"/>
      <point x="93" y="112"/>
      <point x="125" y="65" type="qcurve"/>
      <point x="161" y="20"/>
    </contour>
  </outline>
</glyph>
<glyph name="atilde" format="2">
  <advance width="571"/>
  <unicode hex="00E3"/>
  <outline>
    <contour>
      <point x="418" y="624" type="qcurve" smooth="yes"/>
      <point x="398" y="624"/>
      <point x="382" y="631" type="qcurve"/>
      <point x="367" y="640"/>
      <point x="346" y="653" type="qcurve"/>
      <point x="326" y="668"/>
      <point x="312" y="673" type="qcurve" smooth="yes"/>
      <point x="298" y="679"/>
      <point x="281" y="679" type="qcurve"/>
      <point x="280" y="679"/>
      <point x="279" y="679" type="qcurve"/>
      <point x="247" y="679"/>
      <point x="215" y="647" type="qcurve"/>
      <point x="200" y="665" type="line"/>
      <point x="242" y="708"/>
      <point x="288" y="708" type="qcurve"/>
      <point x="290" y="708"/>
      <point x="293" y="708" type="qcurve" smooth="yes"/>
      <point x="311" y="708"/>
      <point x="324" y="701" type="qcurve"/>
      <point x="340" y="694"/>
      <point x="360" y="679" type="qcurve" smooth="yes"/>
      <point x="380" y="665"/>
      <point x="394" y="659" type="qcurve" smooth="yes"/>
      <point x="409" y="653"/>
      <point x="425" y="653" type="qcurve" smooth="yes"/>
      <point x="461" y="653"/>
      <point x="491" y="685" type="qcurve"/>
      <point x="506" y="667" type="line"/>
      <point x="466" y="624"/>
    </contour>
    <contour>
      <point x="220" y="-12" type="qcurve" smooth="yes"/>
      <point x="142" y="-12"/>
      <point x="101" y="42" type="qcurve"/>
      <point x="58" y="94"/>
      <point x="58" y="178" type="qcurve" smooth="yes"/>
      <point x="58" y="310"/>
      <point x="122" y="415" type="qcurve"/>
      <point x="154" y="465"/>
      <point x="200" y="492" type="qcurve" smooth="yes"/>
      <point x="248" y="520"/>
      <point x="308" y="520" type="qcurve" smooth="yes"/>
      <point x="368" y="520"/>
      <point x="406" y="493" type="qcurve" smooth="yes"/>
      <point x="445" y="466"/>
      <point x="459" y="417" type="qcurve"/>
      <point x="462" y="417" type="line"/>
      <point x="480" y="508" type="line"/>
      <point x="514" y="508" type="line"/>
      <point x="419" y="31" type="line"/>
      <point x="501" y="31" type="line"/>
      <point x="495" y="0" type="line"/>
      <point x="419" y="0" type="line"/>
      <point x="386" y="2"/>
      <point x="385" y="29" type="qcurve"/>
      <point x="386" y="38"/>
      <point x="386" y="43" type="qcurve"/>
      <point x="388" y="48"/>
      <point x="400" y="111" type="qcurve"/>
      <point x="397" y="111" type="line"/>
      <point x="366" y="54"/>
      <point x="324" y="21" type="qcurve" smooth="yes"/>
      <point x="282" y="-12"/>
    </contour>
    <contour>
      <point x="225" y="19" type="qcurve"/>
      <point x="290" y="19"/>
      <point x="334" y="61" type="qcurve"/>
      <point x="398" y="112"/>
      <point x="420" y="211" type="qcurve"/>
      <point x="447" y="344" type="line" smooth="yes"/>
      <point x="450" y="358"/>
      <point x="450" y="370" type="qcurve" smooth="yes"/>
      <point x="450" y="408"/>
      <point x="426" y="441" type="qcurve" smooth="yes"/>
      <point x="411" y="462"/>
      <point x="381" y="475" type="qcurve"/>
      <point x="353" y="489"/>
      <point x="314" y="489" type="qcurve"/>
      <point x="312" y="489"/>
      <point x="309" y="489" type="qcurve" smooth="yes"/>
      <point x="228" y="489"/>
      <point x="177" y="435" type="qcurve" smooth="yes"/>
      <point x="126" y="382"/>
      <point x="107" y="286" type="qcurve" smooth="yes"/>
      <point x="99" y="242" type="line"/>
      <point x="93" y="216"/>
      <point x="93" y="175" type="qcurve" smooth="yes"/>
      <point x="93" y="112"/>
      <point x="125" y="65" type="qcurve"/>
      <point x="161" y="20"/>
    </contour>
  </outline>
</glyph>
<glyph name="adieresis" format="2">
  <advance width="571"/>
  <unicode hex="00E4"/>
  <outline>
    <contour>
      <point x="260" y="636" type="qcurve" smooth="yes"/>
      <point x="236" y="636"/>
      <point x="235" y="657" type="qcurve"/>
      <point x="235" y="662"/>
      <point x="238" y="673" type="qcurve" smooth="yes"/>
      <point x="241" y="685"/>
      <point x="247" y="691" type="qcurve" smooth="yes"/>
      <point x="254" y="698"/>
      <point x="269" y="698" type="qcurve" smooth="yes"/>
      <point x="294" y="698"/>
      <point x="294" y="677" type="qcurve" smooth="yes"/>
      <point x="294" y="673"/>
      <point x="291" y="661" type="qcurve" smooth="yes"/>
      <point x="289" y="651"/>
      <point x="282" y="643" type="qcurve" smooth="yes"/>
      <point x="276" y="636"/>
    </contour>
    <contour>
      <point x="442" y="636" type="qcurve" smooth="yes"/>
      <point x="418" y="636"/>
      <point x="417" y="657" type="qcurve"/>
      <point x="417" y="662"/>
      <point x="420" y="673" type="qcurve" smooth="yes"/>
      <point x="423" y="685"/>
      <point x="429" y="691" type="qcurve" smooth="yes"/>
      <point x="436" y="698"/>
      <point x="451" y="698" type="qcurve" smooth="yes"/>
      <point x="476" y="698"/>
      <point x="476" y="677" type="qcurve" smooth="yes"/>
      <point x="476" y="673"/>
      <point x="473" y="661" type="qcurve" smooth="yes"/>
      <point x="471" y="651"/>
      <point x="464" y="643" type="qcurve" smooth="yes"/>
      <point x="458" y="636"/>
    </contour>
    <contour>
      <point x="220" y="-12" type="qcurve" smooth="yes"/>
      <point x="142" y="-12"/>
      <point x="101" y="42" type="qcurve"/>
      <point x="58" y="94"/>
      <point x="58" y="178" type="qcurve" smooth="yes"/>
      <point x="58" y="310"/>
      <point x="122" y="415" type="qcurve"/>
      <point x="154" y="465"/>
      <point x="200" y="492" type="qcurve" smooth="yes"/>
      <point x="248" y="520"/>
      <point x="308" y="520" type="qcurve" smooth="yes"/>
      <point x="368" y="520"/>
      <point x="406" y="493" type="qcurve" smooth="yes"/>
      <point x="445" y="466"/>
      <point x="459" y="417" type="qcurve"/>
      <point x="462" y="417" type="line"/>
      <point x="480" y="508" type="line"/>
      <point x="514" y="508" type="line"/>
      <point x="419" y="31" type="line"/>
      <point x="501" y="31" type="line"/>
      <point x="495" y="0" type="line"/>
      <point x="419" y="0" type="line"/>
      <point x="386" y="2"/>
      <point x="385" y="29" type="qcurve"/>
      <point x="386" y="38"/>
      <point x="386" y="43" type="qcurve"/>
      <point x="388" y="48"/>
      <point x="400" y="111" type="qcurve"/>
      <point x="397" y="111" type="line"/>
      <point x="366" y="54"/>
      <point x="324" y="21" type="qcurve" smooth="yes"/>
      <point x="282" y="-12"/>
    </contour>
    <contour>
      <point x="225" y="19" type="qcurve"/>
      <point x="290" y="19"/>
      <point x="334" y="61" type="qcurve"/>
      <point x="398" y="112"/>
      <point x="420" y="211" type="qcurve"/>
      <point x="447" y="344" type="line" smooth="yes"/>
      <point x="450" y="358"/>
      <point x="450" y="370" type="qcurve" smooth="yes"/>
      <point x="450" y="408"/>
      <point x="426" y="441" type="qcurve" smooth="yes"/>
      <point x="411" y="462"/>
      <point x="381" y="475" type="qcurve"/>
      <point x="353" y="489"/>
      <point x="314" y="489" type="qcurve"/>
      <point x="312" y="489"/>
      <point x="309" y="489" type="qcurve" smooth="yes"/>
      <point x="228" y="489"/>
      <point x="177" y="435" type="qcurve" smooth="yes"/>
      <point x="126" y="382"/>
      <point x="107" y="286" type="qcurve" smooth="yes"/>
      <point x="99" y="242" type="line"/>
      <point x="93" y="216"/>
      <point x="93" y="175" type="qcurve" smooth="yes"/>
      <point x="93" y="112"/>
      <point x="125" y="65" type="qcurve"/>
      <point x="161" y="20"/>
    </contour>
  </outline>
</glyph>
<glyph name="aring" format="2">
  <advance width="571"/>
  <unicode hex="00E5"/>
  <outline>
    <contour>
      <point x="220" y="-12" type="qcurve"/>
      <point x="142" y="-12"/>
      <point x="101" y="42" type="qcurve"/>
      <point x="58" y="94"/>
      <point x="58" y="178" type="qcurve"/>
      <point x="58" y="310"/>
      <point x="122" y="415" type="qcurve"/>
      <point x="154" y="465"/>
      <point x="200" y="492" type="qcurve"/>
      <point x="248" y="520"/>
      <point x="308" y="520" type="qcurve"/>
      <point x="368" y="520"/>
      <point x="406" y="493" type="qcurve"/>
      <point x="445" y="466"/>
      <point x="459" y="417" type="qcurve"/>
      <point x="462" y="417" type="line"/>
      <point x="480" y="508" type="line"/>
      <point x="514" y="508" type="line"/>
      <point x="419" y="31" type="line"/>
      <point x="501" y="31" type="line"/>
      <point x="495" y="0" type="line"/>
      <point x="419" y="0" type="line"/>
      <point x="386" y="2"/>
      <point x="385" y="29" type="qcurve"/>
      <point x="386" y="38"/>
      <point x="386" y="43" type="qcurve"/>
      <point x="388" y="48"/>
      <point x="400" y="111" type="qcurve"/>
      <point x="397" y="111" type="line"/>
      <point x="366" y="54"/>
      <point x="324" y="21" type="qcurve"/>
      <point x="282" y="-12"/>
    </contour>
    <contour>
      <point x="225" y="19" type="qcurve"/>
      <point x="290" y="19"/>
      <point x="334" y="61" type="qcurve"/>
      <point x="398" y="112"/>
      <point x="420" y="211" type="qcurve"/>
      <point x="447" y="344" type="line"/>
      <point x="450" y="358"/>
      <point x="450" y="370" type="qcurve"/>
      <point x="450" y="408"/>
      <point x="426" y="441" type="qcurve"/>
      <point x="411" y="462"/>
      <point x="381" y="475" type="qcurve"/>
      <point x="351" y="490"/>
      <point x="309" y="489" type="qcurve"/>
      <point x="228" y="489"/>
      <point x="177" y="435" type="qcurve"/>
      <point x="126" y="382"/>
      <point x="107" y="286" type="qcurve"/>
      <point x="99" y="242" type="line"/>
      <point x="93" y="216"/>
      <point x="93" y="175" type="qcurve"/>
      <point x="93" y="112"/>
      <point x="125" y="65" type="qcurve"/>
      <point x="161" y="20"/>
    </contour>
    <contour>
      <point x="342" y="586" type="qcurve"/>
      <point x="298" y="586"/>
      <point x="278" y="611" type="qcurve"/>
      <point x="260" y="637"/>
      <point x="259" y="664" type="qcurve"/>
      <point x="259" y="716"/>
      <point x="289" y="747" type="qcurve"/>
      <point x="319" y="780"/>
      <point x="370" y="779" type="qcurve"/>
      <point x="414" y="780"/>
      <point x="433" y="755" type="qcurve"/>
      <point x="454" y="731"/>
      <point x="453" y="701" type="qcurve"/>
      <point x="453" y="650"/>
      <point x="423" y="618" type="qcurve"/>
      <point x="393" y="586"/>
    </contour>
    <contour>
      <point x="346" y="611" type="qcurve"/>
      <point x="375" y="612"/>
      <point x="395" y="627" type="qcurve"/>
      <point x="416" y="643"/>
      <point x="422" y="675" type="qcurve"/>
      <point x="425" y="687"/>
      <point x="425" y="691" type="qcurve"/>
      <point x="426" y="697"/>
      <point x="426" y="703" type="qcurve"/>
      <point x="426" y="754"/>
      <point x="366" y="754" type="qcurve"/>
      <point x="338" y="754"/>
      <point x="317" y="738" type="qcurve"/>
      <point x="296" y="723"/>
      <point x="290" y="690" type="qcurve"/>
      <point x="290" y="678"/>
      <point x="288" y="673" type="qcurve"/>
      <point x="286" y="668"/>
      <point x="286" y="662" type="qcurve"/>
      <point x="289" y="611"/>
    </contour>
  </outline>
</glyph>
<glyph name="ccedilla" format="2">
  <advance width="481"/>
  <unicode hex="00E7"/>
  <outline>
    <contour>
      <point x="204" y="-203" type="qcurve"/>
      <point x="144" y="-203"/>
      <point x="123" y="-170" type="qcurve"/>
      <point x="143" y="-150" type="line"/>
      <point x="162" y="-177"/>
      <point x="204" y="-177" type="qcurve" smooth="yes"/>
      <point x="234" y="-177"/>
      <point x="252" y="-162" type="qcurve" smooth="yes"/>
      <point x="271" y="-147"/>
      <point x="271" y="-126" type="qcurve"/>
      <point x="271" y="-126"/>
      <point x="271" y="-126" type="qcurve"/>
      <point x="271" y="-126"/>
      <point x="271" y="-125" type="qcurve"/>
      <point x="271" y="-125"/>
      <point x="271" y="-125" type="qcurve"/>
      <point x="271" y="-125"/>
      <point x="271" y="-125" type="qcurve"/>
      <point x="271" y="-125"/>
      <point x="271" y="-125" type="qcurve"/>
      <point x="271" y="-124" type="line"/>
      <point x="271" y="-124"/>
      <point x="271" y="-124" type="qcurve"/>
      <point x="271" y="-124"/>
      <point x="271" y="-123" type="qcurve"/>
      <point x="271" y="-123"/>
      <point x="271" y="-123" type="qcurve"/>
      <point x="271" y="-123"/>
      <point x="271" y="-123" type="qcurve"/>
      <point x="271" y="-123"/>
      <point x="271" y="-123" type="qcurve"/>
      <point x="271" y="-121" type="line"/>
      <point x="271" y="-105"/>
      <point x="260" y="-97" type="qcurve"/>
      <point x="248" y="-86"/>
      <point x="218" y="-84" type="qcurve" smooth="yes"/>
      <point x="183" y="-82" type="line"/>
      <point x="213" y="-12" type="line"/>
      <point x="138" y="-4"/>
      <point x="98" y="50" type="qcurve" smooth="yes"/>
      <point x="58" y="106"/>
      <point x="58" y="189" type="qcurve" smooth="yes"/>
      <point x="58" y="327"/>
      <point x="122" y="423" type="qcurve" smooth="yes"/>
      <point x="186" y="520"/>
      <point x="301" y="520" type="qcurve" smooth="yes"/>
      <point x="364" y="520"/>
      <point x="403" y="488" type="qcurve" smooth="yes"/>
      <point x="444" y="456"/>
      <point x="456" y="404" type="qcurve"/>
      <point x="427" y="393" type="line"/>
      <point x="416" y="441"/>
      <point x="382" y="465" type="qcurve"/>
      <point x="349" y="490"/>
      <point x="299" y="490" type="qcurve" smooth="yes"/>
      <point x="227" y="490"/>
      <point x="176" y="440" type="qcurve" smooth="yes"/>
      <point x="126" y="390"/>
      <point x="108" y="301" type="qcurve" smooth="yes"/>
      <point x="94" y="229"/>
      <point x="93" y="215" type="qcurve" smooth="yes"/>
      <point x="92" y="203"/>
      <point x="92" y="185" type="qcurve" smooth="yes"/>
      <point x="92" y="116"/>
      <point x="126" y="67" type="qcurve" smooth="yes"/>
      <point x="160" y="19"/>
      <point x="228" y="19" type="qcurve"/>
      <point x="282" y="20"/>
      <point x="323" y="48" type="qcurve" smooth="yes"/>
      <point x="365" y="78"/>
      <point x="398" y="131" type="qcurve"/>
      <point x="426" y="117" type="line"/>
      <point x="392" y="60"/>
      <point x="346" y="26" type="qcurve" smooth="yes"/>
      <point x="300" y="-8"/>
      <point x="237" y="-12" type="qcurve"/>
      <point x="213" y="-70" type="line"/>
      <point x="215" y="-72" type="line"/>
      <point x="221" y="-71" type="line" smooth="yes"/>
      <point x="231" y="-69"/>
      <point x="239" y="-69" type="qcurve"/>
      <point x="240" y="-69" type="line"/>
      <point x="240" y="-69"/>
      <point x="240" y="-69" type="qcurve"/>
      <point x="241" y="-69" type="line"/>
      <point x="241" y="-69"/>
      <point x="241" y="-69" type="qcurve"/>
      <point x="241" y="-69"/>
      <point x="241" y="-69" type="qcurve"/>
      <point x="244" y="-69" type="line" smooth="yes"/>
      <point x="302" y="-69"/>
      <point x="302" y="-123" type="qcurve" smooth="yes"/>
      <point x="302" y="-156"/>
      <point x="276" y="-180" type="qcurve"/>
      <point x="249" y="-202"/>
    </contour>
  </outline>
</glyph>
<glyph name="eacute" format="2">
  <advance width="506"/>
  <unicode hex="00E9"/>
  <outline>
    <contour>
      <point x="239" y="-12" type="qcurve"/>
      <point x="152" y="-12"/>
      <point x="105" y="38" type="qcurve"/>
      <point x="58" y="89"/>
      <point x="58" y="191" type="qcurve"/>
      <point x="58" y="328"/>
      <point x="129" y="424" type="qcurve"/>
      <point x="162" y="468"/>
      <point x="208" y="494" type="qcurve"/>
      <point x="256" y="520"/>
      <point x="311" y="520" type="qcurve"/>
      <point x="381" y="520"/>
      <point x="426" y="487" type="qcurve"/>
      <point x="471" y="454"/>
      <point x="471" y="394" type="qcurve"/>
      <point x="471" y="328"/>
      <point x="402" y="286" type="qcurve"/>
      <point x="326" y="238"/>
      <point x="95" y="230" type="qcurve"/>
      <point x="92" y="198"/>
      <point x="92" y="187" type="qcurve"/>
      <point x="92" y="19"/>
      <point x="240" y="19" type="qcurve"/>
      <point x="300" y="19"/>
      <point x="345" y="49" type="qcurve"/>
      <point x="391" y="80"/>
      <point x="421" y="134" type="qcurve"/>
      <point x="448" y="117" type="line"/>
      <point x="370" y="-12"/>
    </contour>
    <contour>
      <point x="99" y="259" type="line"/>
      <point x="306" y="265"/>
      <point x="373" y="304" type="qcurve"/>
      <point x="408" y="322"/>
      <point x="421" y="345" type="qcurve"/>
      <point x="436" y="368"/>
      <point x="435" y="394" type="qcurve"/>
      <point x="436" y="438"/>
      <point x="404" y="464" type="qcurve"/>
      <point x="372" y="490"/>
      <point x="307" y="490" type="qcurve"/>
      <point x="230" y="491"/>
      <point x="175" y="432" type="qcurve"/>
      <point x="121" y="374"/>
      <point x="103" y="279" type="qcurve"/>
    </contour>
    <contour>
      <point x="293" y="601" type="line"/>
      <point x="427" y="758" type="line"/>
      <point x="456" y="739" type="line"/>
      <point x="315" y="587" type="line"/>
    </contour>
  </outline>
</glyph>
<glyph name="edieresis" format="2">
  <advance width="506"/>
  <unicode hex="00EB"/>
  <outline>
    <contour>
      <point x="248" y="636" type="qcurve" smooth="yes"/>
      <point x="224" y="636"/>
      <point x="223" y="657" type="qcurve"/>
      <point x="223" y="662"/>
      <point x="226" y="673" type="qcurve" smooth="yes"/>
      <point x="229" y="685"/>
      <point x="235" y="691" type="qcurve" smooth="yes"/>
      <point x="242" y="698"/>
      <point x="257" y="698" type="qcurve" smooth="yes"/>
      <point x="282" y="698"/>
      <point x="282" y="677" type="qcurve" smooth="yes"/>
      <point x="282" y="673"/>
      <point x="279" y="661" type="qcurve" smooth="yes"/>
      <point x="277" y="651"/>
      <point x="270" y="643" type="qcurve" smooth="yes"/>
      <point x="264" y="636"/>
    </contour>
    <contour>
      <point x="430" y="636" type="qcurve" smooth="yes"/>
      <point x="406" y="636"/>
      <point x="405" y="657" type="qcurve"/>
      <point x="405" y="662"/>
      <point x="408" y="673" type="qcurve" smooth="yes"/>
      <point x="411" y="685"/>
      <point x="417" y="691" type="qcurve" smooth="yes"/>
      <point x="424" y="698"/>
      <point x="439" y="698" type="qcurve" smooth="yes"/>
      <point x="464" y="698"/>
      <point x="464" y="677" type="qcurve" smooth="yes"/>
      <point x="464" y="673"/>
      <point x="461" y="661" type="qcurve" smooth="yes"/>
      <point x="459" y="651"/>
      <point x="452" y="643" type="qcurve" smooth="yes"/>
      <point x="446" y="636"/>
    </contour>
    <contour>
      <point x="239" y="-12" type="qcurve" smooth="yes"/>
      <point x="152" y="-12"/>
      <point x="105" y="38" type="qcurve" smooth="yes"/>
      <point x="58" y="89"/>
      <point x="58" y="191" type="qcurve" smooth="yes"/>
      <point x="58" y="328"/>
      <point x="129" y="424" type="qcurve" smooth="yes"/>
      <point x="162" y="468"/>
      <point x="208" y="494" type="qcurve" smooth="yes"/>
      <point x="256" y="520"/>
      <point x="311" y="520" type="qcurve" smooth="yes"/>
      <point x="381" y="520"/>
      <point x="426" y="487" type="qcurve" smooth="yes"/>
      <point x="471" y="454"/>
      <point x="471" y="394" type="qcurve" smooth="yes"/>
      <point x="471" y="328"/>
      <point x="402" y="286" type="qcurve"/>
      <point x="326" y="238"/>
      <point x="95" y="230" type="qcurve"/>
      <point x="92" y="198"/>
      <point x="92" y="187" type="qcurve" smooth="yes"/>
      <point x="92" y="19"/>
      <point x="240" y="19" type="qcurve" smooth="yes"/>
      <point x="300" y="19"/>
      <point x="345" y="49" type="qcurve" smooth="yes"/>
      <point x="391" y="80"/>
      <point x="421" y="134" type="qcurve"/>
      <point x="448" y="117" type="line"/>
      <point x="370" y="-12"/>
    </contour>
    <contour>
      <point x="99" y="259" type="line"/>
      <point x="306" y="265"/>
      <point x="373" y="304" type="qcurve"/>
      <point x="408" y="322"/>
      <point x="421" y="345" type="qcurve"/>
      <point x="435" y="367"/>
      <point x="435" y="391" type="qcurve"/>
      <point x="435" y="391"/>
      <point x="435" y="391" type="qcurve"/>
      <point x="435" y="391"/>
      <point x="435" y="392" type="qcurve"/>
      <point x="435" y="392"/>
      <point x="435" y="392" type="qcurve"/>
      <point x="435" y="392"/>
      <point x="435" y="392" type="qcurve"/>
      <point x="435" y="392"/>
      <point x="435" y="392" type="qcurve"/>
      <point x="435" y="392"/>
      <point x="435" y="392" type="qcurve"/>
      <point x="435" y="392"/>
      <point x="435" y="392" type="qcurve"/>
      <point x="435" y="392"/>
      <point x="435" y="392" type="qcurve"/>
      <point x="435" y="392"/>
      <point x="435" y="392" type="qcurve"/>
      <point x="435" y="394" type="line"/>
      <point x="435" y="394"/>
      <point x="435" y="394" type="qcurve"/>
      <point x="435" y="394"/>
      <point x="435" y="394" type="qcurve"/>
      <point x="435" y="394"/>
      <point x="435" y="394" type="qcurve"/>
      <point x="435" y="394"/>
      <point x="435" y="395" type="qcurve"/>
      <point x="435" y="395"/>
      <point x="435" y="395" type="qcurve"/>
      <point x="435" y="395"/>
      <point x="435" y="395" type="qcurve"/>
      <point x="435" y="395"/>
      <point x="435" y="395" type="qcurve"/>
      <point x="435" y="395"/>
      <point x="435" y="395" type="qcurve"/>
      <point x="435" y="395"/>
      <point x="435" y="395" type="qcurve"/>
      <point x="435" y="395"/>
      <point x="435" y="395" type="qcurve"/>
      <point x="435" y="395"/>
      <point x="435" y="395" type="qcurve"/>
      <point x="435" y="395"/>
      <point x="435" y="395" type="qcurve"/>
      <point x="435" y="397" type="line"/>
      <point x="435" y="397"/>
      <point x="435" y="397" type="qcurve"/>
      <point x="435" y="397"/>
      <point x="435" y="397" type="qcurve"/>
      <point x="435" y="397"/>
      <point x="435" y="397" type="qcurve"/>
      <point x="435" y="439"/>
      <point x="404" y="464" type="qcurve" smooth="yes"/>
      <point x="372" y="490"/>
      <point x="307" y="490" type="qcurve"/>
      <point x="307" y="490"/>
      <point x="307" y="490" type="qcurve"/>
      <point x="307" y="490"/>
      <point x="307" y="490" type="qcurve"/>
      <point x="307" y="490"/>
      <point x="307" y="490" type="qcurve"/>
      <point x="307" y="490"/>
      <point x="306" y="490" type="qcurve"/>
      <point x="306" y="490"/>
      <point x="306" y="490" type="qcurve"/>
      <point x="306" y="490"/>
      <point x="306" y="490" type="qcurve"/>
      <point x="306" y="490"/>
      <point x="306" y="490" type="qcurve"/>
      <point x="306" y="490"/>
      <point x="306" y="490" type="qcurve"/>
      <point x="305" y="490" type="line"/>
      <point x="305" y="490"/>
      <point x="305" y="490" type="qcurve"/>
      <point x="304" y="490"/>
      <point x="304" y="490" type="qcurve"/>
      <point x="304" y="490"/>
      <point x="304" y="490" type="qcurve"/>
      <point x="304" y="490"/>
      <point x="304" y="490" type="qcurve"/>
      <point x="304" y="490"/>
      <point x="304" y="490" type="qcurve"/>
      <point x="229" y="490"/>
      <point x="175" y="432" type="qcurve" smooth="yes"/>
      <point x="121" y="374"/>
      <point x="103" y="279" type="qcurve" smooth="yes"/>
    </contour>
  </outline>
</glyph>
<glyph name="igrave" format="2">
  <advance width="242"/>
  <unicode hex="00EC"/>
  <outline>
    <contour>
      <point x="89" y="0" type="line"/>
      <point x="56" y="0"/>
      <point x="56" y="28" type="qcurve"/>
      <point x="56" y="37"/>
      <point x="150" y="508" type="qcurve"/>
      <point x="184" y="508" type="line"/>
      <point x="89" y="31" type="line"/>
      <point x="171" y="31" type="line"/>
      <point x="165" y="0" type="line"/>
    </contour>
    <contour>
      <point x="108" y="741" type="line"/>
      <point x="139" y="757" type="line"/>
      <point x="215" y="598" type="line"/>
      <point x="192" y="587" type="line"/>
    </contour>
  </outline>
</glyph>
<glyph name="iacute" format="2">
  <advance width="242"/>
  <unicode hex="00ED"/>
  <outline>
    <contour>
      <point x="150" y="601" type="line"/>
      <point x="284" y="758" type="line"/>
      <point x="313" y="739" type="line"/>
      <point x="172" y="587" type="line"/>
    </contour>
    <contour>
      <point x="89" y="0" type="line" smooth="yes"/>
      <point x="56" y="0"/>
      <point x="56" y="28" type="qcurve" smooth="yes"/>
      <point x="56" y="37"/>
      <point x="150" y="508" type="qcurve"/>
      <point x="184" y="508" type="line"/>
      <point x="89" y="31" type="line"/>
      <point x="171" y="31" type="line"/>
      <point x="165" y="0" type="line"/>
    </contour>
  </outline>
</glyph>
<glyph name="icircumflex" format="2">
  <advance width="242"/>
  <unicode hex="00EE"/>
  <outline>
    <contour>
      <point x="89" y="0" type="line"/>
      <point x="56" y="0"/>
      <point x="56" y="28" type="qcurve"/>
      <point x="56" y="37"/>
      <point x="150" y="508" type="qcurve"/>
      <point x="184" y="508" type="line"/>
      <point x="89" y="31" type="line"/>
      <point x="171" y="31" type="line"/>
      <point x="165" y="0" type="line"/>
    </contour>
    <contour>
      <point x="212" y="721" type="line"/>
      <point x="67" y="597" type="line"/>
      <point x="47" y="614" type="line"/>
      <point x="195" y="748" type="line"/>
      <point x="235" y="748" type="line"/>
      <point x="336" y="612" type="line"/>
      <point x="314" y="597" type="line"/>
    </contour>
  </outline>
</glyph>
<glyph name="ntilde" format="2">
  <advance width="552"/>
  <unicode hex="00F1"/>
  <outline>
    <contour>
      <point x="407" y="0" type="line"/>
      <point x="375" y="0"/>
      <point x="375" y="28" type="qcurve"/>
      <point x="375" y="36"/>
      <point x="432" y="320" type="qcurve"/>
      <point x="438" y="352"/>
      <point x="438" y="382" type="qcurve"/>
      <point x="438" y="490"/>
      <point x="332" y="489" type="qcurve"/>
      <point x="260" y="489"/>
      <point x="208" y="432" type="qcurve"/>
      <point x="160" y="378"/>
      <point x="144" y="306" type="qcurve"/>
      <point x="83" y="0" type="line"/>
      <point x="49" y="0" type="line"/>
      <point x="151" y="508" type="line"/>
      <point x="185" y="508" type="line"/>
      <point x="164" y="404" type="line"/>
      <point x="167" y="404" type="line"/>
      <point x="196" y="460"/>
      <point x="238" y="490" type="qcurve"/>
      <point x="280" y="520"/>
      <point x="341" y="520" type="qcurve"/>
      <point x="406" y="520"/>
      <point x="439" y="485" type="qcurve"/>
      <point x="473" y="449"/>
      <point x="473" y="386" type="qcurve"/>
      <point x="474" y="356"/>
      <point x="466" y="320" type="qcurve"/>
      <point x="408" y="31" type="line"/>
      <point x="490" y="31" type="line"/>
      <point x="484" y="0" type="line"/>
    </contour>
    <contour>
      <point x="423" y="624" type="qcurve"/>
      <point x="402" y="624"/>
      <point x="387" y="631" type="qcurve"/>
      <point x="372" y="640"/>
      <point x="351" y="653" type="qcurve"/>
      <point x="332" y="668"/>
      <point x="317" y="673" type="qcurve"/>
      <point x="304" y="679"/>
      <point x="286" y="679" type="qcurve"/>
      <point x="253" y="680"/>
      <point x="220" y="647" type="qcurve"/>
      <point x="205" y="665" type="line"/>
      <point x="248" y="708"/>
      <point x="293" y="708" type="qcurve"/>
      <point x="314" y="709"/>
      <point x="329" y="701" type="qcurve"/>
      <point x="345" y="694"/>
      <point x="365" y="679" type="qcurve"/>
      <point x="386" y="665"/>
      <point x="399" y="659" type="qcurve"/>
      <point x="414" y="653"/>
      <point x="430" y="653" type="qcurve"/>
      <point x="466" y="653"/>
      <point x="496" y="685" type="qcurve"/>
      <point x="511" y="667" type="line"/>
      <point x="471" y="624"/>
    </contour>
  </outline>
</glyph>
<glyph name="ograve" format="2">
  <advance width="538"/>
  <unicode hex="00F2"/>
  <outline>
    <contour>
      <point x="248" y="741" type="line"/>
      <point x="279" y="757" type="line"/>
      <point x="355" y="598" type="line"/>
      <point x="332" y="587" type="line"/>
    </contour>
    <contour>
      <point x="227" y="-12" type="qcurve" smooth="yes"/>
      <point x="149" y="-12"/>
      <point x="103" y="41" type="qcurve" smooth="yes"/>
      <point x="58" y="95"/>
      <point x="57" y="176" type="qcurve"/>
      <point x="57" y="314"/>
      <point x="123" y="417" type="qcurve"/>
      <point x="192" y="520"/>
      <point x="311" y="520" type="qcurve"/>
      <point x="313" y="520"/>
      <point x="314" y="520" type="qcurve"/>
      <point x="393" y="520"/>
      <point x="436" y="468" type="qcurve"/>
      <point x="481" y="416"/>
      <point x="481" y="332" type="qcurve"/>
      <point x="481" y="330"/>
      <point x="481" y="328" type="qcurve"/>
      <point x="481" y="192"/>
      <point x="416" y="91" type="qcurve"/>
      <point x="384" y="44"/>
      <point x="336" y="16" type="qcurve" smooth="yes"/>
      <point x="288" y="-12"/>
    </contour>
    <contour>
      <point x="231" y="19" type="qcurve" smooth="yes"/>
      <point x="388" y="19"/>
      <point x="433" y="223" type="qcurve"/>
      <point x="442" y="271" type="line" smooth="yes"/>
      <point x="447" y="297"/>
      <point x="447" y="327" type="qcurve" smooth="yes"/>
      <point x="447" y="332"/>
      <point x="447" y="337" type="qcurve" smooth="yes"/>
      <point x="447" y="400"/>
      <point x="413" y="444" type="qcurve" smooth="yes"/>
      <point x="380" y="489"/>
      <point x="307" y="489" type="qcurve" smooth="yes"/>
      <point x="151" y="489"/>
      <point x="105" y="285" type="qcurve"/>
      <point x="96" y="237" type="line"/>
      <point x="92" y="207"/>
      <point x="91" y="171" type="qcurve"/>
      <point x="92" y="108"/>
      <point x="125" y="63" type="qcurve" smooth="yes"/>
      <point x="159" y="19"/>
    </contour>
  </outline>
</glyph>
<glyph name="otilde" format="2">
  <advance width="538"/>
  <unicode hex="00F5"/>
  <outline>
    <contour>
      <point x="403" y="624" type="qcurve" smooth="yes"/>
      <point x="382" y="624"/>
      <point x="367" y="631" type="qcurve"/>
      <point x="352" y="640"/>
      <point x="331" y="653" type="qcurve"/>
      <point x="312" y="668"/>
      <point x="297" y="673" type="qcurve"/>
      <point x="284" y="679"/>
      <point x="266" y="679" type="qcurve"/>
      <point x="266" y="679"/>
      <point x="266" y="679" type="qcurve"/>
      <point x="266" y="679"/>
      <point x="266" y="679" type="qcurve"/>
      <point x="266" y="679"/>
      <point x="266" y="679" type="qcurve"/>
      <point x="266" y="679"/>
      <point x="266" y="679" type="qcurve"/>
      <point x="266" y="679"/>
      <point x="266" y="679" type="qcurve"/>
      <point x="266" y="679"/>
      <point x="266" y="679" type="qcurve"/>
      <point x="266" y="679"/>
      <point x="266" y="679" type="qcurve"/>
      <point x="266" y="679"/>
      <point x="266" y="679" type="qcurve"/>
      <point x="264" y="679" type="line"/>
      <point x="232" y="679"/>
      <point x="200" y="647" type="qcurve"/>
      <point x="185" y="665" type="line"/>
      <point x="228" y="708"/>
      <point x="273" y="708" type="qcurve"/>
      <point x="273" y="708"/>
      <point x="273" y="708" type="qcurve"/>
      <point x="273" y="708"/>
      <point x="273" y="708" type="qcurve"/>
      <point x="273" y="708"/>
      <point x="274" y="708" type="qcurve"/>
      <point x="274" y="708"/>
      <point x="274" y="708" type="qcurve"/>
      <point x="274" y="708"/>
      <point x="274" y="708" type="qcurve"/>
      <point x="274" y="708"/>
      <point x="274" y="708" type="qcurve"/>
      <point x="274" y="708"/>
      <point x="274" y="708" type="qcurve"/>
      <point x="274" y="708"/>
      <point x="274" y="708" type="qcurve"/>
      <point x="274" y="708"/>
      <point x="275" y="708" type="qcurve"/>
      <point x="275" y="708"/>
      <point x="275" y="708" type="qcurve"/>
      <point x="275" y="708"/>
      <point x="275" y="708" type="qcurve"/>
      <point x="275" y="708"/>
      <point x="275" y="708" type="qcurve"/>
      <point x="278" y="708" type="line" smooth="yes"/>
      <point x="296" y="708"/>
      <point x="309" y="701" type="qcurve"/>
      <point x="325" y="694"/>
      <point x="345" y="679" type="qcurve"/>
      <point x="366" y="665"/>
      <point x="379" y="659" type="qcurve" smooth="yes"/>
      <point x="394" y="653"/>
      <point x="410" y="653" type="qcurve" smooth="yes"/>
      <point x="446" y="653"/>
      <point x="476" y="685" type="qcurve"/>
      <point x="491" y="667" type="line"/>
      <point x="451" y="624"/>
    </contour>
    <contour>
      <point x="231" y="19" type="qcurve" smooth="yes"/>
      <point x="388" y="19"/>
      <point x="433" y="223" type="qcurve"/>
      <point x="442" y="271" type="line" smooth="yes"/>
      <point x="447" y="297"/>
      <point x="447" y="327" type="qcurve"/>
      <point x="447" y="328" type="line"/>
      <point x="447" y="328"/>
      <point x="447" y="328" type="qcurve"/>
      <point x="447" y="328"/>
      <point x="447" y="328" type="qcurve"/>
      <point x="447" y="329" type="line"/>
      <point x="447" y="329"/>
      <point x="447" y="329" type="qcurve"/>
      <point x="447" y="329"/>
      <point x="447" y="329" type="qcurve"/>
      <point x="447" y="329"/>
      <point x="447" y="330" type="qcurve"/>
      <point x="447" y="330"/>
      <point x="447" y="330" type="qcurve"/>
      <point x="447" y="330"/>
      <point x="447" y="330" type="qcurve"/>
      <point x="447" y="330"/>
      <point x="447" y="330" type="qcurve"/>
      <point x="447" y="330"/>
      <point x="447" y="330" type="qcurve"/>
      <point x="447" y="331"/>
      <point x="447" y="331" type="qcurve"/>
      <point x="447" y="331"/>
      <point x="447" y="331" type="qcurve"/>
      <point x="447" y="331"/>
      <point x="447" y="331" type="qcurve"/>
      <point x="447" y="332" type="line"/>
      <point x="447" y="332"/>
      <point x="447" y="332" type="qcurve"/>
      <point x="447" y="332"/>
      <point x="447" y="332" type="qcurve"/>
      <point x="447" y="337" type="line" smooth="yes"/>
      <point x="447" y="400"/>
      <point x="413" y="444" type="qcurve" smooth="yes"/>
      <point x="380" y="489"/>
      <point x="307" y="489" type="qcurve" smooth="yes"/>
      <point x="151" y="489"/>
      <point x="105" y="285" type="qcurve"/>
      <point x="96" y="237" type="line"/>
      <point x="92" y="207"/>
      <point x="91" y="171" type="qcurve"/>
      <point x="92" y="108"/>
      <point x="125" y="63" type="qcurve" smooth="yes"/>
      <point x="159" y="19"/>
    </contour>
    <contour>
      <point x="227" y="-12" type="qcurve" smooth="yes"/>
      <point x="149" y="-12"/>
      <point x="103" y="41" type="qcurve" smooth="yes"/>
      <point x="58" y="95"/>
      <point x="57" y="176" type="qcurve"/>
      <point x="57" y="314"/>
      <point x="123" y="417" type="qcurve"/>
      <point x="192" y="520"/>
      <point x="311" y="520" type="qcurve" smooth="yes"/>
      <point x="314" y="520" type="line" smooth="yes"/>
      <point x="393" y="520"/>
      <point x="436" y="468" type="qcurve"/>
      <point x="481" y="416"/>
      <point x="481" y="332" type="qcurve"/>
      <point x="481" y="332"/>
      <point x="481" y="332" type="qcurve"/>
      <point x="481" y="332"/>
      <point x="481" y="332" type="qcurve"/>
      <point x="481" y="332"/>
      <point x="481" y="332" type="qcurve"/>
      <point x="481" y="332"/>
      <point x="481" y="332" type="qcurve"/>
      <point x="481" y="332"/>
      <point x="481" y="332" type="qcurve"/>
      <point x="481" y="332"/>
      <point x="481" y="331" type="qcurve"/>
      <point x="481" y="331"/>
      <point x="481" y="331" type="qcurve"/>
      <point x="481" y="331"/>
      <point x="481" y="331" type="qcurve"/>
      <point x="481" y="331"/>
      <point x="481" y="331" type="qcurve"/>
      <point x="481" y="331"/>
      <point x="481" y="331" type="qcurve"/>
      <point x="481" y="331"/>
      <point x="481" y="331" type="qcurve"/>
      <point x="481" y="331"/>
      <point x="481" y="331" type="qcurve"/>
      <point x="481" y="331"/>
      <point x="481" y="330" type="qcurve"/>
      <point x="481" y="330"/>
      <point x="481" y="330" type="qcurve"/>
      <point x="481" y="329" type="line"/>
      <point x="481" y="329"/>
      <point x="481" y="329" type="qcurve"/>
      <point x="481" y="329"/>
      <point x="481" y="329" type="qcurve"/>
      <point x="481" y="329"/>
      <point x="481" y="329" type="qcurve"/>
      <point x="481" y="329"/>
      <point x="481" y="329" type="qcurve"/>
      <point x="481" y="329"/>
      <point x="481" y="329" type="qcurve"/>
      <point x="481" y="329"/>
      <point x="481" y="328" type="qcurve"/>
      <point x="481" y="328"/>
      <point x="481" y="328" type="qcurve"/>
      <point x="481" y="192"/>
      <point x="416" y="91" type="qcurve"/>
      <point x="384" y="44"/>
      <point x="336" y="16" type="qcurve" smooth="yes"/>
      <point x="288" y="-12"/>
    </contour>
  </outline>
</glyph>
<glyph name="divide" format="2">
  <advance width="600"/>
  <unicode hex="00F7"/>
  <outline>
    <contour>
      <point x="346" y="461" type="qcurve"/>
      <point x="312" y="461"/>
      <point x="312" y="485" type="qcurve" smooth="yes"/>
      <point x="312" y="494"/>
      <point x="314" y="502" type="qcurve"/>
      <point x="315" y="508" type="line"/>
      <point x="319" y="537"/>
      <point x="353" y="537" type="qcurve"/>
      <point x="353" y="537"/>
      <point x="353" y="537" type="qcurve"/>
      <point x="353" y="537"/>
      <point x="353" y="537" type="qcurve"/>
      <point x="353" y="537"/>
      <point x="353" y="537" type="qcurve"/>
      <point x="355" y="537" type="line"/>
      <point x="388" y="537"/>
      <point x="388" y="513" type="qcurve" smooth="yes"/>
      <point x="388" y="505"/>
      <point x="386" y="496" type="qcurve" smooth="yes"/>
      <point x="385" y="490" type="line"/>
      <point x="382" y="462"/>
    </contour>
    <contour>
      <point x="72" y="290" type="line"/>
      <point x="78" y="320" type="line"/>
      <point x="548" y="320" type="line"/>
      <point x="542" y="290" type="line"/>
    </contour>
    <contour>
      <point x="268" y="75" type="qcurve"/>
      <point x="234" y="76"/>
      <point x="234" y="98" type="qcurve" smooth="yes"/>
      <point x="234" y="113"/>
      <point x="238" y="122" type="qcurve"/>
      <point x="242" y="150"/>
      <point x="277" y="150" type="qcurve" smooth="yes"/>
      <point x="311" y="150"/>
      <point x="311" y="126" type="qcurve" smooth="yes"/>
      <point x="311" y="114"/>
      <point x="307" y="103" type="qcurve"/>
      <point x="306" y="92"/>
      <point x="297" y="83" type="qcurve" smooth="yes"/>
      <point x="288" y="75"/>
    </contour>
  </outline>
</glyph>
<glyph name="Abreve" format="2">
  <advance width="601"/>
  <unicode hex="0102"/>
  <outline>
    <contour>
      <point x="489" y="0" type="line"/>
      <point x="449" y="227" type="line"/>
      <point x="142" y="227" type="line"/>
      <point x="23" y="0" type="line"/>
      <point x="-16" y="0" type="line"/>
      <point x="352" y="698" type="line"/>
      <point x="400" y="698" type="line"/>
      <point x="526" y="0" type="line"/>
    </contour>
    <contour>
      <point x="372" y="661" type="line"/>
      <point x="368" y="661" type="line"/>
      <point x="158" y="259" type="line"/>
      <point x="444" y="259" type="line"/>
    </contour>
    <contour>
      <point x="395" y="781" type="qcurve"/>
      <point x="342" y="782"/>
      <point x="316" y="815" type="qcurve"/>
      <point x="292" y="850"/>
      <point x="276" y="902" type="qcurve"/>
      <point x="300" y="912" type="line"/>
      <point x="313" y="879" type="line"/>
      <point x="328" y="844"/>
      <point x="346" y="827" type="qcurve"/>
      <point x="366" y="810"/>
      <point x="396" y="810" type="qcurve"/>
      <point x="429" y="810"/>
      <point x="451" y="826" type="qcurve"/>
      <point x="474" y="842"/>
      <point x="501" y="880" type="qcurve"/>
      <point x="524" y="912" type="line"/>
      <point x="548" y="902" type="line"/>
      <point x="500" y="815"/>
      <point x="446" y="791" type="qcurve"/>
      <point x="425" y="782"/>
    </contour>
  </outline>
</glyph>
<glyph name="abreve" format="2">
  <advance width="571"/>
  <unicode hex="0103"/>
  <outline>
    <contour>
      <point x="220" y="-12" type="qcurve"/>
      <point x="142" y="-12"/>
      <point x="101" y="42" type="qcurve"/>
      <point x="58" y="94"/>
      <point x="58" y="178" type="qcurve"/>
      <point x="58" y="310"/>
      <point x="122" y="415" type="qcurve"/>
      <point x="154" y="465"/>
      <point x="200" y="492" type="qcurve"/>
      <point x="248" y="520"/>
      <point x="308" y="520" type="qcurve"/>
      <point x="368" y="520"/>
      <point x="406" y="493" type="qcurve"/>
      <point x="445" y="466"/>
      <point x="459" y="417" type="qcurve"/>
      <point x="462" y="417" type="line"/>
      <point x="480" y="508" type="line"/>
      <point x="514" y="508" type="line"/>
      <point x="419" y="31" type="line"/>
      <point x="501" y="31" type="line"/>
      <point x="495" y="0" type="line"/>
      <point x="419" y="0" type="line"/>
      <point x="386" y="2"/>
      <point x="385" y="29" type="qcurve"/>
      <point x="386" y="38"/>
      <point x="386" y="43" type="qcurve"/>
      <point x="388" y="48"/>
      <point x="400" y="111" type="qcurve"/>
      <point x="397" y="111" type="line"/>
      <point x="366" y="54"/>
      <point x="324" y="21" type="qcurve"/>
      <point x="282" y="-12"/>
    </contour>
    <contour>
      <point x="225" y="19" type="qcurve"/>
      <point x="290" y="19"/>
      <point x="334" y="61" type="qcurve"/>
      <point x="398" y="112"/>
      <point x="420" y="211" type="qcurve"/>
      <point x="447" y="344" type="line"/>
      <point x="450" y="358"/>
      <point x="450" y="370" type="qcurve"/>
      <point x="450" y="408"/>
      <point x="426" y="441" type="qcurve"/>
      <point x="411" y="462"/>
      <point x="381" y="475" type="qcurve"/>
      <point x="351" y="490"/>
      <point x="309" y="489" type="qcurve"/>
      <point x="228" y="489"/>
      <point x="177" y="435" type="qcurve"/>
      <point x="126" y="382"/>
      <point x="107" y="286" type="qcurve"/>
      <point x="99" y="242" type="line"/>
      <point x="93" y="216"/>
      <point x="93" y="175" type="qcurve"/>
      <point x="93" y="112"/>
      <point x="125" y="65" type="qcurve"/>
      <point x="161" y="20"/>
    </contour>
    <contour>
      <point x="345" y="604" type="qcurve"/>
      <point x="294" y="604"/>
      <point x="267" y="637" type="qcurve"/>
      <point x="240" y="671"/>
      <point x="226" y="725" type="qcurve"/>
      <point x="249" y="735" type="line"/>
      <point x="263" y="701" type="line"/>
      <point x="278" y="665"/>
      <point x="296" y="649" type="qcurve"/>
      <point x="316" y="634"/>
      <point x="345" y="633" type="qcurve"/>
      <point x="378" y="633"/>
      <point x="401" y="648" type="qcurve"/>
      <point x="424" y="664"/>
      <point x="451" y="702" type="qcurve"/>
      <point x="474" y="735" type="line"/>
      <point x="497" y="725" type="line"/>
      <point x="448" y="638"/>
      <point x="394" y="614" type="qcurve"/>
      <point x="373" y="604"/>
    </contour>
  </outline>
</glyph>
<glyph name="Aogonek" format="2">
  <advance width="601"/>
  <unicode hex="0104"/>
  <outline>
    <contour>
      <point x="430" y="-203" type="qcurve"/>
      <point x="399" y="-203"/>
      <point x="376" y="-187" type="qcurve"/>
      <point x="354" y="-169"/>
      <point x="353" y="-135" type="qcurve"/>
      <point x="354" y="-102"/>
      <point x="382" y="-71" type="qcurve"/>
      <point x="412" y="-38"/>
      <point x="488" y="0" type="qcurve"/>
      <point x="449" y="227" type="line"/>
      <point x="142" y="227" type="line"/>
      <point x="23" y="0" type="line"/>
      <point x="-16" y="0" type="line"/>
      <point x="352" y="698" type="line"/>
      <point x="400" y="698" type="line"/>
      <point x="526" y="0" type="line"/>
      <point x="450" y="-45"/>
      <point x="417" y="-73" type="qcurve"/>
      <point x="385" y="-100"/>
      <point x="385" y="-133" type="qcurve"/>
      <point x="386" y="-154"/>
      <point x="398" y="-166" type="qcurve"/>
      <point x="412" y="-176"/>
      <point x="431" y="-177" type="qcurve"/>
      <point x="470" y="-177"/>
      <point x="494" y="-151" type="qcurve"/>
      <point x="513" y="-170" type="line"/>
      <point x="486" y="-203"/>
    </contour>
    <contour>
      <point x="372" y="661" type="line"/>
      <point x="368" y="661" type="line"/>
      <point x="158" y="259" type="line"/>
      <point x="444" y="259" type="line"/>
    </contour>
  </outline>
</glyph>
<glyph name="aogonek" format="2">
  <advance width="571"/>
  <unicode hex="0105"/>
  <outline>
    <contour>
      <point x="399" y="-203" type="qcurve"/>
      <point x="368" y="-203"/>
      <point x="345" y="-187" type="qcurve"/>
      <point x="322" y="-169"/>
      <point x="322" y="-135" type="qcurve"/>
      <point x="322" y="-106"/>
      <point x="351" y="-73" type="qcurve"/>
      <point x="381" y="-40"/>
      <point x="457" y="-3" type="qcurve"/>
      <point x="456" y="0" type="line"/>
      <point x="419" y="0" type="line"/>
      <point x="386" y="2"/>
      <point x="385" y="29" type="qcurve"/>
      <point x="386" y="38"/>
      <point x="386" y="43" type="qcurve"/>
      <point x="388" y="48"/>
      <point x="400" y="111" type="qcurve"/>
      <point x="397" y="111" type="line"/>
      <point x="366" y="54"/>
      <point x="324" y="21" type="qcurve"/>
      <point x="282" y="-12"/>
      <point x="219" y="-12" type="qcurve"/>
      <point x="144" y="-12"/>
      <point x="101" y="42" type="qcurve"/>
      <point x="58" y="96"/>
      <point x="58" y="178" type="qcurve"/>
      <point x="58" y="310"/>
      <point x="122" y="416" type="qcurve"/>
      <point x="154" y="464"/>
      <point x="200" y="492" type="qcurve"/>
      <point x="248" y="520"/>
      <point x="308" y="520" type="qcurve"/>
      <point x="368" y="520"/>
      <point x="406" y="493" type="qcurve"/>
      <point x="445" y="466"/>
      <point x="459" y="418" type="qcurve"/>
      <point x="462" y="418" type="line"/>
      <point x="480" y="508" type="line"/>
      <point x="514" y="508" type="line"/>
      <point x="419" y="31" type="line"/>
      <point x="501" y="31" type="line"/>
      <point x="495" y="0" type="line"/>
      <point x="419" y="-45"/>
      <point x="386" y="-73" type="qcurve"/>
      <point x="354" y="-100"/>
      <point x="354" y="-133" type="qcurve"/>
      <point x="354" y="-154"/>
      <point x="367" y="-166" type="qcurve"/>
      <point x="380" y="-176"/>
      <point x="400" y="-177" type="qcurve"/>
      <point x="439" y="-177"/>
      <point x="463" y="-151" type="qcurve"/>
      <point x="481" y="-170" type="line"/>
      <point x="456" y="-203"/>
    </contour>
    <contour>
      <point x="224" y="19" type="qcurve"/>
      <point x="290" y="20"/>
      <point x="334" y="62" type="qcurve"/>
      <point x="398" y="112"/>
      <point x="420" y="211" type="qcurve"/>
      <point x="448" y="349" type="line"/>
      <point x="450" y="361"/>
      <point x="450" y="370" type="qcurve"/>
      <point x="450" y="409"/>
      <point x="425" y="442" type="qcurve"/>
      <point x="390" y="490"/>
      <point x="310" y="489" type="qcurve"/>
      <point x="228" y="490"/>
      <point x="177" y="436" type="qcurve"/>
      <point x="126" y="382"/>
      <point x="107" y="287" type="qcurve"/>
      <point x="98" y="242" type="line"/>
      <point x="94" y="215"/>
      <point x="93" y="176" type="qcurve"/>
      <point x="93" y="110"/>
      <point x="125" y="65" type="qcurve"/>
      <point x="158" y="20"/>
    </contour>
  </outline>
</glyph>
<glyph name="Cacute" format="2">
  <advance width="597"/>
  <unicode hex="0106"/>
  <outline>
    <contour>
      <point x="387" y="779" type="line"/>
      <point x="521" y="936" type="line"/>
      <point x="550" y="917" type="line"/>
      <point x="409" y="764" type="line"/>
    </contour>
    <contour>
      <point x="291" y="-12" type="qcurve" smooth="yes"/>
      <point x="192" y="-12"/>
      <point x="129" y="50" type="qcurve" smooth="yes"/>
      <point x="66" y="114"/>
      <point x="66" y="231" type="qcurve" smooth="yes"/>
      <point x="66" y="309"/>
      <point x="85" y="393" type="qcurve"/>
      <point x="106" y="477"/>
      <point x="145" y="549" type="qcurve" smooth="yes"/>
      <point x="185" y="620"/>
      <point x="247" y="665" type="qcurve" smooth="yes"/>
      <point x="310" y="710"/>
      <point x="396" y="710" type="qcurve" smooth="yes"/>
      <point x="558" y="710"/>
      <point x="595" y="565" type="qcurve"/>
      <point x="562" y="553" type="line"/>
      <point x="547" y="611"/>
      <point x="508" y="644" type="qcurve" smooth="yes"/>
      <point x="469" y="677"/>
      <point x="394" y="677" type="qcurve"/>
      <point x="394" y="677"/>
      <point x="394" y="677" type="qcurve"/>
      <point x="394" y="677"/>
      <point x="393" y="677" type="qcurve"/>
      <point x="393" y="677"/>
      <point x="393" y="677" type="qcurve"/>
      <point x="393" y="677"/>
      <point x="393" y="677" type="qcurve"/>
      <point x="391" y="677" type="line"/>
      <point x="391" y="677"/>
      <point x="391" y="677" type="qcurve"/>
      <point x="294" y="677"/>
      <point x="223" y="601" type="qcurve" smooth="yes"/>
      <point x="152" y="524"/>
      <point x="125" y="394" type="qcurve" smooth="yes"/>
      <point x="111" y="325" type="line"/>
      <point x="102" y="268"/>
      <point x="102" y="226" type="qcurve" smooth="yes"/>
      <point x="102" y="134"/>
      <point x="151" y="77" type="qcurve" smooth="yes"/>
      <point x="200" y="21"/>
      <point x="292" y="21" type="qcurve"/>
      <point x="364" y="22"/>
      <point x="411" y="56" type="qcurve" smooth="yes"/>
      <point x="461" y="92"/>
      <point x="497" y="160" type="qcurve"/>
      <point x="528" y="145" type="line"/>
      <point x="447" y="-12"/>
    </contour>
  </outline>
</glyph>
<glyph name="cdotaccent" format="2">
  <advance width="481"/>
  <unicode hex="010B"/>
  <outline>
    <contour>
      <point x="327" y="636" type="qcurve" smooth="yes"/>
      <point x="302" y="636"/>
      <point x="302" y="657" type="qcurve" smooth="yes"/>
      <point x="302" y="662"/>
      <point x="305" y="673" type="qcurve" smooth="yes"/>
      <point x="308" y="685"/>
      <point x="314" y="691" type="qcurve" smooth="yes"/>
      <point x="322" y="698"/>
      <point x="336" y="698" type="qcurve" smooth="yes"/>
      <point x="361" y="698"/>
      <point x="361" y="679" type="qcurve"/>
      <point x="361" y="679"/>
      <point x="361" y="679" type="qcurve"/>
      <point x="361" y="679"/>
      <point x="361" y="679" type="qcurve"/>
      <point x="361" y="679"/>
      <point x="361" y="679" type="qcurve"/>
      <point x="361" y="679"/>
      <point x="361" y="679" type="qcurve"/>
      <point x="361" y="679"/>
      <point x="361" y="679" type="qcurve"/>
      <point x="361" y="679"/>
      <point x="361" y="679" type="qcurve"/>
      <point x="361" y="677" type="line"/>
      <point x="361" y="673"/>
      <point x="358" y="661" type="qcurve" smooth="yes"/>
      <point x="356" y="651"/>
      <point x="349" y="643" type="qcurve" smooth="yes"/>
      <point x="342" y="636"/>
    </contour>
    <contour>
      <point x="226" y="-12" type="qcurve" smooth="yes"/>
      <point x="145" y="-12"/>
      <point x="101" y="43" type="qcurve"/>
      <point x="58" y="100"/>
      <point x="58" y="189" type="qcurve" smooth="yes"/>
      <point x="58" y="327"/>
      <point x="122" y="423" type="qcurve" smooth="yes"/>
      <point x="186" y="520"/>
      <point x="301" y="520" type="qcurve" smooth="yes"/>
      <point x="364" y="520"/>
      <point x="403" y="488" type="qcurve" smooth="yes"/>
      <point x="444" y="456"/>
      <point x="456" y="404" type="qcurve"/>
      <point x="427" y="393" type="line"/>
      <point x="416" y="441"/>
      <point x="382" y="465" type="qcurve"/>
      <point x="349" y="490"/>
      <point x="299" y="490" type="qcurve" smooth="yes"/>
      <point x="227" y="490"/>
      <point x="176" y="440" type="qcurve" smooth="yes"/>
      <point x="126" y="390"/>
      <point x="108" y="301" type="qcurve" smooth="yes"/>
      <point x="94" y="230"/>
      <point x="93" y="216" type="qcurve" smooth="yes"/>
      <point x="92" y="204"/>
      <point x="92" y="186" type="qcurve" smooth="yes"/>
      <point x="92" y="116"/>
      <point x="125" y="68" type="qcurve"/>
      <point x="162" y="20"/>
      <point x="228" y="19" type="qcurve"/>
      <point x="282" y="20"/>
      <point x="323" y="48" type="qcurve" smooth="yes"/>
      <point x="365" y="78"/>
      <point x="398" y="131" type="qcurve"/>
      <point x="426" y="117" type="line"/>
      <point x="350" y="-12"/>
    </contour>
  </outline>
</glyph>
<glyph name="ccaron" format="2">
  <advance width="481"/>
  <unicode hex="010D"/>
  <outline>
    <contour>
      <point x="299" y="602" type="line"/>
      <point x="198" y="738" type="line"/>
      <point x="220" y="753" type="line"/>
      <point x="322" y="629" type="line"/>
      <point x="467" y="753" type="line"/>
      <point x="487" y="736" type="line"/>
      <point x="339" y="602" type="line"/>
    </contour>
    <contour>
      <point x="226" y="-12" type="qcurve" smooth="yes"/>
      <point x="145" y="-12"/>
      <point x="101" y="43" type="qcurve"/>
      <point x="58" y="100"/>
      <point x="58" y="189" type="qcurve" smooth="yes"/>
      <point x="58" y="327"/>
      <point x="122" y="423" type="qcurve" smooth="yes"/>
      <point x="186" y="520"/>
      <point x="301" y="520" type="qcurve" smooth="yes"/>
      <point x="364" y="520"/>
      <point x="403" y="488" type="qcurve" smooth="yes"/>
      <point x="444" y="456"/>
      <point x="456" y="404" type="qcurve"/>
      <point x="427" y="393" type="line"/>
      <point x="416" y="441"/>
      <point x="382" y="465" type="qcurve"/>
      <point x="349" y="490"/>
      <point x="299" y="490" type="qcurve" smooth="yes"/>
      <point x="227" y="490"/>
      <point x="176" y="440" type="qcurve" smooth="yes"/>
      <point x="126" y="390"/>
      <point x="108" y="301" type="qcurve" smooth="yes"/>
      <point x="94" y="230"/>
      <point x="93" y="216" type="qcurve" smooth="yes"/>
      <point x="92" y="204"/>
      <point x="92" y="186" type="qcurve" smooth="yes"/>
      <point x="92" y="116"/>
      <point x="125" y="68" type="qcurve"/>
      <point x="162" y="20"/>
      <point x="228" y="19" type="qcurve"/>
      <point x="282" y="20"/>
      <point x="323" y="48" type="qcurve" smooth="yes"/>
      <point x="365" y="78"/>
      <point x="398" y="131" type="qcurve"/>
      <point x="426" y="117" type="line"/>
      <point x="350" y="-12"/>
    </contour>
  </outline>
</glyph>
<glyph name="Dcaron" format="2">
  <advance width="649"/>
  <unicode hex="010E"/>
  <outline>
    <contour>
      <point x="367" y="780" type="line"/>
      <point x="266" y="916" type="line"/>
      <point x="288" y="931" type="line"/>
      <point x="389" y="807" type="line"/>
      <point x="535" y="931" type="line"/>
      <point x="555" y="915" type="line"/>
      <point x="407" y="780" type="line"/>
    </contour>
    <contour>
      <point x="50" y="0" type="line"/>
      <point x="190" y="698" type="line"/>
      <point x="379" y="698" type="line" smooth="yes"/>
      <point x="495" y="698"/>
      <point x="553" y="636" type="qcurve" smooth="yes"/>
      <point x="612" y="574"/>
      <point x="612" y="458" type="qcurve" smooth="yes"/>
      <point x="612" y="374"/>
      <point x="592" y="293" type="qcurve" smooth="yes"/>
      <point x="572" y="212"/>
      <point x="531" y="145" type="qcurve" smooth="yes"/>
      <point x="491" y="80"/>
      <point x="428" y="40" type="qcurve" smooth="yes"/>
      <point x="366" y="0"/>
      <point x="280" y="0" type="qcurve" smooth="yes"/>
    </contour>
    <contour>
      <point x="281" y="32" type="line" smooth="yes"/>
      <point x="389" y="32"/>
      <point x="463" y="110" type="qcurve"/>
      <point x="532" y="186"/>
      <point x="554" y="300" type="qcurve" smooth="yes"/>
      <point x="567" y="367" type="line"/>
      <point x="576" y="426"/>
      <point x="576" y="465" type="qcurve" smooth="yes"/>
      <point x="576" y="558"/>
      <point x="526" y="612" type="qcurve" smooth="yes"/>
      <point x="476" y="666"/>
      <point x="376" y="666" type="qcurve" smooth="yes"/>
      <point x="219" y="666" type="line"/>
      <point x="93" y="32" type="line"/>
    </contour>
  </outline>
</glyph>
<glyph name="Dcroat" format="2">
  <advance width="652"/>
  <unicode hex="0110"/>
  <outline>
    <contour>
      <point x="53" y="0" type="line"/>
      <point x="124" y="353" type="line"/>
      <point x="40" y="353" type="line"/>
      <point x="46" y="383" type="line"/>
      <point x="130" y="383" type="line"/>
      <point x="193" y="698" type="line"/>
      <point x="382" y="698" type="line" smooth="yes"/>
      <point x="496" y="698"/>
      <point x="555" y="636" type="qcurve" smooth="yes"/>
      <point x="615" y="574"/>
      <point x="615" y="458" type="qcurve"/>
      <point x="615" y="457" type="line"/>
      <point x="615" y="457"/>
      <point x="615" y="457" type="qcurve"/>
      <point x="615" y="456" type="line"/>
      <point x="615" y="456"/>
      <point x="615" y="455" type="qcurve"/>
      <point x="615" y="455"/>
      <point x="615" y="455" type="qcurve"/>
      <point x="615" y="455"/>
      <point x="615" y="455" type="qcurve"/>
      <point x="615" y="450" type="line"/>
      <point x="615" y="450"/>
      <point x="615" y="450" type="qcurve"/>
      <point x="615" y="370"/>
      <point x="595" y="293" type="qcurve"/>
      <point x="576" y="212"/>
      <point x="534" y="145" type="qcurve" smooth="yes"/>
      <point x="494" y="80"/>
      <point x="431" y="40" type="qcurve" smooth="yes"/>
      <point x="368" y="0"/>
      <point x="283" y="0" type="qcurve" smooth="yes"/>
    </contour>
    <contour>
      <point x="284" y="32" type="line" smooth="yes"/>
      <point x="392" y="32"/>
      <point x="466" y="110" type="qcurve"/>
      <point x="536" y="186"/>
      <point x="557" y="300" type="qcurve" smooth="yes"/>
      <point x="570" y="367" type="line"/>
      <point x="579" y="426"/>
      <point x="579" y="465" type="qcurve"/>
      <point x="579" y="465"/>
      <point x="579" y="465" type="qcurve"/>
      <point x="579" y="466"/>
      <point x="579" y="466" type="qcurve"/>
      <point x="579" y="467" type="line"/>
      <point x="579" y="467"/>
      <point x="579" y="467" type="qcurve"/>
      <point x="579" y="467"/>
      <point x="579" y="467" type="qcurve"/>
      <point x="579" y="469" type="line"/>
      <point x="579" y="559"/>
      <point x="529" y="612" type="qcurve" smooth="yes"/>
      <point x="479" y="666"/>
      <point x="379" y="666" type="qcurve" smooth="yes"/>
      <point x="222" y="666" type="line"/>
      <point x="166" y="383" type="line"/>
      <point x="325" y="383" type="line"/>
      <point x="319" y="353" type="line"/>
      <point x="160" y="353" type="line"/>
      <point x="96" y="32" type="line"/>
    </contour>
  </outline>
</glyph>
<glyph name="Ebreve" format="2">
  <advance width="556"/>
  <unicode hex="0114"/>
  <outline>
    <contour>
      <point x="50" y="0" type="line"/>
      <point x="190" y="698" type="line"/>
      <point x="576" y="698" type="line"/>
      <point x="570" y="666" type="line"/>
      <point x="220" y="666" type="line"/>
      <point x="160" y="370" type="line"/>
      <point x="493" y="370" type="line"/>
      <point x="487" y="338" type="line"/>
      <point x="153" y="338" type="line"/>
      <point x="92" y="32" type="line"/>
      <point x="447" y="32" type="line"/>
      <point x="440" y="0" type="line"/>
    </contour>
    <contour>
      <point x="399" y="781" type="qcurve"/>
      <point x="346" y="782"/>
      <point x="320" y="815" type="qcurve"/>
      <point x="296" y="850"/>
      <point x="280" y="902" type="qcurve"/>
      <point x="304" y="912" type="line"/>
      <point x="317" y="879" type="line"/>
      <point x="332" y="844"/>
      <point x="350" y="827" type="qcurve"/>
      <point x="370" y="810"/>
      <point x="400" y="810" type="qcurve"/>
      <point x="433" y="810"/>
      <point x="455" y="826" type="qcurve"/>
      <point x="478" y="842"/>
      <point x="505" y="880" type="qcurve"/>
      <point x="528" y="912" type="line"/>
      <point x="552" y="902" type="line"/>
      <point x="504" y="815"/>
      <point x="450" y="791" type="qcurve"/>
      <point x="429" y="782"/>
    </contour>
  </outline>
</glyph>
<glyph name="ebreve" format="2">
  <advance width="506"/>
  <unicode hex="0115"/>
  <outline>
    <contour>
      <point x="333" y="604" type="qcurve" smooth="yes"/>
      <point x="282" y="604"/>
      <point x="255" y="637" type="qcurve" smooth="yes"/>
      <point x="228" y="671"/>
      <point x="214" y="725" type="qcurve"/>
      <point x="237" y="735" type="line"/>
      <point x="251" y="701" type="line" smooth="yes"/>
      <point x="266" y="665"/>
      <point x="284" y="649" type="qcurve"/>
      <point x="304" y="634"/>
      <point x="333" y="633" type="qcurve"/>
      <point x="366" y="633"/>
      <point x="389" y="648" type="qcurve" smooth="yes"/>
      <point x="412" y="664"/>
      <point x="439" y="702" type="qcurve" smooth="yes"/>
      <point x="462" y="735" type="line"/>
      <point x="485" y="725" type="line"/>
      <point x="436" y="638"/>
      <point x="382" y="614" type="qcurve" smooth="yes"/>
      <point x="361" y="604"/>
    </contour>
    <contour>
      <point x="239" y="-12" type="qcurve" smooth="yes"/>
      <point x="152" y="-12"/>
      <point x="105" y="38" type="qcurve" smooth="yes"/>
      <point x="58" y="89"/>
      <point x="58" y="191" type="qcurve" smooth="yes"/>
      <point x="58" y="328"/>
      <point x="129" y="424" type="qcurve" smooth="yes"/>
      <point x="162" y="468"/>
      <point x="208" y="494" type="qcurve" smooth="yes"/>
      <point x="256" y="520"/>
      <point x="311" y="520" type="qcurve" smooth="yes"/>
      <point x="381" y="520"/>
      <point x="426" y="487" type="qcurve" smooth="yes"/>
      <point x="471" y="454"/>
      <point x="471" y="394" type="qcurve" smooth="yes"/>
      <point x="471" y="328"/>
      <point x="402" y="286" type="qcurve"/>
      <point x="326" y="238"/>
      <point x="95" y="230" type="qcurve"/>
      <point x="92" y="198"/>
      <point x="92" y="187" type="qcurve" smooth="yes"/>
      <point x="92" y="19"/>
      <point x="240" y="19" type="qcurve" smooth="yes"/>
      <point x="300" y="19"/>
      <point x="345" y="49" type="qcurve" smooth="yes"/>
      <point x="391" y="80"/>
      <point x="421" y="134" type="qcurve"/>
      <point x="448" y="117" type="line"/>
      <point x="370" y="-12"/>
    </contour>
    <contour>
      <point x="99" y="259" type="line"/>
      <point x="306" y="265"/>
      <point x="373" y="304" type="qcurve"/>
      <point x="408" y="322"/>
      <point x="421" y="345" type="qcurve"/>
      <point x="435" y="367"/>
      <point x="435" y="391" type="qcurve"/>
      <point x="435" y="391"/>
      <point x="435" y="391" type="qcurve"/>
      <point x="435" y="392"/>
      <point x="435" y="392" type="qcurve"/>
      <point x="435" y="392"/>
      <point x="435" y="392" type="qcurve"/>
      <point x="435" y="392"/>
      <point x="435" y="392" type="qcurve"/>
      <point x="435" y="392"/>
      <point x="435" y="392" type="qcurve"/>
      <point x="435" y="394" type="line"/>
      <point x="435" y="394"/>
      <point x="435" y="394" type="qcurve"/>
      <point x="435" y="394"/>
      <point x="435" y="394" type="qcurve"/>
      <point x="435" y="394"/>
      <point x="435" y="394" type="qcurve"/>
      <point x="435" y="395"/>
      <point x="435" y="395" type="qcurve"/>
      <point x="435" y="395"/>
      <point x="435" y="395" type="qcurve"/>
      <point x="435" y="395"/>
      <point x="435" y="395" type="qcurve"/>
      <point x="435" y="395"/>
      <point x="435" y="395" type="qcurve"/>
      <point x="435" y="397" type="line"/>
      <point x="435" y="397"/>
      <point x="435" y="397" type="qcurve"/>
      <point x="435" y="397"/>
      <point x="435" y="397" type="qcurve"/>
      <point x="435" y="439"/>
      <point x="404" y="464" type="qcurve" smooth="yes"/>
      <point x="372" y="490"/>
      <point x="307" y="490" type="qcurve"/>
      <point x="307" y="490"/>
      <point x="306" y="490" type="qcurve"/>
      <point x="306" y="490"/>
      <point x="306" y="490" type="qcurve"/>
      <point x="306" y="490"/>
      <point x="306" y="490" type="qcurve"/>
      <point x="306" y="490"/>
      <point x="306" y="490" type="qcurve"/>
      <point x="305" y="490" type="line"/>
      <point x="304" y="490"/>
      <point x="304" y="490" type="qcurve"/>
      <point x="229" y="490"/>
      <point x="175" y="432" type="qcurve" smooth="yes"/>
      <point x="121" y="374"/>
      <point x="103" y="279" type="qcurve" smooth="yes"/>
    </contour>
  </outline>
</glyph>
<glyph name="Edotaccent" format="2">
  <advance width="556"/>
  <unicode hex="0116"/>
  <outline>
    <contour>
      <point x="50" y="0" type="line"/>
      <point x="190" y="698" type="line"/>
      <point x="576" y="698" type="line"/>
      <point x="570" y="666" type="line"/>
      <point x="220" y="666" type="line"/>
      <point x="160" y="370" type="line"/>
      <point x="493" y="370" type="line"/>
      <point x="487" y="338" type="line"/>
      <point x="153" y="338" type="line"/>
      <point x="92" y="32" type="line"/>
      <point x="447" y="32" type="line"/>
      <point x="440" y="0" type="line"/>
    </contour>
    <contour>
      <point x="405" y="814" type="qcurve"/>
      <point x="380" y="814"/>
      <point x="380" y="835" type="qcurve"/>
      <point x="380" y="840"/>
      <point x="383" y="851" type="qcurve"/>
      <point x="386" y="863"/>
      <point x="392" y="869" type="qcurve"/>
      <point x="400" y="876"/>
      <point x="414" y="876" type="qcurve"/>
      <point x="440" y="876"/>
      <point x="439" y="855" type="qcurve"/>
      <point x="439" y="851"/>
      <point x="436" y="839" type="qcurve"/>
      <point x="434" y="829"/>
      <point x="427" y="821" type="qcurve"/>
      <point x="420" y="814"/>
    </contour>
  </outline>
</glyph>
<glyph name="Eogonek" format="2">
  <advance width="556"/>
  <unicode hex="0118"/>
  <outline>
    <contour>
      <point x="345" y="-203" type="qcurve" smooth="yes"/>
      <point x="314" y="-203"/>
      <point x="290" y="-187" type="qcurve"/>
      <point x="268" y="-169"/>
      <point x="267" y="-135" type="qcurve"/>
      <point x="268" y="-105"/>
      <point x="296" y="-73" type="qcurve" smooth="yes"/>
      <point x="326" y="-40"/>
      <point x="403" y="-3" type="qcurve"/>
      <point x="402" y="0" type="line"/>
      <point x="50" y="0" type="line"/>
      <point x="190" y="698" type="line"/>
      <point x="576" y="698" type="line"/>
      <point x="570" y="666" type="line"/>
      <point x="220" y="666" type="line"/>
      <point x="160" y="370" type="line"/>
      <point x="493" y="370" type="line"/>
      <point x="487" y="338" type="line"/>
      <point x="153" y="338" type="line"/>
      <point x="92" y="32" type="line"/>
      <point x="447" y="32" type="line"/>
      <point x="441" y="0" type="line"/>
      <point x="365" y="-45"/>
      <point x="332" y="-73" type="qcurve" smooth="yes"/>
      <point x="299" y="-100"/>
      <point x="299" y="-133" type="qcurve"/>
      <point x="299" y="-134"/>
      <point x="299" y="-136" type="qcurve"/>
      <point x="299" y="-155"/>
      <point x="312" y="-166" type="qcurve"/>
      <point x="326" y="-176"/>
      <point x="346" y="-177" type="qcurve"/>
      <point x="385" y="-177"/>
      <point x="409" y="-151" type="qcurve"/>
      <point x="427" y="-170" type="line"/>
      <point x="402" y="-203"/>
    </contour>
  </outline>
</glyph>
<glyph name="eogonek" format="2">
  <advance width="506"/>
  <unicode hex="0119"/>
  <outline>
    <contour>
      <point x="99" y="259" type="line"/>
      <point x="306" y="265"/>
      <point x="373" y="304" type="qcurve"/>
      <point x="408" y="322"/>
      <point x="421" y="345" type="qcurve"/>
      <point x="435" y="367"/>
      <point x="435" y="391" type="qcurve"/>
      <point x="435" y="391"/>
      <point x="435" y="391" type="qcurve"/>
      <point x="435" y="391"/>
      <point x="435" y="392" type="qcurve"/>
      <point x="435" y="392"/>
      <point x="435" y="392" type="qcurve"/>
      <point x="435" y="392"/>
      <point x="435" y="392" type="qcurve"/>
      <point x="435" y="392"/>
      <point x="435" y="392" type="qcurve"/>
      <point x="435" y="392"/>
      <point x="435" y="392" type="qcurve"/>
      <point x="435" y="392"/>
      <point x="435" y="392" type="qcurve"/>
      <point x="435" y="392"/>
      <point x="435" y="392" type="qcurve"/>
      <point x="435" y="392"/>
      <point x="435" y="392" type="qcurve"/>
      <point x="435" y="394" type="line"/>
      <point x="435" y="394"/>
      <point x="435" y="394" type="qcurve"/>
      <point x="435" y="394"/>
      <point x="435" y="394" type="qcurve"/>
      <point x="435" y="394"/>
      <point x="435" y="394" type="qcurve"/>
      <point x="435" y="394"/>
      <point x="435" y="395" type="qcurve"/>
      <point x="435" y="395"/>
      <point x="435" y="395" type="qcurve"/>
      <point x="435" y="395"/>
      <point x="435" y="395" type="qcurve"/>
      <point x="435" y="395"/>
      <point x="435" y="395" type="qcurve"/>
      <point x="435" y="395"/>
      <point x="435" y="395" type="qcurve"/>
      <point x="435" y="395"/>
      <point x="435" y="395" type="qcurve"/>
      <point x="435" y="395"/>
      <point x="435" y="395" type="qcurve"/>
      <point x="435" y="395"/>
      <point x="435" y="395" type="qcurve"/>
      <point x="435" y="395"/>
      <point x="435" y="395" type="qcurve"/>
      <point x="435" y="397" type="line"/>
      <point x="435" y="397"/>
      <point x="435" y="397" type="qcurve"/>
      <point x="435" y="397"/>
      <point x="435" y="397" type="qcurve"/>
      <point x="435" y="397"/>
      <point x="435" y="397" type="qcurve"/>
      <point x="435" y="439"/>
      <point x="404" y="464" type="qcurve" smooth="yes"/>
      <point x="372" y="490"/>
      <point x="307" y="490" type="qcurve"/>
      <point x="307" y="490"/>
      <point x="307" y="490" type="qcurve"/>
      <point x="307" y="490"/>
      <point x="307" y="490" type="qcurve"/>
      <point x="307" y="490"/>
      <point x="307" y="490" type="qcurve"/>
      <point x="307" y="490"/>
      <point x="306" y="490" type="qcurve"/>
      <point x="306" y="490"/>
      <point x="306" y="490" type="qcurve"/>
      <point x="306" y="490"/>
      <point x="306" y="490" type="qcurve"/>
      <point x="306" y="490"/>
      <point x="306" y="490" type="qcurve"/>
      <point x="306" y="490"/>
      <point x="306" y="490" type="qcurve"/>
      <point x="305" y="490" type="line"/>
      <point x="305" y="490"/>
      <point x="305" y="490" type="qcurve"/>
      <point x="304" y="490"/>
      <point x="304" y="490" type="qcurve"/>
      <point x="304" y="490"/>
      <point x="304" y="490" type="qcurve"/>
      <point x="304" y="490"/>
      <point x="304" y="490" type="qcurve"/>
      <point x="304" y="490"/>
      <point x="304" y="490" type="qcurve"/>
      <point x="229" y="490"/>
      <point x="175" y="432" type="qcurve" smooth="yes"/>
      <point x="121" y="374"/>
      <point x="103" y="279" type="qcurve" smooth="yes"/>
    </contour>
    <contour>
      <point x="245" y="-203" type="qcurve" smooth="yes"/>
      <point x="214" y="-203"/>
      <point x="190" y="-187" type="qcurve"/>
      <point x="168" y="-169"/>
      <point x="167" y="-135" type="qcurve"/>
      <point x="168" y="-64"/>
      <point x="276" y="-10" type="qcurve"/>
      <point x="275" y="-7" type="line"/>
      <point x="256" y="-12"/>
      <point x="238" y="-12" type="qcurve" smooth="yes"/>
      <point x="152" y="-12"/>
      <point x="105" y="38" type="qcurve" smooth="yes"/>
      <point x="58" y="89"/>
      <point x="58" y="191" type="qcurve" smooth="yes"/>
      <point x="58" y="328"/>
      <point x="129" y="424" type="qcurve" smooth="yes"/>
      <point x="162" y="468"/>
      <point x="208" y="494" type="qcurve" smooth="yes"/>
      <point x="256" y="520"/>
      <point x="311" y="520" type="qcurve" smooth="yes"/>
      <point x="381" y="520"/>
      <point x="426" y="487" type="qcurve" smooth="yes"/>
      <point x="471" y="454"/>
      <point x="471" y="394" type="qcurve" smooth="yes"/>
      <point x="471" y="328"/>
      <point x="402" y="286" type="qcurve"/>
      <point x="326" y="238"/>
      <point x="95" y="230" type="qcurve"/>
      <point x="92" y="198"/>
      <point x="92" y="187" type="qcurve" smooth="yes"/>
      <point x="92" y="19"/>
      <point x="240" y="19" type="qcurve" smooth="yes"/>
      <point x="300" y="19"/>
      <point x="345" y="49" type="qcurve" smooth="yes"/>
      <point x="391" y="80"/>
      <point x="421" y="134" type="qcurve"/>
      <point x="448" y="117" type="line"/>
      <point x="396" y="39"/>
      <point x="330" y="6" type="qcurve"/>
      <point x="266" y="-30"/>
      <point x="232" y="-62" type="qcurve" smooth="yes"/>
      <point x="199" y="-92"/>
      <point x="199" y="-133" type="qcurve"/>
      <point x="199" y="-133"/>
      <point x="199" y="-133" type="qcurve"/>
      <point x="199" y="-133"/>
      <point x="199" y="-133" type="qcurve"/>
      <point x="199" y="-133"/>
      <point x="199" y="-133" type="qcurve"/>
      <point x="199" y="-136" type="line" smooth="yes"/>
      <point x="199" y="-155"/>
      <point x="212" y="-166" type="qcurve"/>
      <point x="226" y="-176"/>
      <point x="246" y="-177" type="qcurve"/>
      <point x="285" y="-177"/>
      <point x="309" y="-151" type="qcurve"/>
      <point x="327" y="-170" type="line"/>
      <point x="302" y="-203"/>
    </contour>
  </outline>
</glyph>
<glyph name="Ecaron" format="2">
  <advance width="556"/>
  <unicode hex="011A"/>
  <outline>
    <contour>
      <point x="377" y="780" type="line"/>
      <point x="276" y="916" type="line"/>
      <point x="298" y="931" type="line"/>
      <point x="399" y="807" type="line"/>
      <point x="545" y="931" type="line"/>
      <point x="565" y="915" type="line"/>
      <point x="417" y="780" type="line"/>
    </contour>
    <contour>
      <point x="50" y="0" type="line"/>
      <point x="190" y="698" type="line"/>
      <point x="576" y="698" type="line"/>
      <point x="570" y="666" type="line"/>
      <point x="220" y="666" type="line"/>
      <point x="160" y="370" type="line"/>
      <point x="493" y="370" type="line"/>
      <point x="487" y="338" type="line"/>
      <point x="153" y="338" type="line"/>
      <point x="92" y="32" type="line"/>
      <point x="447" y="32" type="line"/>
      <point x="440" y="0" type="line"/>
    </contour>
  </outline>
</glyph>
